<mxfile host="app.diagrams.net" agent="Mozilla/5.0 (X11; Linux x86_64; rv:128.0) Gecko/20100101 Firefox/128.0" version="26.2.14" pages="3">
  <diagram name="onescounter_moore" id="_VOaEUyc13Ap1j3Od43V">
    <mxGraphModel dx="3565" dy="1880" grid="1" gridSize="10" guides="1" tooltips="1" connect="1" arrows="1" fold="1" page="1" pageScale="1" pageWidth="850" pageHeight="1100" math="0" shadow="0">
      <root>
        <mxCell id="0" />
        <mxCell id="1" parent="0" />
        <mxCell id="lNzz2GL8EeB8wAQ7nPyb-1" value="" style="rounded=1;whiteSpace=wrap;html=1;fontFamily=Helvetica;fontSize=11;fontColor=default;labelBackgroundColor=default;fillColor=none;dashed=1;dashPattern=1 4;" parent="1" vertex="1">
          <mxGeometry x="40" y="110" width="1440" height="960" as="geometry" />
        </mxCell>
        <mxCell id="WcZGTvVYMBLY6KfuqVCo-7" style="edgeStyle=orthogonalEdgeStyle;rounded=0;orthogonalLoop=1;jettySize=auto;html=1;entryX=0.5;entryY=0;entryDx=0;entryDy=0;strokeColor=default;align=center;verticalAlign=middle;fontFamily=Helvetica;fontSize=11;fontColor=default;labelBackgroundColor=default;jumpStyle=arc;endArrow=classic;exitX=1;exitY=0.5;exitDx=0;exitDy=0;" parent="1" source="WcZGTvVYMBLY6KfuqVCo-133" target="WcZGTvVYMBLY6KfuqVCo-5" edge="1">
          <mxGeometry relative="1" as="geometry" />
        </mxCell>
        <mxCell id="WcZGTvVYMBLY6KfuqVCo-135" value="0" style="edgeLabel;html=1;align=center;verticalAlign=middle;resizable=0;points=[];fontFamily=Helvetica;fontSize=11;fontColor=default;labelBackgroundColor=default;" parent="WcZGTvVYMBLY6KfuqVCo-7" vertex="1" connectable="0">
          <mxGeometry x="-0.4681" y="1" relative="1" as="geometry">
            <mxPoint as="offset" />
          </mxGeometry>
        </mxCell>
        <mxCell id="WcZGTvVYMBLY6KfuqVCo-1" value="INIT" style="rounded=0;whiteSpace=wrap;html=1;verticalAlign=bottom;labelPosition=center;verticalLabelPosition=top;align=left;fillColor=#fff2cc;strokeColor=#d6b656;" parent="1" vertex="1">
          <mxGeometry x="230" y="160" width="120" height="60" as="geometry" />
        </mxCell>
        <mxCell id="WcZGTvVYMBLY6KfuqVCo-2" value="READY&amp;nbsp; OK&lt;br&gt;A &amp;lt;= X" style="text;html=1;align=center;verticalAlign=middle;resizable=0;points=[];autosize=1;strokeColor=none;fillColor=none;" parent="1" vertex="1">
          <mxGeometry x="245" y="170" width="90" height="40" as="geometry" />
        </mxCell>
        <mxCell id="WcZGTvVYMBLY6KfuqVCo-3" value="START" style="rounded=0;whiteSpace=wrap;html=1;verticalAlign=bottom;labelPosition=center;verticalLabelPosition=top;align=left;fillColor=#fff2cc;strokeColor=#d6b656;" parent="1" vertex="1">
          <mxGeometry x="230" y="520" width="120" height="60" as="geometry" />
        </mxCell>
        <mxCell id="WcZGTvVYMBLY6KfuqVCo-19" style="edgeStyle=orthogonalEdgeStyle;rounded=0;orthogonalLoop=1;jettySize=auto;html=1;entryX=0.5;entryY=0;entryDx=0;entryDy=0;strokeColor=default;align=center;verticalAlign=middle;fontFamily=Helvetica;fontSize=11;fontColor=default;labelBackgroundColor=default;jumpStyle=arc;endArrow=classic;" parent="1" target="WcZGTvVYMBLY6KfuqVCo-18" edge="1">
          <mxGeometry relative="1" as="geometry">
            <mxPoint x="290" y="580" as="sourcePoint" />
          </mxGeometry>
        </mxCell>
        <mxCell id="WcZGTvVYMBLY6KfuqVCo-4" value="ONES &amp;lt;= 0&lt;br&gt;A &amp;lt;= A&amp;gt;&amp;gt;1" style="text;html=1;align=center;verticalAlign=middle;resizable=0;points=[];autosize=1;strokeColor=none;fillColor=none;" parent="1" vertex="1">
          <mxGeometry x="250" y="530" width="80" height="40" as="geometry" />
        </mxCell>
        <mxCell id="WcZGTvVYMBLY6KfuqVCo-8" style="edgeStyle=orthogonalEdgeStyle;rounded=0;orthogonalLoop=1;jettySize=auto;html=1;entryX=0.5;entryY=0;entryDx=0;entryDy=0;exitX=0;exitY=0.5;exitDx=0;exitDy=0;strokeColor=default;align=center;verticalAlign=middle;fontFamily=Helvetica;fontSize=11;fontColor=default;labelBackgroundColor=default;jumpStyle=arc;endArrow=classic;" parent="1" source="WcZGTvVYMBLY6KfuqVCo-5" target="WcZGTvVYMBLY6KfuqVCo-6" edge="1">
          <mxGeometry relative="1" as="geometry" />
        </mxCell>
        <mxCell id="WcZGTvVYMBLY6KfuqVCo-10" value="0" style="edgeLabel;html=1;align=center;verticalAlign=middle;resizable=0;points=[];rounded=0;strokeColor=default;fontFamily=Helvetica;fontSize=11;fontColor=default;labelBackgroundColor=default;" parent="WcZGTvVYMBLY6KfuqVCo-8" vertex="1" connectable="0">
          <mxGeometry x="-0.3587" y="-1" relative="1" as="geometry">
            <mxPoint as="offset" />
          </mxGeometry>
        </mxCell>
        <mxCell id="WcZGTvVYMBLY6KfuqVCo-5" value="CALC" style="rhombus;whiteSpace=wrap;html=1;" parent="1" vertex="1">
          <mxGeometry x="265" y="330" width="50" height="50" as="geometry" />
        </mxCell>
        <mxCell id="WcZGTvVYMBLY6KfuqVCo-14" style="edgeStyle=orthogonalEdgeStyle;rounded=0;orthogonalLoop=1;jettySize=auto;html=1;entryX=1;entryY=0.5;entryDx=0;entryDy=0;strokeColor=default;align=center;verticalAlign=middle;fontFamily=Helvetica;fontSize=11;fontColor=default;labelBackgroundColor=default;jumpStyle=arc;endArrow=classic;" parent="1" source="WcZGTvVYMBLY6KfuqVCo-6" target="WcZGTvVYMBLY6KfuqVCo-1" edge="1">
          <mxGeometry relative="1" as="geometry">
            <Array as="points">
              <mxPoint x="390" y="445" />
              <mxPoint x="390" y="190" />
            </Array>
          </mxGeometry>
        </mxCell>
        <mxCell id="WcZGTvVYMBLY6KfuqVCo-15" value="0" style="edgeLabel;html=1;align=center;verticalAlign=middle;resizable=0;points=[];rounded=0;strokeColor=default;fontFamily=Helvetica;fontSize=11;fontColor=default;labelBackgroundColor=default;" parent="WcZGTvVYMBLY6KfuqVCo-14" vertex="1" connectable="0">
          <mxGeometry x="-0.7681" relative="1" as="geometry">
            <mxPoint as="offset" />
          </mxGeometry>
        </mxCell>
        <mxCell id="WcZGTvVYMBLY6KfuqVCo-16" style="edgeStyle=orthogonalEdgeStyle;rounded=0;orthogonalLoop=1;jettySize=auto;html=1;entryX=0.5;entryY=0;entryDx=0;entryDy=0;exitX=0;exitY=0.5;exitDx=0;exitDy=0;strokeColor=default;align=center;verticalAlign=middle;fontFamily=Helvetica;fontSize=11;fontColor=default;labelBackgroundColor=default;jumpStyle=arc;endArrow=classic;" parent="1" source="WcZGTvVYMBLY6KfuqVCo-6" target="WcZGTvVYMBLY6KfuqVCo-3" edge="1">
          <mxGeometry relative="1" as="geometry" />
        </mxCell>
        <mxCell id="WcZGTvVYMBLY6KfuqVCo-17" value="1" style="edgeLabel;html=1;align=center;verticalAlign=middle;resizable=0;points=[];rounded=0;strokeColor=default;fontFamily=Helvetica;fontSize=11;fontColor=default;labelBackgroundColor=default;" parent="WcZGTvVYMBLY6KfuqVCo-16" vertex="1" connectable="0">
          <mxGeometry x="-0.1924" y="2" relative="1" as="geometry">
            <mxPoint x="-2" y="-11" as="offset" />
          </mxGeometry>
        </mxCell>
        <mxCell id="WcZGTvVYMBLY6KfuqVCo-6" value="DATAIN" style="rhombus;whiteSpace=wrap;html=1;" parent="1" vertex="1">
          <mxGeometry x="265" y="420" width="50" height="50" as="geometry" />
        </mxCell>
        <mxCell id="WcZGTvVYMBLY6KfuqVCo-9" style="edgeStyle=orthogonalEdgeStyle;rounded=0;orthogonalLoop=1;jettySize=auto;html=1;entryX=0.993;entryY=0.647;entryDx=0;entryDy=0;entryPerimeter=0;strokeColor=default;align=center;verticalAlign=middle;fontFamily=Helvetica;fontSize=11;fontColor=default;labelBackgroundColor=default;jumpStyle=arc;endArrow=classic;" parent="1" source="WcZGTvVYMBLY6KfuqVCo-5" target="WcZGTvVYMBLY6KfuqVCo-1" edge="1">
          <mxGeometry relative="1" as="geometry">
            <Array as="points">
              <mxPoint x="370" y="355" />
              <mxPoint x="370" y="199" />
            </Array>
          </mxGeometry>
        </mxCell>
        <mxCell id="WcZGTvVYMBLY6KfuqVCo-11" value="1" style="edgeLabel;html=1;align=center;verticalAlign=middle;resizable=0;points=[];rounded=0;strokeColor=default;fontFamily=Helvetica;fontSize=11;fontColor=default;labelBackgroundColor=default;" parent="WcZGTvVYMBLY6KfuqVCo-9" vertex="1" connectable="0">
          <mxGeometry x="-0.5707" relative="1" as="geometry">
            <mxPoint as="offset" />
          </mxGeometry>
        </mxCell>
        <mxCell id="WcZGTvVYMBLY6KfuqVCo-26" style="edgeStyle=orthogonalEdgeStyle;rounded=0;orthogonalLoop=1;jettySize=auto;html=1;entryX=0.5;entryY=0;entryDx=0;entryDy=0;strokeColor=default;align=center;verticalAlign=middle;fontFamily=Helvetica;fontSize=11;fontColor=default;labelBackgroundColor=default;jumpStyle=arc;endArrow=classic;" parent="1" source="WcZGTvVYMBLY6KfuqVCo-18" target="WcZGTvVYMBLY6KfuqVCo-20" edge="1">
          <mxGeometry relative="1" as="geometry" />
        </mxCell>
        <mxCell id="WcZGTvVYMBLY6KfuqVCo-28" value="1" style="edgeLabel;html=1;align=center;verticalAlign=middle;resizable=0;points=[];rounded=0;strokeColor=default;fontFamily=Helvetica;fontSize=11;fontColor=default;labelBackgroundColor=default;" parent="WcZGTvVYMBLY6KfuqVCo-26" vertex="1" connectable="0">
          <mxGeometry x="-0.1678" y="-1" relative="1" as="geometry">
            <mxPoint as="offset" />
          </mxGeometry>
        </mxCell>
        <mxCell id="WcZGTvVYMBLY6KfuqVCo-27" style="edgeStyle=orthogonalEdgeStyle;rounded=0;orthogonalLoop=1;jettySize=auto;html=1;entryX=0.5;entryY=0;entryDx=0;entryDy=0;strokeColor=default;align=center;verticalAlign=middle;fontFamily=Helvetica;fontSize=11;fontColor=default;labelBackgroundColor=default;jumpStyle=arc;endArrow=classic;" parent="1" source="WcZGTvVYMBLY6KfuqVCo-18" target="WcZGTvVYMBLY6KfuqVCo-23" edge="1">
          <mxGeometry relative="1" as="geometry" />
        </mxCell>
        <mxCell id="WcZGTvVYMBLY6KfuqVCo-29" value="0" style="edgeLabel;html=1;align=center;verticalAlign=middle;resizable=0;points=[];rounded=0;strokeColor=default;fontFamily=Helvetica;fontSize=11;fontColor=default;labelBackgroundColor=default;" parent="WcZGTvVYMBLY6KfuqVCo-27" vertex="1" connectable="0">
          <mxGeometry x="-0.1569" y="1" relative="1" as="geometry">
            <mxPoint as="offset" />
          </mxGeometry>
        </mxCell>
        <mxCell id="WcZGTvVYMBLY6KfuqVCo-18" value="A(0)" style="rhombus;whiteSpace=wrap;html=1;" parent="1" vertex="1">
          <mxGeometry x="265" y="610" width="50" height="50" as="geometry" />
        </mxCell>
        <mxCell id="WcZGTvVYMBLY6KfuqVCo-32" style="edgeStyle=orthogonalEdgeStyle;rounded=0;orthogonalLoop=1;jettySize=auto;html=1;strokeColor=default;align=center;verticalAlign=middle;fontFamily=Helvetica;fontSize=11;fontColor=default;labelBackgroundColor=default;jumpStyle=arc;endArrow=classic;" parent="1" source="WcZGTvVYMBLY6KfuqVCo-20" target="WcZGTvVYMBLY6KfuqVCo-30" edge="1">
          <mxGeometry relative="1" as="geometry" />
        </mxCell>
        <mxCell id="WcZGTvVYMBLY6KfuqVCo-20" value="INC" style="rounded=0;whiteSpace=wrap;html=1;verticalAlign=bottom;labelPosition=center;verticalLabelPosition=top;align=left;fillColor=#fff2cc;strokeColor=#d6b656;" parent="1" vertex="1">
          <mxGeometry x="110" y="680" width="120" height="60" as="geometry" />
        </mxCell>
        <mxCell id="WcZGTvVYMBLY6KfuqVCo-22" value="ONES &amp;lt;= ONES + 1&lt;br&gt;A &amp;lt;= A&amp;gt;&amp;gt;1" style="text;html=1;align=center;verticalAlign=middle;resizable=0;points=[];autosize=1;strokeColor=none;fillColor=none;" parent="1" vertex="1">
          <mxGeometry x="105" y="690" width="130" height="40" as="geometry" />
        </mxCell>
        <mxCell id="WcZGTvVYMBLY6KfuqVCo-35" style="edgeStyle=orthogonalEdgeStyle;rounded=0;orthogonalLoop=1;jettySize=auto;html=1;entryX=0.5;entryY=0;entryDx=0;entryDy=0;" parent="1" source="WcZGTvVYMBLY6KfuqVCo-23" target="WcZGTvVYMBLY6KfuqVCo-33" edge="1">
          <mxGeometry relative="1" as="geometry" />
        </mxCell>
        <mxCell id="WcZGTvVYMBLY6KfuqVCo-23" value="SHIFT" style="rounded=0;whiteSpace=wrap;html=1;verticalAlign=bottom;labelPosition=center;verticalLabelPosition=top;align=left;fillColor=#fff2cc;strokeColor=#d6b656;" parent="1" vertex="1">
          <mxGeometry x="350" y="680" width="120" height="60" as="geometry" />
        </mxCell>
        <mxCell id="WcZGTvVYMBLY6KfuqVCo-25" value="A &amp;lt;= A&amp;gt;&amp;gt;1" style="text;html=1;align=center;verticalAlign=middle;resizable=0;points=[];autosize=1;strokeColor=none;fillColor=none;" parent="1" vertex="1">
          <mxGeometry x="370" y="695" width="80" height="30" as="geometry" />
        </mxCell>
        <mxCell id="WcZGTvVYMBLY6KfuqVCo-40" style="edgeStyle=orthogonalEdgeStyle;rounded=0;orthogonalLoop=1;jettySize=auto;html=1;entryX=0.5;entryY=0;entryDx=0;entryDy=0;exitX=0;exitY=0.5;exitDx=0;exitDy=0;strokeColor=default;align=center;verticalAlign=middle;fontFamily=Helvetica;fontSize=11;fontColor=default;labelBackgroundColor=default;jumpStyle=arc;endArrow=classic;" parent="1" source="WcZGTvVYMBLY6KfuqVCo-30" target="WcZGTvVYMBLY6KfuqVCo-31" edge="1">
          <mxGeometry relative="1" as="geometry">
            <mxPoint x="100" y="830" as="targetPoint" />
            <Array as="points">
              <mxPoint x="125" y="795" />
              <mxPoint x="125" y="830" />
              <mxPoint x="170" y="830" />
            </Array>
          </mxGeometry>
        </mxCell>
        <mxCell id="WcZGTvVYMBLY6KfuqVCo-41" value="0" style="edgeLabel;html=1;align=center;verticalAlign=middle;resizable=0;points=[];rounded=0;strokeColor=default;fontFamily=Helvetica;fontSize=11;fontColor=default;labelBackgroundColor=default;" parent="WcZGTvVYMBLY6KfuqVCo-40" vertex="1" connectable="0">
          <mxGeometry x="-0.2749" y="2" relative="1" as="geometry">
            <mxPoint as="offset" />
          </mxGeometry>
        </mxCell>
        <mxCell id="WcZGTvVYMBLY6KfuqVCo-53" style="edgeStyle=orthogonalEdgeStyle;rounded=0;orthogonalLoop=1;jettySize=auto;html=1;entryX=0;entryY=0.25;entryDx=0;entryDy=0;jumpStyle=arc;strokeColor=default;align=center;verticalAlign=middle;fontFamily=Helvetica;fontSize=11;fontColor=default;labelBackgroundColor=default;endArrow=classic;" parent="1" source="WcZGTvVYMBLY6KfuqVCo-30" target="WcZGTvVYMBLY6KfuqVCo-47" edge="1">
          <mxGeometry relative="1" as="geometry">
            <Array as="points">
              <mxPoint x="510" y="795" />
              <mxPoint x="510" y="540" />
              <mxPoint x="630" y="540" />
            </Array>
          </mxGeometry>
        </mxCell>
        <mxCell id="WcZGTvVYMBLY6KfuqVCo-30" value="A=0" style="rhombus;whiteSpace=wrap;html=1;" parent="1" vertex="1">
          <mxGeometry x="145" y="770" width="50" height="50" as="geometry" />
        </mxCell>
        <mxCell id="WcZGTvVYMBLY6KfuqVCo-42" style="edgeStyle=orthogonalEdgeStyle;rounded=0;orthogonalLoop=1;jettySize=auto;html=1;entryX=0;entryY=0.5;entryDx=0;entryDy=0;strokeColor=default;align=center;verticalAlign=middle;fontFamily=Helvetica;fontSize=11;fontColor=default;labelBackgroundColor=default;jumpStyle=arc;endArrow=classic;" parent="1" source="WcZGTvVYMBLY6KfuqVCo-31" target="WcZGTvVYMBLY6KfuqVCo-20" edge="1">
          <mxGeometry relative="1" as="geometry">
            <Array as="points">
              <mxPoint x="90" y="875" />
              <mxPoint x="90" y="710" />
            </Array>
          </mxGeometry>
        </mxCell>
        <mxCell id="WcZGTvVYMBLY6KfuqVCo-43" value="1" style="edgeLabel;html=1;align=center;verticalAlign=middle;resizable=0;points=[];rounded=0;strokeColor=default;fontFamily=Helvetica;fontSize=11;fontColor=default;labelBackgroundColor=default;" parent="WcZGTvVYMBLY6KfuqVCo-42" vertex="1" connectable="0">
          <mxGeometry x="-0.7317" relative="1" as="geometry">
            <mxPoint as="offset" />
          </mxGeometry>
        </mxCell>
        <mxCell id="WcZGTvVYMBLY6KfuqVCo-44" style="edgeStyle=orthogonalEdgeStyle;rounded=0;orthogonalLoop=1;jettySize=auto;html=1;entryX=0;entryY=0.75;entryDx=0;entryDy=0;strokeColor=default;align=center;verticalAlign=middle;fontFamily=Helvetica;fontSize=11;fontColor=default;labelBackgroundColor=default;jumpStyle=arc;endArrow=classic;" parent="1" source="WcZGTvVYMBLY6KfuqVCo-31" target="WcZGTvVYMBLY6KfuqVCo-23" edge="1">
          <mxGeometry relative="1" as="geometry">
            <Array as="points">
              <mxPoint x="310" y="875" />
              <mxPoint x="310" y="725" />
            </Array>
          </mxGeometry>
        </mxCell>
        <mxCell id="WcZGTvVYMBLY6KfuqVCo-45" value="0" style="edgeLabel;html=1;align=center;verticalAlign=middle;resizable=0;points=[];rounded=0;strokeColor=default;fontFamily=Helvetica;fontSize=11;fontColor=default;labelBackgroundColor=default;" parent="WcZGTvVYMBLY6KfuqVCo-44" vertex="1" connectable="0">
          <mxGeometry x="-0.7957" y="1" relative="1" as="geometry">
            <mxPoint as="offset" />
          </mxGeometry>
        </mxCell>
        <mxCell id="WcZGTvVYMBLY6KfuqVCo-31" value="A(0)" style="rhombus;whiteSpace=wrap;html=1;" parent="1" vertex="1">
          <mxGeometry x="145" y="850" width="50" height="50" as="geometry" />
        </mxCell>
        <mxCell id="WcZGTvVYMBLY6KfuqVCo-36" style="edgeStyle=orthogonalEdgeStyle;rounded=0;orthogonalLoop=1;jettySize=auto;html=1;entryX=0.5;entryY=0;entryDx=0;entryDy=0;exitX=0;exitY=0.5;exitDx=0;exitDy=0;strokeColor=default;align=center;verticalAlign=middle;fontFamily=Helvetica;fontSize=11;fontColor=default;labelBackgroundColor=default;jumpStyle=arc;endArrow=classic;" parent="1" source="WcZGTvVYMBLY6KfuqVCo-33" target="WcZGTvVYMBLY6KfuqVCo-34" edge="1">
          <mxGeometry relative="1" as="geometry">
            <Array as="points">
              <mxPoint x="365" y="835" />
              <mxPoint x="365" y="870" />
              <mxPoint x="410" y="870" />
            </Array>
          </mxGeometry>
        </mxCell>
        <mxCell id="WcZGTvVYMBLY6KfuqVCo-37" value="0" style="edgeLabel;html=1;align=center;verticalAlign=middle;resizable=0;points=[];rounded=0;strokeColor=default;fontFamily=Helvetica;fontSize=11;fontColor=default;labelBackgroundColor=default;" parent="WcZGTvVYMBLY6KfuqVCo-36" vertex="1" connectable="0">
          <mxGeometry x="-0.4365" y="-2" relative="1" as="geometry">
            <mxPoint as="offset" />
          </mxGeometry>
        </mxCell>
        <mxCell id="WcZGTvVYMBLY6KfuqVCo-49" style="edgeStyle=orthogonalEdgeStyle;rounded=0;orthogonalLoop=1;jettySize=auto;html=1;entryX=0;entryY=0.5;entryDx=0;entryDy=0;strokeColor=default;align=center;verticalAlign=middle;fontFamily=Helvetica;fontSize=11;fontColor=default;labelBackgroundColor=default;jumpStyle=arc;endArrow=classic;" parent="1" source="WcZGTvVYMBLY6KfuqVCo-33" target="WcZGTvVYMBLY6KfuqVCo-47" edge="1">
          <mxGeometry relative="1" as="geometry">
            <Array as="points">
              <mxPoint x="533" y="835" />
              <mxPoint x="533" y="560" />
            </Array>
          </mxGeometry>
        </mxCell>
        <mxCell id="WcZGTvVYMBLY6KfuqVCo-50" value="1" style="edgeLabel;html=1;align=center;verticalAlign=middle;resizable=0;points=[];rounded=0;strokeColor=default;fontFamily=Helvetica;fontSize=11;fontColor=default;labelBackgroundColor=default;" parent="WcZGTvVYMBLY6KfuqVCo-49" vertex="1" connectable="0">
          <mxGeometry x="-0.8421" relative="1" as="geometry">
            <mxPoint as="offset" />
          </mxGeometry>
        </mxCell>
        <mxCell id="WcZGTvVYMBLY6KfuqVCo-33" value="A=0" style="rhombus;whiteSpace=wrap;html=1;" parent="1" vertex="1">
          <mxGeometry x="385" y="810" width="50" height="50" as="geometry" />
        </mxCell>
        <mxCell id="WcZGTvVYMBLY6KfuqVCo-38" style="edgeStyle=orthogonalEdgeStyle;rounded=0;orthogonalLoop=1;jettySize=auto;html=1;entryX=1;entryY=0.75;entryDx=0;entryDy=0;strokeColor=default;align=center;verticalAlign=middle;fontFamily=Helvetica;fontSize=11;fontColor=default;labelBackgroundColor=default;jumpStyle=arc;endArrow=classic;" parent="1" source="WcZGTvVYMBLY6KfuqVCo-34" target="WcZGTvVYMBLY6KfuqVCo-20" edge="1">
          <mxGeometry relative="1" as="geometry">
            <Array as="points">
              <mxPoint x="270" y="915" />
              <mxPoint x="270" y="725" />
            </Array>
          </mxGeometry>
        </mxCell>
        <mxCell id="WcZGTvVYMBLY6KfuqVCo-39" value="1" style="edgeLabel;html=1;align=center;verticalAlign=middle;resizable=0;points=[];rounded=0;strokeColor=default;fontFamily=Helvetica;fontSize=11;fontColor=default;labelBackgroundColor=default;" parent="WcZGTvVYMBLY6KfuqVCo-38" vertex="1" connectable="0">
          <mxGeometry x="-0.8275" y="-2" relative="1" as="geometry">
            <mxPoint as="offset" />
          </mxGeometry>
        </mxCell>
        <mxCell id="WcZGTvVYMBLY6KfuqVCo-51" style="edgeStyle=orthogonalEdgeStyle;rounded=0;orthogonalLoop=1;jettySize=auto;html=1;entryX=1;entryY=0.5;entryDx=0;entryDy=0;strokeColor=default;align=center;verticalAlign=middle;fontFamily=Helvetica;fontSize=11;fontColor=default;labelBackgroundColor=default;jumpStyle=arc;endArrow=classic;" parent="1" source="WcZGTvVYMBLY6KfuqVCo-34" target="WcZGTvVYMBLY6KfuqVCo-23" edge="1">
          <mxGeometry relative="1" as="geometry">
            <Array as="points">
              <mxPoint x="490" y="915" />
              <mxPoint x="490" y="710" />
            </Array>
          </mxGeometry>
        </mxCell>
        <mxCell id="WcZGTvVYMBLY6KfuqVCo-52" value="0" style="edgeLabel;html=1;align=center;verticalAlign=middle;resizable=0;points=[];rounded=0;strokeColor=default;fontFamily=Helvetica;fontSize=11;fontColor=default;labelBackgroundColor=default;" parent="WcZGTvVYMBLY6KfuqVCo-51" vertex="1" connectable="0">
          <mxGeometry x="-0.8429" y="3" relative="1" as="geometry">
            <mxPoint y="1" as="offset" />
          </mxGeometry>
        </mxCell>
        <mxCell id="WcZGTvVYMBLY6KfuqVCo-34" value="A(0)" style="rhombus;whiteSpace=wrap;html=1;" parent="1" vertex="1">
          <mxGeometry x="385" y="890" width="50" height="50" as="geometry" />
        </mxCell>
        <mxCell id="WcZGTvVYMBLY6KfuqVCo-140" style="edgeStyle=orthogonalEdgeStyle;shape=connector;rounded=0;jumpStyle=arc;orthogonalLoop=1;jettySize=auto;html=1;entryX=0.5;entryY=0;entryDx=0;entryDy=0;strokeColor=default;align=center;verticalAlign=middle;fontFamily=Helvetica;fontSize=11;fontColor=default;labelBackgroundColor=default;endArrow=classic;exitX=0;exitY=0.5;exitDx=0;exitDy=0;" parent="1" source="WcZGTvVYMBLY6KfuqVCo-141" target="WcZGTvVYMBLY6KfuqVCo-56" edge="1">
          <mxGeometry relative="1" as="geometry">
            <Array as="points">
              <mxPoint x="645" y="651" />
              <mxPoint x="645" y="690" />
              <mxPoint x="690" y="690" />
            </Array>
          </mxGeometry>
        </mxCell>
        <mxCell id="WcZGTvVYMBLY6KfuqVCo-145" value="0" style="edgeLabel;html=1;align=center;verticalAlign=middle;resizable=0;points=[];fontFamily=Helvetica;fontSize=11;fontColor=default;labelBackgroundColor=default;" parent="WcZGTvVYMBLY6KfuqVCo-140" vertex="1" connectable="0">
          <mxGeometry x="-0.3142" y="1" relative="1" as="geometry">
            <mxPoint as="offset" />
          </mxGeometry>
        </mxCell>
        <mxCell id="WcZGTvVYMBLY6KfuqVCo-47" value="WAITDATA" style="rounded=0;whiteSpace=wrap;html=1;verticalAlign=bottom;labelPosition=center;verticalLabelPosition=top;align=left;fillColor=#fff2cc;strokeColor=#d6b656;" parent="1" vertex="1">
          <mxGeometry x="630" y="530" width="120" height="60" as="geometry" />
        </mxCell>
        <mxCell id="WcZGTvVYMBLY6KfuqVCo-48" value="READY&lt;br&gt;A &amp;lt;= X" style="text;html=1;align=center;verticalAlign=middle;resizable=0;points=[];autosize=1;strokeColor=none;fillColor=none;" parent="1" vertex="1">
          <mxGeometry x="660" y="540" width="60" height="40" as="geometry" />
        </mxCell>
        <mxCell id="WcZGTvVYMBLY6KfuqVCo-54" style="edgeStyle=orthogonalEdgeStyle;rounded=0;orthogonalLoop=1;jettySize=auto;html=1;entryX=0.5;entryY=0;entryDx=0;entryDy=0;exitX=0;exitY=0.5;exitDx=0;exitDy=0;strokeColor=default;align=center;verticalAlign=middle;fontFamily=Helvetica;fontSize=11;fontColor=default;labelBackgroundColor=default;jumpStyle=arc;endArrow=classic;" parent="1" source="WcZGTvVYMBLY6KfuqVCo-56" target="WcZGTvVYMBLY6KfuqVCo-60" edge="1">
          <mxGeometry relative="1" as="geometry" />
        </mxCell>
        <mxCell id="WcZGTvVYMBLY6KfuqVCo-55" value="0" style="edgeLabel;html=1;align=center;verticalAlign=middle;resizable=0;points=[];rounded=0;strokeColor=default;fontFamily=Helvetica;fontSize=11;fontColor=default;labelBackgroundColor=default;" parent="WcZGTvVYMBLY6KfuqVCo-54" vertex="1" connectable="0">
          <mxGeometry x="-0.3587" y="-1" relative="1" as="geometry">
            <mxPoint as="offset" />
          </mxGeometry>
        </mxCell>
        <mxCell id="WcZGTvVYMBLY6KfuqVCo-64" style="edgeStyle=orthogonalEdgeStyle;shape=connector;rounded=0;jumpStyle=arc;orthogonalLoop=1;jettySize=auto;html=1;entryX=1;entryY=0.25;entryDx=0;entryDy=0;strokeColor=default;align=center;verticalAlign=middle;fontFamily=Helvetica;fontSize=11;fontColor=default;labelBackgroundColor=default;endArrow=classic;" parent="1" source="WcZGTvVYMBLY6KfuqVCo-56" target="WcZGTvVYMBLY6KfuqVCo-1" edge="1">
          <mxGeometry relative="1" as="geometry">
            <Array as="points">
              <mxPoint x="860" y="735" />
              <mxPoint x="860" y="175" />
            </Array>
          </mxGeometry>
        </mxCell>
        <mxCell id="WcZGTvVYMBLY6KfuqVCo-65" value="1" style="edgeLabel;html=1;align=center;verticalAlign=middle;resizable=0;points=[];fontFamily=Helvetica;fontSize=11;fontColor=default;labelBackgroundColor=default;" parent="WcZGTvVYMBLY6KfuqVCo-64" vertex="1" connectable="0">
          <mxGeometry x="-0.9346" y="2" relative="1" as="geometry">
            <mxPoint y="1" as="offset" />
          </mxGeometry>
        </mxCell>
        <mxCell id="WcZGTvVYMBLY6KfuqVCo-56" value="CALC" style="rhombus;whiteSpace=wrap;html=1;" parent="1" vertex="1">
          <mxGeometry x="665" y="710" width="50" height="50" as="geometry" />
        </mxCell>
        <mxCell id="WcZGTvVYMBLY6KfuqVCo-58" style="edgeStyle=orthogonalEdgeStyle;rounded=0;orthogonalLoop=1;jettySize=auto;html=1;exitX=0;exitY=0.5;exitDx=0;exitDy=0;strokeColor=default;align=center;verticalAlign=middle;fontFamily=Helvetica;fontSize=11;fontColor=default;labelBackgroundColor=default;jumpStyle=arc;endArrow=classic;entryX=0;entryY=0.75;entryDx=0;entryDy=0;" parent="1" source="WcZGTvVYMBLY6KfuqVCo-60" target="WcZGTvVYMBLY6KfuqVCo-47" edge="1">
          <mxGeometry relative="1" as="geometry">
            <mxPoint x="620" y="680" as="targetPoint" />
          </mxGeometry>
        </mxCell>
        <mxCell id="WcZGTvVYMBLY6KfuqVCo-63" value="0" style="edgeLabel;html=1;align=center;verticalAlign=middle;resizable=0;points=[];fontFamily=Helvetica;fontSize=11;fontColor=default;labelBackgroundColor=default;" parent="WcZGTvVYMBLY6KfuqVCo-58" vertex="1" connectable="0">
          <mxGeometry x="-0.3684" y="1" relative="1" as="geometry">
            <mxPoint as="offset" />
          </mxGeometry>
        </mxCell>
        <mxCell id="WcZGTvVYMBLY6KfuqVCo-68" style="edgeStyle=orthogonalEdgeStyle;shape=connector;rounded=0;jumpStyle=arc;orthogonalLoop=1;jettySize=auto;html=1;entryX=0.5;entryY=0;entryDx=0;entryDy=0;strokeColor=default;align=center;verticalAlign=middle;fontFamily=Helvetica;fontSize=11;fontColor=default;labelBackgroundColor=default;endArrow=classic;exitX=1;exitY=0.5;exitDx=0;exitDy=0;" parent="1" source="WcZGTvVYMBLY6KfuqVCo-60" target="WcZGTvVYMBLY6KfuqVCo-66" edge="1">
          <mxGeometry relative="1" as="geometry" />
        </mxCell>
        <mxCell id="WcZGTvVYMBLY6KfuqVCo-69" value="1" style="edgeLabel;html=1;align=center;verticalAlign=middle;resizable=0;points=[];fontFamily=Helvetica;fontSize=11;fontColor=default;labelBackgroundColor=default;" parent="WcZGTvVYMBLY6KfuqVCo-68" vertex="1" connectable="0">
          <mxGeometry x="-0.6636" y="-1" relative="1" as="geometry">
            <mxPoint as="offset" />
          </mxGeometry>
        </mxCell>
        <mxCell id="WcZGTvVYMBLY6KfuqVCo-60" value="DATAIN" style="rhombus;whiteSpace=wrap;html=1;" parent="1" vertex="1">
          <mxGeometry x="665" y="800" width="50" height="50" as="geometry" />
        </mxCell>
        <mxCell id="WcZGTvVYMBLY6KfuqVCo-71" style="edgeStyle=orthogonalEdgeStyle;shape=connector;rounded=0;jumpStyle=arc;orthogonalLoop=1;jettySize=auto;html=1;entryX=0.5;entryY=0;entryDx=0;entryDy=0;strokeColor=default;align=center;verticalAlign=middle;fontFamily=Helvetica;fontSize=11;fontColor=default;labelBackgroundColor=default;endArrow=classic;" parent="1" source="WcZGTvVYMBLY6KfuqVCo-66" target="WcZGTvVYMBLY6KfuqVCo-70" edge="1">
          <mxGeometry relative="1" as="geometry" />
        </mxCell>
        <mxCell id="WcZGTvVYMBLY6KfuqVCo-66" value="CALC_A" style="rounded=0;whiteSpace=wrap;html=1;verticalAlign=bottom;labelPosition=center;verticalLabelPosition=top;align=left;fillColor=#fff2cc;strokeColor=#d6b656;" parent="1" vertex="1">
          <mxGeometry x="679" y="890" width="120" height="60" as="geometry" />
        </mxCell>
        <mxCell id="WcZGTvVYMBLY6KfuqVCo-67" value="A &amp;lt;= A&amp;gt;&amp;gt;1" style="text;html=1;align=center;verticalAlign=middle;resizable=0;points=[];autosize=1;strokeColor=none;fillColor=none;" parent="1" vertex="1">
          <mxGeometry x="699" y="905" width="80" height="30" as="geometry" />
        </mxCell>
        <mxCell id="WcZGTvVYMBLY6KfuqVCo-73" style="edgeStyle=orthogonalEdgeStyle;shape=connector;rounded=0;jumpStyle=arc;orthogonalLoop=1;jettySize=auto;html=1;strokeColor=default;align=center;verticalAlign=middle;fontFamily=Helvetica;fontSize=11;fontColor=default;labelBackgroundColor=default;endArrow=classic;entryX=0.975;entryY=0.483;entryDx=0;entryDy=0;entryPerimeter=0;" parent="1" source="WcZGTvVYMBLY6KfuqVCo-70" edge="1">
          <mxGeometry relative="1" as="geometry">
            <mxPoint x="658" y="1004.49" as="targetPoint" />
          </mxGeometry>
        </mxCell>
        <mxCell id="WcZGTvVYMBLY6KfuqVCo-75" value="1" style="edgeLabel;html=1;align=center;verticalAlign=middle;resizable=0;points=[];fontFamily=Helvetica;fontSize=11;fontColor=default;labelBackgroundColor=default;" parent="WcZGTvVYMBLY6KfuqVCo-73" vertex="1" connectable="0">
          <mxGeometry x="-0.3805" relative="1" as="geometry">
            <mxPoint as="offset" />
          </mxGeometry>
        </mxCell>
        <mxCell id="WcZGTvVYMBLY6KfuqVCo-76" style="edgeStyle=orthogonalEdgeStyle;shape=connector;rounded=0;jumpStyle=arc;orthogonalLoop=1;jettySize=auto;html=1;strokeColor=default;align=center;verticalAlign=middle;fontFamily=Helvetica;fontSize=11;fontColor=default;labelBackgroundColor=default;endArrow=classic;entryX=0.012;entryY=0.492;entryDx=0;entryDy=0;entryPerimeter=0;" parent="1" source="WcZGTvVYMBLY6KfuqVCo-70" target="WcZGTvVYMBLY6KfuqVCo-77" edge="1">
          <mxGeometry relative="1" as="geometry">
            <mxPoint x="789" y="1005" as="targetPoint" />
          </mxGeometry>
        </mxCell>
        <mxCell id="WcZGTvVYMBLY6KfuqVCo-81" value="0" style="edgeLabel;html=1;align=center;verticalAlign=middle;resizable=0;points=[];fontFamily=Helvetica;fontSize=11;fontColor=default;labelBackgroundColor=default;" parent="WcZGTvVYMBLY6KfuqVCo-76" vertex="1" connectable="0">
          <mxGeometry x="-0.1642" relative="1" as="geometry">
            <mxPoint x="4" as="offset" />
          </mxGeometry>
        </mxCell>
        <mxCell id="WcZGTvVYMBLY6KfuqVCo-70" value="A(0)" style="rhombus;whiteSpace=wrap;html=1;" parent="1" vertex="1">
          <mxGeometry x="714" y="980" width="50" height="50" as="geometry" />
        </mxCell>
        <mxCell id="WcZGTvVYMBLY6KfuqVCo-74" value="INC" style="text;html=1;align=center;verticalAlign=middle;resizable=0;points=[];autosize=1;strokeColor=none;fillColor=none;fontFamily=Helvetica;fontSize=11;fontColor=default;labelBackgroundColor=default;" parent="1" vertex="1">
          <mxGeometry x="629" y="990" width="40" height="30" as="geometry" />
        </mxCell>
        <mxCell id="WcZGTvVYMBLY6KfuqVCo-77" value="SHIFT" style="text;html=1;align=center;verticalAlign=middle;resizable=0;points=[];autosize=1;strokeColor=none;fillColor=none;fontFamily=Helvetica;fontSize=11;fontColor=default;labelBackgroundColor=default;" parent="1" vertex="1">
          <mxGeometry x="790" y="990" width="60" height="30" as="geometry" />
        </mxCell>
        <mxCell id="WcZGTvVYMBLY6KfuqVCo-84" style="edgeStyle=orthogonalEdgeStyle;shape=connector;rounded=0;jumpStyle=arc;orthogonalLoop=1;jettySize=auto;html=1;entryX=0.5;entryY=0;entryDx=0;entryDy=0;strokeColor=default;align=center;verticalAlign=middle;fontFamily=Helvetica;fontSize=11;fontColor=default;labelBackgroundColor=default;endArrow=classic;startArrow=dash;startFill=0;" parent="1" source="WcZGTvVYMBLY6KfuqVCo-82" target="WcZGTvVYMBLY6KfuqVCo-83" edge="1">
          <mxGeometry relative="1" as="geometry" />
        </mxCell>
        <mxCell id="WcZGTvVYMBLY6KfuqVCo-85" value="8" style="edgeLabel;html=1;align=center;verticalAlign=middle;resizable=0;points=[];fontFamily=Helvetica;fontSize=11;fontColor=default;labelBackgroundColor=default;" parent="WcZGTvVYMBLY6KfuqVCo-84" vertex="1" connectable="0">
          <mxGeometry x="-0.0894" y="-1" relative="1" as="geometry">
            <mxPoint x="6" as="offset" />
          </mxGeometry>
        </mxCell>
        <mxCell id="WcZGTvVYMBLY6KfuqVCo-82" value="" style="shape=trapezoid;perimeter=trapezoidPerimeter;whiteSpace=wrap;html=1;fixedSize=1;fontFamily=Helvetica;fontSize=11;fontColor=default;labelBackgroundColor=default;rotation=-180;size=30;" parent="1" vertex="1">
          <mxGeometry x="1150" y="300" width="150" height="30" as="geometry" />
        </mxCell>
        <mxCell id="WcZGTvVYMBLY6KfuqVCo-83" value="A" style="rounded=0;whiteSpace=wrap;html=1;fontFamily=Helvetica;fontSize=14;labelBackgroundColor=none;fillColor=#ffe6cc;strokeColor=#d79b00;fontStyle=1" parent="1" vertex="1">
          <mxGeometry x="1160" y="360" width="130" height="30" as="geometry" />
        </mxCell>
        <mxCell id="WcZGTvVYMBLY6KfuqVCo-87" style="edgeStyle=orthogonalEdgeStyle;shape=connector;rounded=0;jumpStyle=arc;orthogonalLoop=1;jettySize=auto;html=1;entryX=0.75;entryY=1;entryDx=0;entryDy=0;strokeColor=default;align=center;verticalAlign=middle;fontFamily=Helvetica;fontSize=11;fontColor=default;labelBackgroundColor=default;endArrow=classic;" parent="1" source="WcZGTvVYMBLY6KfuqVCo-86" target="WcZGTvVYMBLY6KfuqVCo-82" edge="1">
          <mxGeometry relative="1" as="geometry">
            <Array as="points">
              <mxPoint x="1175" y="280" />
              <mxPoint x="1187" y="280" />
            </Array>
          </mxGeometry>
        </mxCell>
        <mxCell id="WcZGTvVYMBLY6KfuqVCo-86" value="X" style="text;html=1;align=center;verticalAlign=middle;resizable=0;points=[];autosize=1;strokeColor=none;fillColor=none;fontFamily=Helvetica;fontSize=11;fontColor=default;labelBackgroundColor=default;" parent="1" vertex="1">
          <mxGeometry x="1160" y="240" width="30" height="30" as="geometry" />
        </mxCell>
        <mxCell id="WcZGTvVYMBLY6KfuqVCo-89" style="edgeStyle=orthogonalEdgeStyle;shape=connector;rounded=0;jumpStyle=arc;orthogonalLoop=1;jettySize=auto;html=1;entryX=0;entryY=0.5;entryDx=0;entryDy=0;strokeColor=default;align=center;verticalAlign=middle;fontFamily=Helvetica;fontSize=11;fontColor=default;labelBackgroundColor=default;endArrow=classic;" parent="1" source="WcZGTvVYMBLY6KfuqVCo-88" target="WcZGTvVYMBLY6KfuqVCo-82" edge="1">
          <mxGeometry relative="1" as="geometry" />
        </mxCell>
        <mxCell id="WcZGTvVYMBLY6KfuqVCo-88" value="selA" style="text;html=1;align=center;verticalAlign=middle;resizable=0;points=[];autosize=1;strokeColor=none;fillColor=none;fontFamily=Helvetica;fontSize=11;fontColor=default;labelBackgroundColor=default;" parent="1" vertex="1">
          <mxGeometry x="1321" y="300" width="40" height="30" as="geometry" />
        </mxCell>
        <mxCell id="WcZGTvVYMBLY6KfuqVCo-91" style="edgeStyle=orthogonalEdgeStyle;shape=connector;rounded=0;jumpStyle=arc;orthogonalLoop=1;jettySize=auto;html=1;entryX=1;entryY=0.5;entryDx=0;entryDy=0;strokeColor=default;align=center;verticalAlign=middle;fontFamily=Helvetica;fontSize=11;fontColor=default;labelBackgroundColor=default;endArrow=classic;" parent="1" source="WcZGTvVYMBLY6KfuqVCo-90" target="WcZGTvVYMBLY6KfuqVCo-83" edge="1">
          <mxGeometry relative="1" as="geometry" />
        </mxCell>
        <mxCell id="WcZGTvVYMBLY6KfuqVCo-90" value="loadA" style="text;html=1;align=center;verticalAlign=middle;resizable=0;points=[];autosize=1;strokeColor=none;fillColor=none;fontFamily=Helvetica;fontSize=11;fontColor=default;labelBackgroundColor=default;" parent="1" vertex="1">
          <mxGeometry x="1321" y="360" width="50" height="30" as="geometry" />
        </mxCell>
        <mxCell id="WcZGTvVYMBLY6KfuqVCo-92" value="rsl" style="rounded=0;whiteSpace=wrap;html=1;fontFamily=Helvetica;fontSize=14;labelBackgroundColor=none;fillColor=#f5f5f5;strokeColor=#666666;fontStyle=0;fontColor=#333333;" parent="1" vertex="1">
          <mxGeometry x="1160" y="430" width="130" height="30" as="geometry" />
        </mxCell>
        <mxCell id="WcZGTvVYMBLY6KfuqVCo-93" value="=0" style="rounded=0;whiteSpace=wrap;html=1;fontFamily=Helvetica;fontSize=14;labelBackgroundColor=none;fillColor=#f5f5f5;strokeColor=#666666;fontStyle=0;fontColor=#333333;" parent="1" vertex="1">
          <mxGeometry x="1080" y="430" width="40" height="30" as="geometry" />
        </mxCell>
        <mxCell id="WcZGTvVYMBLY6KfuqVCo-101" style="edgeStyle=orthogonalEdgeStyle;shape=connector;rounded=0;jumpStyle=arc;orthogonalLoop=1;jettySize=auto;html=1;entryX=0.5;entryY=1;entryDx=0;entryDy=0;strokeColor=default;align=center;verticalAlign=middle;fontFamily=Helvetica;fontSize=11;fontColor=default;labelBackgroundColor=default;endArrow=none;startArrow=block;startFill=1;" parent="1" source="WcZGTvVYMBLY6KfuqVCo-98" target="WcZGTvVYMBLY6KfuqVCo-93" edge="1">
          <mxGeometry relative="1" as="geometry" />
        </mxCell>
        <mxCell id="WcZGTvVYMBLY6KfuqVCo-98" value="zA" style="text;html=1;align=center;verticalAlign=middle;resizable=0;points=[];autosize=1;strokeColor=none;fillColor=none;fontFamily=Helvetica;fontSize=11;fontColor=default;labelBackgroundColor=default;" parent="1" vertex="1">
          <mxGeometry x="1080" y="488" width="40" height="30" as="geometry" />
        </mxCell>
        <mxCell id="WcZGTvVYMBLY6KfuqVCo-102" style="edgeStyle=orthogonalEdgeStyle;shape=connector;rounded=0;jumpStyle=arc;orthogonalLoop=1;jettySize=auto;html=1;entryX=0.5;entryY=0;entryDx=0;entryDy=0;strokeColor=default;align=center;verticalAlign=middle;fontFamily=Helvetica;fontSize=11;fontColor=default;labelBackgroundColor=default;endArrow=classic;startArrow=dash;startFill=0;exitX=0.5;exitY=1;exitDx=0;exitDy=0;" parent="1" source="WcZGTvVYMBLY6KfuqVCo-83" target="WcZGTvVYMBLY6KfuqVCo-92" edge="1">
          <mxGeometry relative="1" as="geometry">
            <mxPoint x="1235" y="340" as="sourcePoint" />
            <mxPoint x="1235" y="370" as="targetPoint" />
          </mxGeometry>
        </mxCell>
        <mxCell id="WcZGTvVYMBLY6KfuqVCo-103" value="8" style="edgeLabel;html=1;align=center;verticalAlign=middle;resizable=0;points=[];fontFamily=Helvetica;fontSize=11;fontColor=default;labelBackgroundColor=default;" parent="WcZGTvVYMBLY6KfuqVCo-102" vertex="1" connectable="0">
          <mxGeometry x="-0.0894" y="-1" relative="1" as="geometry">
            <mxPoint x="6" as="offset" />
          </mxGeometry>
        </mxCell>
        <mxCell id="WcZGTvVYMBLY6KfuqVCo-104" style="edgeStyle=orthogonalEdgeStyle;shape=connector;rounded=0;jumpStyle=arc;orthogonalLoop=1;jettySize=auto;html=1;entryX=0.5;entryY=0;entryDx=0;entryDy=0;strokeColor=default;align=center;verticalAlign=middle;fontFamily=Helvetica;fontSize=11;fontColor=default;labelBackgroundColor=default;endArrow=classic;startArrow=dash;startFill=0;exitX=0.5;exitY=1;exitDx=0;exitDy=0;" parent="1" source="WcZGTvVYMBLY6KfuqVCo-83" target="WcZGTvVYMBLY6KfuqVCo-93" edge="1">
          <mxGeometry relative="1" as="geometry">
            <mxPoint x="1220" y="410" as="sourcePoint" />
            <mxPoint x="1245" y="380" as="targetPoint" />
          </mxGeometry>
        </mxCell>
        <mxCell id="WcZGTvVYMBLY6KfuqVCo-106" value="LSB_A" style="text;html=1;align=center;verticalAlign=middle;resizable=0;points=[];autosize=1;strokeColor=none;fillColor=none;fontFamily=Helvetica;fontSize=11;fontColor=default;labelBackgroundColor=default;" parent="1" vertex="1">
          <mxGeometry x="1311" y="400" width="60" height="30" as="geometry" />
        </mxCell>
        <mxCell id="WcZGTvVYMBLY6KfuqVCo-107" style="edgeStyle=orthogonalEdgeStyle;shape=connector;rounded=0;jumpStyle=arc;orthogonalLoop=1;jettySize=auto;html=1;entryX=0;entryY=0.658;entryDx=0;entryDy=0;entryPerimeter=0;strokeColor=default;align=center;verticalAlign=middle;fontFamily=Helvetica;fontSize=11;fontColor=default;labelBackgroundColor=default;endArrow=classic;exitX=0.5;exitY=1;exitDx=0;exitDy=0;" parent="1" source="WcZGTvVYMBLY6KfuqVCo-83" target="WcZGTvVYMBLY6KfuqVCo-106" edge="1">
          <mxGeometry relative="1" as="geometry">
            <Array as="points">
              <mxPoint x="1225" y="400" />
              <mxPoint x="1270" y="400" />
              <mxPoint x="1270" y="420" />
            </Array>
          </mxGeometry>
        </mxCell>
        <mxCell id="WcZGTvVYMBLY6KfuqVCo-108" style="edgeStyle=orthogonalEdgeStyle;shape=connector;rounded=0;jumpStyle=arc;orthogonalLoop=1;jettySize=auto;html=1;entryX=0.25;entryY=1;entryDx=0;entryDy=0;strokeColor=default;align=center;verticalAlign=middle;fontFamily=Helvetica;fontSize=11;fontColor=default;labelBackgroundColor=default;endArrow=classic;startArrow=dash;startFill=0;exitX=0.5;exitY=1;exitDx=0;exitDy=0;" parent="1" source="WcZGTvVYMBLY6KfuqVCo-92" target="WcZGTvVYMBLY6KfuqVCo-82" edge="1">
          <mxGeometry relative="1" as="geometry">
            <mxPoint x="1255" y="360" as="sourcePoint" />
            <mxPoint x="1255" y="390" as="targetPoint" />
            <Array as="points">
              <mxPoint x="1225" y="480" />
              <mxPoint x="1380" y="480" />
              <mxPoint x="1380" y="280" />
              <mxPoint x="1263" y="280" />
            </Array>
          </mxGeometry>
        </mxCell>
        <mxCell id="WcZGTvVYMBLY6KfuqVCo-109" value="8" style="edgeLabel;html=1;align=center;verticalAlign=middle;resizable=0;points=[];fontFamily=Helvetica;fontSize=11;fontColor=default;labelBackgroundColor=default;" parent="WcZGTvVYMBLY6KfuqVCo-108" vertex="1" connectable="0">
          <mxGeometry x="-0.0894" y="-1" relative="1" as="geometry">
            <mxPoint x="-171" y="48" as="offset" />
          </mxGeometry>
        </mxCell>
        <mxCell id="WcZGTvVYMBLY6KfuqVCo-110" style="edgeStyle=orthogonalEdgeStyle;shape=connector;rounded=0;jumpStyle=arc;orthogonalLoop=1;jettySize=auto;html=1;entryX=0.5;entryY=0;entryDx=0;entryDy=0;strokeColor=default;align=center;verticalAlign=middle;fontFamily=Helvetica;fontSize=11;fontColor=default;labelBackgroundColor=default;endArrow=classic;startArrow=dash;startFill=0;" parent="1" source="WcZGTvVYMBLY6KfuqVCo-112" target="WcZGTvVYMBLY6KfuqVCo-113" edge="1">
          <mxGeometry relative="1" as="geometry" />
        </mxCell>
        <mxCell id="WcZGTvVYMBLY6KfuqVCo-111" value="8" style="edgeLabel;html=1;align=center;verticalAlign=middle;resizable=0;points=[];fontFamily=Helvetica;fontSize=11;fontColor=default;labelBackgroundColor=default;" parent="WcZGTvVYMBLY6KfuqVCo-110" vertex="1" connectable="0">
          <mxGeometry x="-0.0894" y="-1" relative="1" as="geometry">
            <mxPoint x="6" as="offset" />
          </mxGeometry>
        </mxCell>
        <mxCell id="WcZGTvVYMBLY6KfuqVCo-112" value="" style="shape=trapezoid;perimeter=trapezoidPerimeter;whiteSpace=wrap;html=1;fixedSize=1;fontFamily=Helvetica;fontSize=11;fontColor=default;labelBackgroundColor=default;rotation=-180;size=30;" parent="1" vertex="1">
          <mxGeometry x="1130" y="656" width="205" height="30" as="geometry" />
        </mxCell>
        <mxCell id="WcZGTvVYMBLY6KfuqVCo-113" value="ONES" style="rounded=0;whiteSpace=wrap;html=1;fontFamily=Helvetica;fontSize=14;labelBackgroundColor=none;fillColor=#ffe6cc;strokeColor=#d79b00;fontStyle=1" parent="1" vertex="1">
          <mxGeometry x="1155" y="716" width="130" height="30" as="geometry" />
        </mxCell>
        <mxCell id="WcZGTvVYMBLY6KfuqVCo-114" style="edgeStyle=orthogonalEdgeStyle;shape=connector;rounded=0;jumpStyle=arc;orthogonalLoop=1;jettySize=auto;html=1;entryX=0.75;entryY=1;entryDx=0;entryDy=0;strokeColor=default;align=center;verticalAlign=middle;fontFamily=Helvetica;fontSize=11;fontColor=default;labelBackgroundColor=default;endArrow=classic;" parent="1" source="WcZGTvVYMBLY6KfuqVCo-115" target="WcZGTvVYMBLY6KfuqVCo-112" edge="1">
          <mxGeometry relative="1" as="geometry">
            <Array as="points">
              <mxPoint x="1170" y="636" />
              <mxPoint x="1182" y="636" />
            </Array>
          </mxGeometry>
        </mxCell>
        <mxCell id="WcZGTvVYMBLY6KfuqVCo-115" value="0" style="text;html=1;align=center;verticalAlign=middle;resizable=0;points=[];autosize=1;strokeColor=none;fillColor=none;fontFamily=Helvetica;fontSize=11;fontColor=default;labelBackgroundColor=default;" parent="1" vertex="1">
          <mxGeometry x="1155" y="596" width="30" height="30" as="geometry" />
        </mxCell>
        <mxCell id="WcZGTvVYMBLY6KfuqVCo-116" style="edgeStyle=orthogonalEdgeStyle;shape=connector;rounded=0;jumpStyle=arc;orthogonalLoop=1;jettySize=auto;html=1;entryX=0;entryY=0.5;entryDx=0;entryDy=0;strokeColor=default;align=center;verticalAlign=middle;fontFamily=Helvetica;fontSize=11;fontColor=default;labelBackgroundColor=default;endArrow=classic;" parent="1" source="WcZGTvVYMBLY6KfuqVCo-117" target="WcZGTvVYMBLY6KfuqVCo-112" edge="1">
          <mxGeometry relative="1" as="geometry" />
        </mxCell>
        <mxCell id="WcZGTvVYMBLY6KfuqVCo-117" value="selONES" style="text;html=1;align=center;verticalAlign=middle;resizable=0;points=[];autosize=1;strokeColor=none;fillColor=none;fontFamily=Helvetica;fontSize=11;fontColor=default;labelBackgroundColor=default;" parent="1" vertex="1">
          <mxGeometry x="1381" y="656" width="70" height="30" as="geometry" />
        </mxCell>
        <mxCell id="WcZGTvVYMBLY6KfuqVCo-118" style="edgeStyle=orthogonalEdgeStyle;shape=connector;rounded=0;jumpStyle=arc;orthogonalLoop=1;jettySize=auto;html=1;entryX=1;entryY=0.5;entryDx=0;entryDy=0;strokeColor=default;align=center;verticalAlign=middle;fontFamily=Helvetica;fontSize=11;fontColor=default;labelBackgroundColor=default;endArrow=classic;" parent="1" source="WcZGTvVYMBLY6KfuqVCo-119" target="WcZGTvVYMBLY6KfuqVCo-113" edge="1">
          <mxGeometry relative="1" as="geometry" />
        </mxCell>
        <mxCell id="WcZGTvVYMBLY6KfuqVCo-119" value="loadONES" style="text;html=1;align=center;verticalAlign=middle;resizable=0;points=[];autosize=1;strokeColor=none;fillColor=none;fontFamily=Helvetica;fontSize=11;fontColor=default;labelBackgroundColor=default;" parent="1" vertex="1">
          <mxGeometry x="1301" y="716" width="80" height="30" as="geometry" />
        </mxCell>
        <mxCell id="WcZGTvVYMBLY6KfuqVCo-120" value="+" style="rounded=0;whiteSpace=wrap;html=1;fontFamily=Helvetica;fontSize=14;labelBackgroundColor=none;fillColor=#f5f5f5;strokeColor=#666666;fontStyle=0;fontColor=#333333;" parent="1" vertex="1">
          <mxGeometry x="1100" y="786" width="130" height="30" as="geometry" />
        </mxCell>
        <mxCell id="WcZGTvVYMBLY6KfuqVCo-124" style="edgeStyle=orthogonalEdgeStyle;shape=connector;rounded=0;jumpStyle=arc;orthogonalLoop=1;jettySize=auto;html=1;entryX=0.75;entryY=0;entryDx=0;entryDy=0;strokeColor=default;align=center;verticalAlign=middle;fontFamily=Helvetica;fontSize=11;fontColor=default;labelBackgroundColor=default;endArrow=classic;startArrow=dash;startFill=0;exitX=0.5;exitY=1;exitDx=0;exitDy=0;" parent="1" source="WcZGTvVYMBLY6KfuqVCo-113" target="WcZGTvVYMBLY6KfuqVCo-120" edge="1">
          <mxGeometry relative="1" as="geometry">
            <mxPoint x="1230" y="696" as="sourcePoint" />
            <mxPoint x="1230" y="726" as="targetPoint" />
          </mxGeometry>
        </mxCell>
        <mxCell id="WcZGTvVYMBLY6KfuqVCo-125" value="8" style="edgeLabel;html=1;align=center;verticalAlign=middle;resizable=0;points=[];fontFamily=Helvetica;fontSize=11;fontColor=default;labelBackgroundColor=default;" parent="WcZGTvVYMBLY6KfuqVCo-124" vertex="1" connectable="0">
          <mxGeometry x="-0.0894" y="-1" relative="1" as="geometry">
            <mxPoint x="6" as="offset" />
          </mxGeometry>
        </mxCell>
        <mxCell id="WcZGTvVYMBLY6KfuqVCo-127" value="OUTP" style="text;html=1;align=center;verticalAlign=middle;resizable=0;points=[];autosize=1;strokeColor=none;fillColor=none;fontFamily=Helvetica;fontSize=11;fontColor=default;labelBackgroundColor=default;" parent="1" vertex="1">
          <mxGeometry x="1311" y="756" width="50" height="30" as="geometry" />
        </mxCell>
        <mxCell id="WcZGTvVYMBLY6KfuqVCo-128" style="edgeStyle=orthogonalEdgeStyle;shape=connector;rounded=0;jumpStyle=arc;orthogonalLoop=1;jettySize=auto;html=1;entryX=0;entryY=0.658;entryDx=0;entryDy=0;entryPerimeter=0;strokeColor=default;align=center;verticalAlign=middle;fontFamily=Helvetica;fontSize=11;fontColor=default;labelBackgroundColor=default;endArrow=classic;exitX=0.5;exitY=1;exitDx=0;exitDy=0;" parent="1" source="WcZGTvVYMBLY6KfuqVCo-113" target="WcZGTvVYMBLY6KfuqVCo-127" edge="1">
          <mxGeometry relative="1" as="geometry">
            <Array as="points">
              <mxPoint x="1220" y="756" />
              <mxPoint x="1265" y="756" />
              <mxPoint x="1265" y="776" />
            </Array>
          </mxGeometry>
        </mxCell>
        <mxCell id="WcZGTvVYMBLY6KfuqVCo-129" style="edgeStyle=orthogonalEdgeStyle;shape=connector;rounded=0;jumpStyle=arc;orthogonalLoop=1;jettySize=auto;html=1;entryX=0.609;entryY=0.946;entryDx=0;entryDy=0;strokeColor=default;align=center;verticalAlign=middle;fontFamily=Helvetica;fontSize=11;fontColor=default;labelBackgroundColor=default;endArrow=classic;startArrow=dash;startFill=0;exitX=0.5;exitY=1;exitDx=0;exitDy=0;entryPerimeter=0;" parent="1" source="WcZGTvVYMBLY6KfuqVCo-120" target="WcZGTvVYMBLY6KfuqVCo-112" edge="1">
          <mxGeometry relative="1" as="geometry">
            <mxPoint x="1250" y="716" as="sourcePoint" />
            <mxPoint x="1250" y="746" as="targetPoint" />
            <Array as="points">
              <mxPoint x="1165" y="836" />
              <mxPoint x="1370" y="836" />
              <mxPoint x="1370" y="636" />
              <mxPoint x="1210" y="636" />
            </Array>
          </mxGeometry>
        </mxCell>
        <mxCell id="WcZGTvVYMBLY6KfuqVCo-130" value="8" style="edgeLabel;html=1;align=center;verticalAlign=middle;resizable=0;points=[];fontFamily=Helvetica;fontSize=11;fontColor=default;labelBackgroundColor=default;" parent="WcZGTvVYMBLY6KfuqVCo-129" vertex="1" connectable="0">
          <mxGeometry x="-0.0894" y="-1" relative="1" as="geometry">
            <mxPoint x="-221" y="27" as="offset" />
          </mxGeometry>
        </mxCell>
        <mxCell id="WcZGTvVYMBLY6KfuqVCo-132" style="edgeStyle=orthogonalEdgeStyle;shape=connector;rounded=0;jumpStyle=arc;orthogonalLoop=1;jettySize=auto;html=1;entryX=0.25;entryY=0;entryDx=0;entryDy=0;strokeColor=default;align=center;verticalAlign=middle;fontFamily=Helvetica;fontSize=11;fontColor=default;labelBackgroundColor=default;endArrow=classic;" parent="1" source="WcZGTvVYMBLY6KfuqVCo-131" target="WcZGTvVYMBLY6KfuqVCo-120" edge="1">
          <mxGeometry relative="1" as="geometry">
            <Array as="points">
              <mxPoint x="1115" y="770" />
              <mxPoint x="1133" y="770" />
            </Array>
          </mxGeometry>
        </mxCell>
        <mxCell id="WcZGTvVYMBLY6KfuqVCo-131" value="1" style="text;html=1;align=center;verticalAlign=middle;resizable=0;points=[];autosize=1;strokeColor=none;fillColor=none;fontFamily=Helvetica;fontSize=11;fontColor=default;labelBackgroundColor=default;" parent="1" vertex="1">
          <mxGeometry x="1100" y="730" width="30" height="30" as="geometry" />
        </mxCell>
        <mxCell id="WcZGTvVYMBLY6KfuqVCo-134" value="" style="edgeStyle=orthogonalEdgeStyle;rounded=0;orthogonalLoop=1;jettySize=auto;html=1;entryX=0.5;entryY=0;entryDx=0;entryDy=0;strokeColor=default;align=center;verticalAlign=middle;fontFamily=Helvetica;fontSize=11;fontColor=default;labelBackgroundColor=default;jumpStyle=arc;endArrow=classic;" parent="1" source="WcZGTvVYMBLY6KfuqVCo-1" target="WcZGTvVYMBLY6KfuqVCo-133" edge="1">
          <mxGeometry relative="1" as="geometry">
            <mxPoint x="290" y="220" as="sourcePoint" />
            <mxPoint x="290" y="330" as="targetPoint" />
          </mxGeometry>
        </mxCell>
        <mxCell id="WcZGTvVYMBLY6KfuqVCo-137" style="edgeStyle=orthogonalEdgeStyle;shape=connector;rounded=0;jumpStyle=arc;orthogonalLoop=1;jettySize=auto;html=1;entryX=1;entryY=0.5;entryDx=0;entryDy=0;strokeColor=default;align=center;verticalAlign=middle;fontFamily=Helvetica;fontSize=11;fontColor=default;labelBackgroundColor=default;endArrow=classic;" parent="1" source="WcZGTvVYMBLY6KfuqVCo-133" target="WcZGTvVYMBLY6KfuqVCo-136" edge="1">
          <mxGeometry relative="1" as="geometry" />
        </mxCell>
        <mxCell id="WcZGTvVYMBLY6KfuqVCo-139" value="1" style="edgeLabel;html=1;align=center;verticalAlign=middle;resizable=0;points=[];fontFamily=Helvetica;fontSize=11;fontColor=default;labelBackgroundColor=default;" parent="WcZGTvVYMBLY6KfuqVCo-137" vertex="1" connectable="0">
          <mxGeometry x="0.0357" y="-1" relative="1" as="geometry">
            <mxPoint x="8" y="1" as="offset" />
          </mxGeometry>
        </mxCell>
        <mxCell id="WcZGTvVYMBLY6KfuqVCo-133" value="DEBUG" style="rhombus;whiteSpace=wrap;html=1;" parent="1" vertex="1">
          <mxGeometry x="265" y="250" width="50" height="50" as="geometry" />
        </mxCell>
        <mxCell id="WcZGTvVYMBLY6KfuqVCo-138" style="edgeStyle=orthogonalEdgeStyle;shape=connector;rounded=0;jumpStyle=arc;orthogonalLoop=1;jettySize=auto;html=1;entryX=0.5;entryY=0;entryDx=0;entryDy=0;strokeColor=default;align=center;verticalAlign=middle;fontFamily=Helvetica;fontSize=11;fontColor=default;labelBackgroundColor=default;endArrow=classic;" parent="1" source="WcZGTvVYMBLY6KfuqVCo-136" target="WcZGTvVYMBLY6KfuqVCo-5" edge="1">
          <mxGeometry relative="1" as="geometry">
            <Array as="points">
              <mxPoint x="170" y="320" />
              <mxPoint x="290" y="320" />
            </Array>
          </mxGeometry>
        </mxCell>
        <mxCell id="WcZGTvVYMBLY6KfuqVCo-136" value="ONES &amp;lt;= X" style="rounded=1;whiteSpace=wrap;html=1;fontFamily=Helvetica;fontSize=11;labelBackgroundColor=none;fillColor=#fff2cc;strokeColor=#d6b656;arcSize=50;" parent="1" vertex="1">
          <mxGeometry x="120" y="255" width="100" height="40" as="geometry" />
        </mxCell>
        <mxCell id="WcZGTvVYMBLY6KfuqVCo-144" value="" style="edgeStyle=orthogonalEdgeStyle;shape=connector;rounded=0;jumpStyle=arc;orthogonalLoop=1;jettySize=auto;html=1;entryX=0.5;entryY=0;entryDx=0;entryDy=0;strokeColor=default;align=center;verticalAlign=middle;fontFamily=Helvetica;fontSize=11;fontColor=default;labelBackgroundColor=default;endArrow=classic;" parent="1" source="WcZGTvVYMBLY6KfuqVCo-47" target="WcZGTvVYMBLY6KfuqVCo-141" edge="1">
          <mxGeometry relative="1" as="geometry">
            <mxPoint x="690" y="590" as="sourcePoint" />
            <mxPoint x="690" y="710" as="targetPoint" />
          </mxGeometry>
        </mxCell>
        <mxCell id="WcZGTvVYMBLY6KfuqVCo-147" style="edgeStyle=orthogonalEdgeStyle;shape=connector;rounded=0;jumpStyle=arc;orthogonalLoop=1;jettySize=auto;html=1;entryX=0;entryY=0.5;entryDx=0;entryDy=0;strokeColor=default;align=center;verticalAlign=middle;fontFamily=Helvetica;fontSize=11;fontColor=default;labelBackgroundColor=default;endArrow=classic;" parent="1" source="WcZGTvVYMBLY6KfuqVCo-141" target="WcZGTvVYMBLY6KfuqVCo-146" edge="1">
          <mxGeometry relative="1" as="geometry" />
        </mxCell>
        <mxCell id="WcZGTvVYMBLY6KfuqVCo-148" value="1" style="edgeLabel;html=1;align=center;verticalAlign=middle;resizable=0;points=[];fontFamily=Helvetica;fontSize=11;fontColor=default;labelBackgroundColor=default;" parent="WcZGTvVYMBLY6KfuqVCo-147" vertex="1" connectable="0">
          <mxGeometry x="0.4309" y="-4" relative="1" as="geometry">
            <mxPoint as="offset" />
          </mxGeometry>
        </mxCell>
        <mxCell id="WcZGTvVYMBLY6KfuqVCo-141" value="DEBUG" style="rhombus;whiteSpace=wrap;html=1;" parent="1" vertex="1">
          <mxGeometry x="665" y="626" width="50" height="50" as="geometry" />
        </mxCell>
        <mxCell id="WcZGTvVYMBLY6KfuqVCo-149" style="edgeStyle=orthogonalEdgeStyle;shape=connector;rounded=0;jumpStyle=arc;orthogonalLoop=1;jettySize=auto;html=1;entryX=0.5;entryY=0;entryDx=0;entryDy=0;strokeColor=default;align=center;verticalAlign=middle;fontFamily=Helvetica;fontSize=11;fontColor=default;labelBackgroundColor=default;endArrow=classic;" parent="1" source="WcZGTvVYMBLY6KfuqVCo-146" target="WcZGTvVYMBLY6KfuqVCo-56" edge="1">
          <mxGeometry relative="1" as="geometry">
            <Array as="points">
              <mxPoint x="790" y="700" />
              <mxPoint x="690" y="700" />
            </Array>
          </mxGeometry>
        </mxCell>
        <mxCell id="WcZGTvVYMBLY6KfuqVCo-146" value="ONES &amp;lt;= X" style="rounded=1;whiteSpace=wrap;html=1;fontFamily=Helvetica;fontSize=11;labelBackgroundColor=none;fillColor=#fff2cc;strokeColor=#d6b656;arcSize=50;" parent="1" vertex="1">
          <mxGeometry x="740" y="631" width="100" height="40" as="geometry" />
        </mxCell>
        <mxCell id="WcZGTvVYMBLY6KfuqVCo-151" style="edgeStyle=orthogonalEdgeStyle;shape=connector;rounded=0;jumpStyle=arc;orthogonalLoop=1;jettySize=auto;html=1;entryX=0.321;entryY=1.01;entryDx=0;entryDy=0;strokeColor=default;align=center;verticalAlign=middle;fontFamily=Helvetica;fontSize=11;fontColor=default;labelBackgroundColor=default;endArrow=classic;startArrow=dash;startFill=0;entryPerimeter=0;" parent="1" source="WcZGTvVYMBLY6KfuqVCo-150" target="WcZGTvVYMBLY6KfuqVCo-112" edge="1">
          <mxGeometry relative="1" as="geometry" />
        </mxCell>
        <mxCell id="WcZGTvVYMBLY6KfuqVCo-152" value="8" style="edgeLabel;html=1;align=center;verticalAlign=middle;resizable=0;points=[];fontFamily=Helvetica;fontSize=11;fontColor=default;labelBackgroundColor=default;" parent="WcZGTvVYMBLY6KfuqVCo-151" vertex="1" connectable="0">
          <mxGeometry x="-0.5566" relative="1" as="geometry">
            <mxPoint x="-15" y="-2" as="offset" />
          </mxGeometry>
        </mxCell>
        <mxCell id="WcZGTvVYMBLY6KfuqVCo-150" value="X" style="text;html=1;align=center;verticalAlign=middle;resizable=0;points=[];autosize=1;strokeColor=none;fillColor=none;fontFamily=Helvetica;fontSize=11;fontColor=default;labelBackgroundColor=default;" parent="1" vertex="1">
          <mxGeometry x="1255" y="570" width="30" height="30" as="geometry" />
        </mxCell>
        <mxCell id="6E4OlBu11XqfLZtOm1A3-1" value="1" style="text;html=1;align=center;verticalAlign=middle;resizable=0;points=[];autosize=1;strokeColor=none;fillColor=none;fontFamily=Helvetica;fontSize=11;fontColor=default;labelBackgroundColor=default;" parent="1" vertex="1">
          <mxGeometry x="1300" y="596" width="30" height="30" as="geometry" />
        </mxCell>
        <mxCell id="6E4OlBu11XqfLZtOm1A3-2" style="edgeStyle=orthogonalEdgeStyle;rounded=0;orthogonalLoop=1;jettySize=auto;html=1;entryX=0.11;entryY=0.994;entryDx=0;entryDy=0;entryPerimeter=0;curved=0;strokeColor=default;align=center;verticalAlign=middle;fontFamily=Helvetica;fontSize=11;fontColor=default;labelBackgroundColor=default;jumpStyle=arc;startArrow=none;startFill=0;endArrow=classic;" parent="1" source="6E4OlBu11XqfLZtOm1A3-1" target="WcZGTvVYMBLY6KfuqVCo-112" edge="1">
          <mxGeometry relative="1" as="geometry">
            <Array as="points">
              <mxPoint x="1313" y="620" />
            </Array>
          </mxGeometry>
        </mxCell>
        <mxCell id="YprM5JZsT4dTWxl4syql-2" value="&lt;div&gt;&lt;font face=&quot;Courier New&quot; style=&quot;font-size: 20px;&quot;&gt;&lt;b&gt;MOORE&lt;/b&gt;&lt;/font&gt;&lt;/div&gt;" style="text;html=1;align=center;verticalAlign=middle;resizable=0;points=[];autosize=1;strokeColor=none;fillColor=none;" vertex="1" parent="1">
          <mxGeometry x="100" y="160" width="80" height="40" as="geometry" />
        </mxCell>
      </root>
    </mxGraphModel>
  </diagram>
  <diagram name="onescounter_mealy" id="4iYKKnhgSuiW2QCUKeGu">
    <mxGraphModel dx="3565" dy="780" grid="1" gridSize="10" guides="1" tooltips="1" connect="1" arrows="1" fold="1" page="1" pageScale="1" pageWidth="850" pageHeight="1100" math="0" shadow="0">
      <root>
        <mxCell id="2JwVCkcr6Hv9kkTB1BBg-0" />
        <mxCell id="2JwVCkcr6Hv9kkTB1BBg-1" parent="2JwVCkcr6Hv9kkTB1BBg-0" />
        <mxCell id="2JwVCkcr6Hv9kkTB1BBg-3" value="" style="rounded=1;whiteSpace=wrap;html=1;fontFamily=Helvetica;fontSize=11;fontColor=default;labelBackgroundColor=default;fillColor=none;dashed=1;dashPattern=1 4;movable=0;resizable=0;rotatable=0;deletable=0;editable=0;locked=1;connectable=0;" vertex="1" parent="2JwVCkcr6Hv9kkTB1BBg-1">
          <mxGeometry x="40" y="1210" width="1440" height="1020" as="geometry" />
        </mxCell>
        <mxCell id="2JwVCkcr6Hv9kkTB1BBg-130" style="edgeStyle=orthogonalEdgeStyle;rounded=0;orthogonalLoop=1;jettySize=auto;html=1;entryX=0.5;entryY=0;entryDx=0;entryDy=0;strokeColor=default;align=center;verticalAlign=middle;fontFamily=Helvetica;fontSize=11;fontColor=default;labelBackgroundColor=default;jumpStyle=arc;endArrow=classic;exitX=1;exitY=0.5;exitDx=0;exitDy=0;" edge="1" parent="2JwVCkcr6Hv9kkTB1BBg-1" source="2JwVCkcr6Hv9kkTB1BBg-211" target="2JwVCkcr6Hv9kkTB1BBg-139">
          <mxGeometry relative="1" as="geometry" />
        </mxCell>
        <mxCell id="2JwVCkcr6Hv9kkTB1BBg-131" value="0" style="edgeLabel;html=1;align=center;verticalAlign=middle;resizable=0;points=[];fontFamily=Helvetica;fontSize=11;fontColor=default;labelBackgroundColor=default;" vertex="1" connectable="0" parent="2JwVCkcr6Hv9kkTB1BBg-130">
          <mxGeometry x="-0.4681" y="1" relative="1" as="geometry">
            <mxPoint as="offset" />
          </mxGeometry>
        </mxCell>
        <mxCell id="2JwVCkcr6Hv9kkTB1BBg-132" value="INIT" style="rounded=0;whiteSpace=wrap;html=1;verticalAlign=bottom;labelPosition=center;verticalLabelPosition=top;align=left;fillColor=#fff2cc;strokeColor=#d6b656;" vertex="1" parent="2JwVCkcr6Hv9kkTB1BBg-1">
          <mxGeometry x="230" y="1260" width="120" height="60" as="geometry" />
        </mxCell>
        <mxCell id="2JwVCkcr6Hv9kkTB1BBg-133" value="READY&amp;nbsp; OK&lt;br&gt;A &amp;lt;= X" style="text;html=1;align=center;verticalAlign=middle;resizable=0;points=[];autosize=1;strokeColor=none;fillColor=none;" vertex="1" parent="2JwVCkcr6Hv9kkTB1BBg-1">
          <mxGeometry x="245" y="1270" width="90" height="40" as="geometry" />
        </mxCell>
        <mxCell id="2JwVCkcr6Hv9kkTB1BBg-134" value="START" style="rounded=0;whiteSpace=wrap;html=1;verticalAlign=bottom;labelPosition=center;verticalLabelPosition=top;align=left;fillColor=#fff2cc;strokeColor=#d6b656;" vertex="1" parent="2JwVCkcr6Hv9kkTB1BBg-1">
          <mxGeometry x="230" y="1620" width="120" height="60" as="geometry" />
        </mxCell>
        <mxCell id="2JwVCkcr6Hv9kkTB1BBg-135" style="edgeStyle=orthogonalEdgeStyle;rounded=0;orthogonalLoop=1;jettySize=auto;html=1;entryX=0.5;entryY=0;entryDx=0;entryDy=0;strokeColor=default;align=center;verticalAlign=middle;fontFamily=Helvetica;fontSize=11;fontColor=default;labelBackgroundColor=default;jumpStyle=arc;endArrow=classic;" edge="1" parent="2JwVCkcr6Hv9kkTB1BBg-1" target="2JwVCkcr6Hv9kkTB1BBg-151">
          <mxGeometry relative="1" as="geometry">
            <mxPoint x="290" y="1680" as="sourcePoint" />
          </mxGeometry>
        </mxCell>
        <mxCell id="2JwVCkcr6Hv9kkTB1BBg-136" value="ONES &amp;lt;= 0&lt;br&gt;A &amp;lt;= A&amp;gt;&amp;gt;1" style="text;html=1;align=center;verticalAlign=middle;resizable=0;points=[];autosize=1;strokeColor=none;fillColor=none;" vertex="1" parent="2JwVCkcr6Hv9kkTB1BBg-1">
          <mxGeometry x="250" y="1630" width="80" height="40" as="geometry" />
        </mxCell>
        <mxCell id="2JwVCkcr6Hv9kkTB1BBg-137" style="edgeStyle=orthogonalEdgeStyle;rounded=0;orthogonalLoop=1;jettySize=auto;html=1;entryX=0.5;entryY=0;entryDx=0;entryDy=0;exitX=0;exitY=0.5;exitDx=0;exitDy=0;strokeColor=default;align=center;verticalAlign=middle;fontFamily=Helvetica;fontSize=11;fontColor=default;labelBackgroundColor=default;jumpStyle=arc;endArrow=classic;" edge="1" parent="2JwVCkcr6Hv9kkTB1BBg-1" source="2JwVCkcr6Hv9kkTB1BBg-139" target="2JwVCkcr6Hv9kkTB1BBg-144">
          <mxGeometry relative="1" as="geometry" />
        </mxCell>
        <mxCell id="2JwVCkcr6Hv9kkTB1BBg-138" value="0" style="edgeLabel;html=1;align=center;verticalAlign=middle;resizable=0;points=[];rounded=0;strokeColor=default;fontFamily=Helvetica;fontSize=11;fontColor=default;labelBackgroundColor=default;" vertex="1" connectable="0" parent="2JwVCkcr6Hv9kkTB1BBg-137">
          <mxGeometry x="-0.3587" y="-1" relative="1" as="geometry">
            <mxPoint as="offset" />
          </mxGeometry>
        </mxCell>
        <mxCell id="2JwVCkcr6Hv9kkTB1BBg-139" value="CALC" style="rhombus;whiteSpace=wrap;html=1;" vertex="1" parent="2JwVCkcr6Hv9kkTB1BBg-1">
          <mxGeometry x="265" y="1430" width="50" height="50" as="geometry" />
        </mxCell>
        <mxCell id="2JwVCkcr6Hv9kkTB1BBg-140" style="edgeStyle=orthogonalEdgeStyle;rounded=0;orthogonalLoop=1;jettySize=auto;html=1;entryX=1;entryY=0.5;entryDx=0;entryDy=0;strokeColor=default;align=center;verticalAlign=middle;fontFamily=Helvetica;fontSize=11;fontColor=default;labelBackgroundColor=default;jumpStyle=arc;endArrow=classic;" edge="1" parent="2JwVCkcr6Hv9kkTB1BBg-1" source="2JwVCkcr6Hv9kkTB1BBg-144" target="2JwVCkcr6Hv9kkTB1BBg-132">
          <mxGeometry relative="1" as="geometry">
            <Array as="points">
              <mxPoint x="390" y="1545" />
              <mxPoint x="390" y="1290" />
            </Array>
          </mxGeometry>
        </mxCell>
        <mxCell id="2JwVCkcr6Hv9kkTB1BBg-141" value="0" style="edgeLabel;html=1;align=center;verticalAlign=middle;resizable=0;points=[];rounded=0;strokeColor=default;fontFamily=Helvetica;fontSize=11;fontColor=default;labelBackgroundColor=default;" vertex="1" connectable="0" parent="2JwVCkcr6Hv9kkTB1BBg-140">
          <mxGeometry x="-0.7681" relative="1" as="geometry">
            <mxPoint as="offset" />
          </mxGeometry>
        </mxCell>
        <mxCell id="2JwVCkcr6Hv9kkTB1BBg-142" style="edgeStyle=orthogonalEdgeStyle;rounded=0;orthogonalLoop=1;jettySize=auto;html=1;entryX=0.5;entryY=0;entryDx=0;entryDy=0;exitX=0;exitY=0.5;exitDx=0;exitDy=0;strokeColor=default;align=center;verticalAlign=middle;fontFamily=Helvetica;fontSize=11;fontColor=default;labelBackgroundColor=default;jumpStyle=arc;endArrow=classic;" edge="1" parent="2JwVCkcr6Hv9kkTB1BBg-1" source="2JwVCkcr6Hv9kkTB1BBg-144" target="2JwVCkcr6Hv9kkTB1BBg-134">
          <mxGeometry relative="1" as="geometry" />
        </mxCell>
        <mxCell id="2JwVCkcr6Hv9kkTB1BBg-143" value="1" style="edgeLabel;html=1;align=center;verticalAlign=middle;resizable=0;points=[];rounded=0;strokeColor=default;fontFamily=Helvetica;fontSize=11;fontColor=default;labelBackgroundColor=default;" vertex="1" connectable="0" parent="2JwVCkcr6Hv9kkTB1BBg-142">
          <mxGeometry x="-0.1924" y="2" relative="1" as="geometry">
            <mxPoint x="-2" y="-11" as="offset" />
          </mxGeometry>
        </mxCell>
        <mxCell id="2JwVCkcr6Hv9kkTB1BBg-144" value="DATAIN" style="rhombus;whiteSpace=wrap;html=1;" vertex="1" parent="2JwVCkcr6Hv9kkTB1BBg-1">
          <mxGeometry x="265" y="1520" width="50" height="50" as="geometry" />
        </mxCell>
        <mxCell id="2JwVCkcr6Hv9kkTB1BBg-145" style="edgeStyle=orthogonalEdgeStyle;rounded=0;orthogonalLoop=1;jettySize=auto;html=1;entryX=0.993;entryY=0.647;entryDx=0;entryDy=0;entryPerimeter=0;strokeColor=default;align=center;verticalAlign=middle;fontFamily=Helvetica;fontSize=11;fontColor=default;labelBackgroundColor=default;jumpStyle=arc;endArrow=classic;" edge="1" parent="2JwVCkcr6Hv9kkTB1BBg-1" source="2JwVCkcr6Hv9kkTB1BBg-139" target="2JwVCkcr6Hv9kkTB1BBg-132">
          <mxGeometry relative="1" as="geometry">
            <Array as="points">
              <mxPoint x="370" y="1455" />
              <mxPoint x="370" y="1299" />
            </Array>
          </mxGeometry>
        </mxCell>
        <mxCell id="2JwVCkcr6Hv9kkTB1BBg-146" value="1" style="edgeLabel;html=1;align=center;verticalAlign=middle;resizable=0;points=[];rounded=0;strokeColor=default;fontFamily=Helvetica;fontSize=11;fontColor=default;labelBackgroundColor=default;" vertex="1" connectable="0" parent="2JwVCkcr6Hv9kkTB1BBg-145">
          <mxGeometry x="-0.5707" relative="1" as="geometry">
            <mxPoint as="offset" />
          </mxGeometry>
        </mxCell>
        <mxCell id="2JwVCkcr6Hv9kkTB1BBg-147" style="edgeStyle=orthogonalEdgeStyle;rounded=0;orthogonalLoop=1;jettySize=auto;html=1;strokeColor=default;align=center;verticalAlign=middle;fontFamily=Helvetica;fontSize=11;fontColor=default;labelBackgroundColor=default;jumpStyle=arc;endArrow=classic;entryX=0.5;entryY=0;entryDx=0;entryDy=0;" edge="1" parent="2JwVCkcr6Hv9kkTB1BBg-1" source="2JwVCkcr6Hv9kkTB1BBg-151" target="2JwVCkcr6Hv9kkTB1BBg-221">
          <mxGeometry relative="1" as="geometry">
            <mxPoint x="-10" y="1840" as="targetPoint" />
          </mxGeometry>
        </mxCell>
        <mxCell id="2JwVCkcr6Hv9kkTB1BBg-148" value="0" style="edgeLabel;html=1;align=center;verticalAlign=middle;resizable=0;points=[];rounded=0;strokeColor=default;fontFamily=Helvetica;fontSize=11;fontColor=default;labelBackgroundColor=default;" vertex="1" connectable="0" parent="2JwVCkcr6Hv9kkTB1BBg-147">
          <mxGeometry x="-0.1569" y="1" relative="1" as="geometry">
            <mxPoint as="offset" />
          </mxGeometry>
        </mxCell>
        <mxCell id="2JwVCkcr6Hv9kkTB1BBg-149" style="edgeStyle=orthogonalEdgeStyle;shape=connector;rounded=0;jumpStyle=arc;orthogonalLoop=1;jettySize=auto;html=1;entryX=0.5;entryY=0;entryDx=0;entryDy=0;strokeColor=default;align=center;verticalAlign=middle;fontFamily=Helvetica;fontSize=11;fontColor=default;labelBackgroundColor=default;endArrow=classic;" edge="1" parent="2JwVCkcr6Hv9kkTB1BBg-1" source="2JwVCkcr6Hv9kkTB1BBg-151" target="2JwVCkcr6Hv9kkTB1BBg-223">
          <mxGeometry relative="1" as="geometry" />
        </mxCell>
        <mxCell id="2JwVCkcr6Hv9kkTB1BBg-150" value="1" style="edgeLabel;html=1;align=center;verticalAlign=middle;resizable=0;points=[];fontFamily=Helvetica;fontSize=11;fontColor=default;labelBackgroundColor=default;" vertex="1" connectable="0" parent="2JwVCkcr6Hv9kkTB1BBg-149">
          <mxGeometry x="-0.6932" y="1" relative="1" as="geometry">
            <mxPoint as="offset" />
          </mxGeometry>
        </mxCell>
        <mxCell id="2JwVCkcr6Hv9kkTB1BBg-151" value="A(0)" style="rhombus;whiteSpace=wrap;html=1;" vertex="1" parent="2JwVCkcr6Hv9kkTB1BBg-1">
          <mxGeometry x="265" y="1710" width="50" height="50" as="geometry" />
        </mxCell>
        <mxCell id="2JwVCkcr6Hv9kkTB1BBg-152" value="SHIFT" style="rounded=0;whiteSpace=wrap;html=1;verticalAlign=bottom;labelPosition=center;verticalLabelPosition=top;align=left;fillColor=#fff2cc;strokeColor=#d6b656;" vertex="1" parent="2JwVCkcr6Hv9kkTB1BBg-1">
          <mxGeometry x="230" y="1890" width="120" height="60" as="geometry" />
        </mxCell>
        <mxCell id="2JwVCkcr6Hv9kkTB1BBg-153" value="A &amp;lt;= A&amp;gt;&amp;gt;1" style="text;html=1;align=center;verticalAlign=middle;resizable=0;points=[];autosize=1;strokeColor=none;fillColor=none;" vertex="1" parent="2JwVCkcr6Hv9kkTB1BBg-1">
          <mxGeometry x="250" y="1905" width="80" height="30" as="geometry" />
        </mxCell>
        <mxCell id="2JwVCkcr6Hv9kkTB1BBg-154" style="edgeStyle=orthogonalEdgeStyle;rounded=0;orthogonalLoop=1;jettySize=auto;html=1;entryX=0.5;entryY=0;entryDx=0;entryDy=0;exitX=0;exitY=0.5;exitDx=0;exitDy=0;strokeColor=default;align=center;verticalAlign=middle;fontFamily=Helvetica;fontSize=11;fontColor=default;labelBackgroundColor=default;jumpStyle=arc;endArrow=classic;" edge="1" parent="2JwVCkcr6Hv9kkTB1BBg-1" source="2JwVCkcr6Hv9kkTB1BBg-158" target="2JwVCkcr6Hv9kkTB1BBg-163">
          <mxGeometry relative="1" as="geometry">
            <Array as="points">
              <mxPoint x="230" y="2010" />
              <mxPoint x="230" y="2050" />
              <mxPoint x="290" y="2050" />
            </Array>
          </mxGeometry>
        </mxCell>
        <mxCell id="2JwVCkcr6Hv9kkTB1BBg-155" value="0" style="edgeLabel;html=1;align=center;verticalAlign=middle;resizable=0;points=[];fontFamily=Helvetica;fontSize=11;fontColor=default;labelBackgroundColor=default;" vertex="1" connectable="0" parent="2JwVCkcr6Hv9kkTB1BBg-154">
          <mxGeometry x="-0.497" y="-2" relative="1" as="geometry">
            <mxPoint as="offset" />
          </mxGeometry>
        </mxCell>
        <mxCell id="2JwVCkcr6Hv9kkTB1BBg-156" style="edgeStyle=orthogonalEdgeStyle;rounded=0;orthogonalLoop=1;jettySize=auto;html=1;entryX=0;entryY=0.5;entryDx=0;entryDy=0;strokeColor=default;align=center;verticalAlign=middle;fontFamily=Helvetica;fontSize=11;fontColor=default;labelBackgroundColor=default;jumpStyle=arc;endArrow=classic;" edge="1" parent="2JwVCkcr6Hv9kkTB1BBg-1" source="2JwVCkcr6Hv9kkTB1BBg-158" target="2JwVCkcr6Hv9kkTB1BBg-166">
          <mxGeometry relative="1" as="geometry">
            <Array as="points">
              <mxPoint x="533" y="2010" />
              <mxPoint x="533" y="1660" />
            </Array>
          </mxGeometry>
        </mxCell>
        <mxCell id="2JwVCkcr6Hv9kkTB1BBg-157" value="1" style="edgeLabel;html=1;align=center;verticalAlign=middle;resizable=0;points=[];rounded=0;strokeColor=default;fontFamily=Helvetica;fontSize=11;fontColor=default;labelBackgroundColor=default;" vertex="1" connectable="0" parent="2JwVCkcr6Hv9kkTB1BBg-156">
          <mxGeometry x="-0.8421" relative="1" as="geometry">
            <mxPoint as="offset" />
          </mxGeometry>
        </mxCell>
        <mxCell id="2JwVCkcr6Hv9kkTB1BBg-158" value="A=0" style="rhombus;whiteSpace=wrap;html=1;" vertex="1" parent="2JwVCkcr6Hv9kkTB1BBg-1">
          <mxGeometry x="265" y="1985" width="50" height="50" as="geometry" />
        </mxCell>
        <mxCell id="2JwVCkcr6Hv9kkTB1BBg-159" style="edgeStyle=orthogonalEdgeStyle;shape=connector;rounded=0;jumpStyle=arc;orthogonalLoop=1;jettySize=auto;html=1;entryX=0;entryY=0.5;entryDx=0;entryDy=0;strokeColor=default;align=center;verticalAlign=middle;fontFamily=Helvetica;fontSize=11;fontColor=default;labelBackgroundColor=default;endArrow=classic;" edge="1" parent="2JwVCkcr6Hv9kkTB1BBg-1" source="2JwVCkcr6Hv9kkTB1BBg-163" target="2JwVCkcr6Hv9kkTB1BBg-152">
          <mxGeometry relative="1" as="geometry">
            <Array as="points">
              <mxPoint x="170" y="2105" />
              <mxPoint x="170" y="1920" />
            </Array>
          </mxGeometry>
        </mxCell>
        <mxCell id="2JwVCkcr6Hv9kkTB1BBg-160" value="0" style="edgeLabel;html=1;align=center;verticalAlign=middle;resizable=0;points=[];fontFamily=Helvetica;fontSize=11;fontColor=default;labelBackgroundColor=default;" vertex="1" connectable="0" parent="2JwVCkcr6Hv9kkTB1BBg-159">
          <mxGeometry x="-0.7728" y="-4" relative="1" as="geometry">
            <mxPoint as="offset" />
          </mxGeometry>
        </mxCell>
        <mxCell id="2JwVCkcr6Hv9kkTB1BBg-161" style="edgeStyle=orthogonalEdgeStyle;shape=connector;rounded=0;jumpStyle=arc;orthogonalLoop=1;jettySize=auto;html=1;entryX=0.5;entryY=0;entryDx=0;entryDy=0;strokeColor=default;align=center;verticalAlign=middle;fontFamily=Helvetica;fontSize=11;fontColor=default;labelBackgroundColor=default;endArrow=classic;" edge="1" parent="2JwVCkcr6Hv9kkTB1BBg-1" source="2JwVCkcr6Hv9kkTB1BBg-163" target="2JwVCkcr6Hv9kkTB1BBg-225">
          <mxGeometry relative="1" as="geometry" />
        </mxCell>
        <mxCell id="2JwVCkcr6Hv9kkTB1BBg-162" value="1" style="edgeLabel;html=1;align=center;verticalAlign=middle;resizable=0;points=[];fontFamily=Helvetica;fontSize=11;fontColor=default;labelBackgroundColor=default;" vertex="1" connectable="0" parent="2JwVCkcr6Hv9kkTB1BBg-161">
          <mxGeometry x="-0.1683" y="3" relative="1" as="geometry">
            <mxPoint as="offset" />
          </mxGeometry>
        </mxCell>
        <mxCell id="2JwVCkcr6Hv9kkTB1BBg-163" value="A(0)" style="rhombus;whiteSpace=wrap;html=1;" vertex="1" parent="2JwVCkcr6Hv9kkTB1BBg-1">
          <mxGeometry x="265" y="2080" width="50" height="50" as="geometry" />
        </mxCell>
        <mxCell id="2JwVCkcr6Hv9kkTB1BBg-164" style="edgeStyle=orthogonalEdgeStyle;shape=connector;rounded=0;jumpStyle=arc;orthogonalLoop=1;jettySize=auto;html=1;entryX=0.5;entryY=0;entryDx=0;entryDy=0;strokeColor=default;align=center;verticalAlign=middle;fontFamily=Helvetica;fontSize=11;fontColor=default;labelBackgroundColor=default;endArrow=classic;exitX=0;exitY=0.5;exitDx=0;exitDy=0;" edge="1" parent="2JwVCkcr6Hv9kkTB1BBg-1" source="2JwVCkcr6Hv9kkTB1BBg-217" target="2JwVCkcr6Hv9kkTB1BBg-172">
          <mxGeometry relative="1" as="geometry">
            <Array as="points">
              <mxPoint x="645" y="1751" />
              <mxPoint x="645" y="1790" />
              <mxPoint x="690" y="1790" />
            </Array>
          </mxGeometry>
        </mxCell>
        <mxCell id="2JwVCkcr6Hv9kkTB1BBg-165" value="0" style="edgeLabel;html=1;align=center;verticalAlign=middle;resizable=0;points=[];fontFamily=Helvetica;fontSize=11;fontColor=default;labelBackgroundColor=default;" vertex="1" connectable="0" parent="2JwVCkcr6Hv9kkTB1BBg-164">
          <mxGeometry x="-0.3142" y="1" relative="1" as="geometry">
            <mxPoint as="offset" />
          </mxGeometry>
        </mxCell>
        <mxCell id="2JwVCkcr6Hv9kkTB1BBg-166" value="WAITDATA" style="rounded=0;whiteSpace=wrap;html=1;verticalAlign=bottom;labelPosition=center;verticalLabelPosition=top;align=left;fillColor=#fff2cc;strokeColor=#d6b656;" vertex="1" parent="2JwVCkcr6Hv9kkTB1BBg-1">
          <mxGeometry x="630" y="1630" width="120" height="60" as="geometry" />
        </mxCell>
        <mxCell id="2JwVCkcr6Hv9kkTB1BBg-167" value="READY&lt;br&gt;A &amp;lt;= X" style="text;html=1;align=center;verticalAlign=middle;resizable=0;points=[];autosize=1;strokeColor=none;fillColor=none;" vertex="1" parent="2JwVCkcr6Hv9kkTB1BBg-1">
          <mxGeometry x="660" y="1640" width="60" height="40" as="geometry" />
        </mxCell>
        <mxCell id="2JwVCkcr6Hv9kkTB1BBg-168" style="edgeStyle=orthogonalEdgeStyle;rounded=0;orthogonalLoop=1;jettySize=auto;html=1;entryX=0.5;entryY=0;entryDx=0;entryDy=0;exitX=0;exitY=0.5;exitDx=0;exitDy=0;strokeColor=default;align=center;verticalAlign=middle;fontFamily=Helvetica;fontSize=11;fontColor=default;labelBackgroundColor=default;jumpStyle=arc;endArrow=classic;" edge="1" parent="2JwVCkcr6Hv9kkTB1BBg-1" source="2JwVCkcr6Hv9kkTB1BBg-172" target="2JwVCkcr6Hv9kkTB1BBg-177">
          <mxGeometry relative="1" as="geometry" />
        </mxCell>
        <mxCell id="2JwVCkcr6Hv9kkTB1BBg-169" value="0" style="edgeLabel;html=1;align=center;verticalAlign=middle;resizable=0;points=[];rounded=0;strokeColor=default;fontFamily=Helvetica;fontSize=11;fontColor=default;labelBackgroundColor=default;" vertex="1" connectable="0" parent="2JwVCkcr6Hv9kkTB1BBg-168">
          <mxGeometry x="-0.3587" y="-1" relative="1" as="geometry">
            <mxPoint as="offset" />
          </mxGeometry>
        </mxCell>
        <mxCell id="2JwVCkcr6Hv9kkTB1BBg-170" style="edgeStyle=orthogonalEdgeStyle;shape=connector;rounded=0;jumpStyle=arc;orthogonalLoop=1;jettySize=auto;html=1;entryX=1;entryY=0.25;entryDx=0;entryDy=0;strokeColor=default;align=center;verticalAlign=middle;fontFamily=Helvetica;fontSize=11;fontColor=default;labelBackgroundColor=default;endArrow=classic;" edge="1" parent="2JwVCkcr6Hv9kkTB1BBg-1" source="2JwVCkcr6Hv9kkTB1BBg-172" target="2JwVCkcr6Hv9kkTB1BBg-132">
          <mxGeometry relative="1" as="geometry">
            <Array as="points">
              <mxPoint x="860" y="1835" />
              <mxPoint x="860" y="1275" />
            </Array>
          </mxGeometry>
        </mxCell>
        <mxCell id="2JwVCkcr6Hv9kkTB1BBg-171" value="1" style="edgeLabel;html=1;align=center;verticalAlign=middle;resizable=0;points=[];fontFamily=Helvetica;fontSize=11;fontColor=default;labelBackgroundColor=default;" vertex="1" connectable="0" parent="2JwVCkcr6Hv9kkTB1BBg-170">
          <mxGeometry x="-0.9346" y="2" relative="1" as="geometry">
            <mxPoint y="1" as="offset" />
          </mxGeometry>
        </mxCell>
        <mxCell id="2JwVCkcr6Hv9kkTB1BBg-172" value="CALC" style="rhombus;whiteSpace=wrap;html=1;" vertex="1" parent="2JwVCkcr6Hv9kkTB1BBg-1">
          <mxGeometry x="665" y="1810" width="50" height="50" as="geometry" />
        </mxCell>
        <mxCell id="2JwVCkcr6Hv9kkTB1BBg-173" style="edgeStyle=orthogonalEdgeStyle;rounded=0;orthogonalLoop=1;jettySize=auto;html=1;exitX=0;exitY=0.5;exitDx=0;exitDy=0;strokeColor=default;align=center;verticalAlign=middle;fontFamily=Helvetica;fontSize=11;fontColor=default;labelBackgroundColor=default;jumpStyle=arc;endArrow=classic;entryX=0;entryY=0.75;entryDx=0;entryDy=0;" edge="1" parent="2JwVCkcr6Hv9kkTB1BBg-1" source="2JwVCkcr6Hv9kkTB1BBg-177" target="2JwVCkcr6Hv9kkTB1BBg-166">
          <mxGeometry relative="1" as="geometry">
            <mxPoint x="620" y="1780" as="targetPoint" />
          </mxGeometry>
        </mxCell>
        <mxCell id="2JwVCkcr6Hv9kkTB1BBg-174" value="0" style="edgeLabel;html=1;align=center;verticalAlign=middle;resizable=0;points=[];fontFamily=Helvetica;fontSize=11;fontColor=default;labelBackgroundColor=default;" vertex="1" connectable="0" parent="2JwVCkcr6Hv9kkTB1BBg-173">
          <mxGeometry x="-0.3684" y="1" relative="1" as="geometry">
            <mxPoint as="offset" />
          </mxGeometry>
        </mxCell>
        <mxCell id="2JwVCkcr6Hv9kkTB1BBg-175" style="edgeStyle=orthogonalEdgeStyle;shape=connector;rounded=0;jumpStyle=arc;orthogonalLoop=1;jettySize=auto;html=1;entryX=0.5;entryY=0;entryDx=0;entryDy=0;strokeColor=default;align=center;verticalAlign=middle;fontFamily=Helvetica;fontSize=11;fontColor=default;labelBackgroundColor=default;endArrow=classic;exitX=1;exitY=0.5;exitDx=0;exitDy=0;" edge="1" parent="2JwVCkcr6Hv9kkTB1BBg-1" source="2JwVCkcr6Hv9kkTB1BBg-177" target="2JwVCkcr6Hv9kkTB1BBg-179">
          <mxGeometry relative="1" as="geometry" />
        </mxCell>
        <mxCell id="2JwVCkcr6Hv9kkTB1BBg-176" value="1" style="edgeLabel;html=1;align=center;verticalAlign=middle;resizable=0;points=[];fontFamily=Helvetica;fontSize=11;fontColor=default;labelBackgroundColor=default;" vertex="1" connectable="0" parent="2JwVCkcr6Hv9kkTB1BBg-175">
          <mxGeometry x="-0.6636" y="-1" relative="1" as="geometry">
            <mxPoint as="offset" />
          </mxGeometry>
        </mxCell>
        <mxCell id="2JwVCkcr6Hv9kkTB1BBg-177" value="DATAIN" style="rhombus;whiteSpace=wrap;html=1;" vertex="1" parent="2JwVCkcr6Hv9kkTB1BBg-1">
          <mxGeometry x="665" y="1900" width="50" height="50" as="geometry" />
        </mxCell>
        <mxCell id="2JwVCkcr6Hv9kkTB1BBg-178" style="edgeStyle=orthogonalEdgeStyle;shape=connector;rounded=0;jumpStyle=arc;orthogonalLoop=1;jettySize=auto;html=1;entryX=0.5;entryY=0;entryDx=0;entryDy=0;strokeColor=default;align=center;verticalAlign=middle;fontFamily=Helvetica;fontSize=11;fontColor=default;labelBackgroundColor=default;endArrow=classic;" edge="1" parent="2JwVCkcr6Hv9kkTB1BBg-1" source="2JwVCkcr6Hv9kkTB1BBg-179" target="2JwVCkcr6Hv9kkTB1BBg-185">
          <mxGeometry relative="1" as="geometry" />
        </mxCell>
        <mxCell id="2JwVCkcr6Hv9kkTB1BBg-179" value="CALC_A" style="rounded=0;whiteSpace=wrap;html=1;verticalAlign=bottom;labelPosition=center;verticalLabelPosition=top;align=left;fillColor=#fff2cc;strokeColor=#d6b656;" vertex="1" parent="2JwVCkcr6Hv9kkTB1BBg-1">
          <mxGeometry x="679" y="1990" width="120" height="60" as="geometry" />
        </mxCell>
        <mxCell id="2JwVCkcr6Hv9kkTB1BBg-180" value="A &amp;lt;= A&amp;gt;&amp;gt;1" style="text;html=1;align=center;verticalAlign=middle;resizable=0;points=[];autosize=1;strokeColor=none;fillColor=none;" vertex="1" parent="2JwVCkcr6Hv9kkTB1BBg-1">
          <mxGeometry x="699" y="2005" width="80" height="30" as="geometry" />
        </mxCell>
        <mxCell id="2JwVCkcr6Hv9kkTB1BBg-181" style="edgeStyle=orthogonalEdgeStyle;shape=connector;rounded=0;jumpStyle=arc;orthogonalLoop=1;jettySize=auto;html=1;strokeColor=default;align=center;verticalAlign=middle;fontFamily=Helvetica;fontSize=11;fontColor=default;labelBackgroundColor=default;endArrow=classic;entryX=0.5;entryY=0;entryDx=0;entryDy=0;" edge="1" parent="2JwVCkcr6Hv9kkTB1BBg-1" source="2JwVCkcr6Hv9kkTB1BBg-185" target="2JwVCkcr6Hv9kkTB1BBg-227">
          <mxGeometry relative="1" as="geometry">
            <mxPoint x="658" y="2104.49" as="targetPoint" />
          </mxGeometry>
        </mxCell>
        <mxCell id="2JwVCkcr6Hv9kkTB1BBg-182" value="1" style="edgeLabel;html=1;align=center;verticalAlign=middle;resizable=0;points=[];fontFamily=Helvetica;fontSize=11;fontColor=default;labelBackgroundColor=default;" vertex="1" connectable="0" parent="2JwVCkcr6Hv9kkTB1BBg-181">
          <mxGeometry x="-0.3805" relative="1" as="geometry">
            <mxPoint as="offset" />
          </mxGeometry>
        </mxCell>
        <mxCell id="2JwVCkcr6Hv9kkTB1BBg-183" style="edgeStyle=orthogonalEdgeStyle;shape=connector;rounded=0;jumpStyle=arc;orthogonalLoop=1;jettySize=auto;html=1;strokeColor=default;align=center;verticalAlign=middle;fontFamily=Helvetica;fontSize=11;fontColor=default;labelBackgroundColor=default;endArrow=classic;entryX=0.012;entryY=0.492;entryDx=0;entryDy=0;entryPerimeter=0;" edge="1" parent="2JwVCkcr6Hv9kkTB1BBg-1" source="2JwVCkcr6Hv9kkTB1BBg-185" target="2JwVCkcr6Hv9kkTB1BBg-186">
          <mxGeometry relative="1" as="geometry">
            <mxPoint x="789" y="2105" as="targetPoint" />
          </mxGeometry>
        </mxCell>
        <mxCell id="2JwVCkcr6Hv9kkTB1BBg-184" value="0" style="edgeLabel;html=1;align=center;verticalAlign=middle;resizable=0;points=[];fontFamily=Helvetica;fontSize=11;fontColor=default;labelBackgroundColor=default;" vertex="1" connectable="0" parent="2JwVCkcr6Hv9kkTB1BBg-183">
          <mxGeometry x="-0.1642" relative="1" as="geometry">
            <mxPoint x="4" as="offset" />
          </mxGeometry>
        </mxCell>
        <mxCell id="2JwVCkcr6Hv9kkTB1BBg-185" value="A(0)" style="rhombus;whiteSpace=wrap;html=1;" vertex="1" parent="2JwVCkcr6Hv9kkTB1BBg-1">
          <mxGeometry x="714" y="2080" width="50" height="50" as="geometry" />
        </mxCell>
        <mxCell id="2JwVCkcr6Hv9kkTB1BBg-186" value="SHIFT" style="text;html=1;align=center;verticalAlign=middle;resizable=0;points=[];autosize=1;strokeColor=none;fillColor=none;fontFamily=Helvetica;fontSize=11;fontColor=default;labelBackgroundColor=default;" vertex="1" parent="2JwVCkcr6Hv9kkTB1BBg-1">
          <mxGeometry x="790" y="2090" width="60" height="30" as="geometry" />
        </mxCell>
        <mxCell id="2JwVCkcr6Hv9kkTB1BBg-187" style="edgeStyle=orthogonalEdgeStyle;shape=connector;rounded=0;jumpStyle=arc;orthogonalLoop=1;jettySize=auto;html=1;entryX=0.5;entryY=0;entryDx=0;entryDy=0;strokeColor=default;align=center;verticalAlign=middle;fontFamily=Helvetica;fontSize=11;fontColor=default;labelBackgroundColor=default;endArrow=classic;startArrow=dash;startFill=0;" edge="1" parent="2JwVCkcr6Hv9kkTB1BBg-1" source="2JwVCkcr6Hv9kkTB1BBg-189" target="2JwVCkcr6Hv9kkTB1BBg-190">
          <mxGeometry relative="1" as="geometry" />
        </mxCell>
        <mxCell id="2JwVCkcr6Hv9kkTB1BBg-188" value="8" style="edgeLabel;html=1;align=center;verticalAlign=middle;resizable=0;points=[];fontFamily=Helvetica;fontSize=11;fontColor=default;labelBackgroundColor=default;" vertex="1" connectable="0" parent="2JwVCkcr6Hv9kkTB1BBg-187">
          <mxGeometry x="-0.0894" y="-1" relative="1" as="geometry">
            <mxPoint x="6" as="offset" />
          </mxGeometry>
        </mxCell>
        <mxCell id="2JwVCkcr6Hv9kkTB1BBg-189" value="" style="shape=trapezoid;perimeter=trapezoidPerimeter;whiteSpace=wrap;html=1;fixedSize=1;fontFamily=Helvetica;fontSize=11;fontColor=default;labelBackgroundColor=default;rotation=-180;size=30;" vertex="1" parent="2JwVCkcr6Hv9kkTB1BBg-1">
          <mxGeometry x="1150" y="1400" width="150" height="30" as="geometry" />
        </mxCell>
        <mxCell id="2JwVCkcr6Hv9kkTB1BBg-190" value="A" style="rounded=0;whiteSpace=wrap;html=1;fontFamily=Helvetica;fontSize=14;labelBackgroundColor=none;fillColor=#ffe6cc;strokeColor=#d79b00;fontStyle=1" vertex="1" parent="2JwVCkcr6Hv9kkTB1BBg-1">
          <mxGeometry x="1160" y="1460" width="130" height="30" as="geometry" />
        </mxCell>
        <mxCell id="2JwVCkcr6Hv9kkTB1BBg-191" style="edgeStyle=orthogonalEdgeStyle;shape=connector;rounded=0;jumpStyle=arc;orthogonalLoop=1;jettySize=auto;html=1;entryX=0.75;entryY=1;entryDx=0;entryDy=0;strokeColor=default;align=center;verticalAlign=middle;fontFamily=Helvetica;fontSize=11;fontColor=default;labelBackgroundColor=default;endArrow=classic;" edge="1" parent="2JwVCkcr6Hv9kkTB1BBg-1" source="2JwVCkcr6Hv9kkTB1BBg-192" target="2JwVCkcr6Hv9kkTB1BBg-189">
          <mxGeometry relative="1" as="geometry">
            <Array as="points">
              <mxPoint x="1175" y="1380" />
              <mxPoint x="1187" y="1380" />
            </Array>
          </mxGeometry>
        </mxCell>
        <mxCell id="2JwVCkcr6Hv9kkTB1BBg-192" value="X" style="text;html=1;align=center;verticalAlign=middle;resizable=0;points=[];autosize=1;strokeColor=none;fillColor=none;fontFamily=Helvetica;fontSize=11;fontColor=default;labelBackgroundColor=default;" vertex="1" parent="2JwVCkcr6Hv9kkTB1BBg-1">
          <mxGeometry x="1160" y="1340" width="30" height="30" as="geometry" />
        </mxCell>
        <mxCell id="2JwVCkcr6Hv9kkTB1BBg-193" style="edgeStyle=orthogonalEdgeStyle;shape=connector;rounded=0;jumpStyle=arc;orthogonalLoop=1;jettySize=auto;html=1;entryX=0;entryY=0.5;entryDx=0;entryDy=0;strokeColor=default;align=center;verticalAlign=middle;fontFamily=Helvetica;fontSize=11;fontColor=default;labelBackgroundColor=default;endArrow=classic;" edge="1" parent="2JwVCkcr6Hv9kkTB1BBg-1" source="2JwVCkcr6Hv9kkTB1BBg-194" target="2JwVCkcr6Hv9kkTB1BBg-189">
          <mxGeometry relative="1" as="geometry" />
        </mxCell>
        <mxCell id="2JwVCkcr6Hv9kkTB1BBg-194" value="selA" style="text;html=1;align=center;verticalAlign=middle;resizable=0;points=[];autosize=1;strokeColor=none;fillColor=none;fontFamily=Helvetica;fontSize=11;fontColor=default;labelBackgroundColor=default;" vertex="1" parent="2JwVCkcr6Hv9kkTB1BBg-1">
          <mxGeometry x="1321" y="1400" width="40" height="30" as="geometry" />
        </mxCell>
        <mxCell id="2JwVCkcr6Hv9kkTB1BBg-195" style="edgeStyle=orthogonalEdgeStyle;shape=connector;rounded=0;jumpStyle=arc;orthogonalLoop=1;jettySize=auto;html=1;entryX=1;entryY=0.5;entryDx=0;entryDy=0;strokeColor=default;align=center;verticalAlign=middle;fontFamily=Helvetica;fontSize=11;fontColor=default;labelBackgroundColor=default;endArrow=classic;" edge="1" parent="2JwVCkcr6Hv9kkTB1BBg-1" source="2JwVCkcr6Hv9kkTB1BBg-196" target="2JwVCkcr6Hv9kkTB1BBg-190">
          <mxGeometry relative="1" as="geometry" />
        </mxCell>
        <mxCell id="2JwVCkcr6Hv9kkTB1BBg-196" value="loadA" style="text;html=1;align=center;verticalAlign=middle;resizable=0;points=[];autosize=1;strokeColor=none;fillColor=none;fontFamily=Helvetica;fontSize=11;fontColor=default;labelBackgroundColor=default;" vertex="1" parent="2JwVCkcr6Hv9kkTB1BBg-1">
          <mxGeometry x="1321" y="1460" width="50" height="30" as="geometry" />
        </mxCell>
        <mxCell id="2JwVCkcr6Hv9kkTB1BBg-197" value="rsl" style="rounded=0;whiteSpace=wrap;html=1;fontFamily=Helvetica;fontSize=14;labelBackgroundColor=none;fillColor=#f5f5f5;strokeColor=#666666;fontStyle=0;fontColor=#333333;" vertex="1" parent="2JwVCkcr6Hv9kkTB1BBg-1">
          <mxGeometry x="1160" y="1530" width="130" height="30" as="geometry" />
        </mxCell>
        <mxCell id="2JwVCkcr6Hv9kkTB1BBg-198" value="=0" style="rounded=0;whiteSpace=wrap;html=1;fontFamily=Helvetica;fontSize=14;labelBackgroundColor=none;fillColor=#f5f5f5;strokeColor=#666666;fontStyle=0;fontColor=#333333;" vertex="1" parent="2JwVCkcr6Hv9kkTB1BBg-1">
          <mxGeometry x="1080" y="1530" width="40" height="30" as="geometry" />
        </mxCell>
        <mxCell id="2JwVCkcr6Hv9kkTB1BBg-199" style="edgeStyle=orthogonalEdgeStyle;shape=connector;rounded=0;jumpStyle=arc;orthogonalLoop=1;jettySize=auto;html=1;entryX=0.5;entryY=1;entryDx=0;entryDy=0;strokeColor=default;align=center;verticalAlign=middle;fontFamily=Helvetica;fontSize=11;fontColor=default;labelBackgroundColor=default;endArrow=none;startArrow=block;startFill=1;" edge="1" parent="2JwVCkcr6Hv9kkTB1BBg-1" source="2JwVCkcr6Hv9kkTB1BBg-200" target="2JwVCkcr6Hv9kkTB1BBg-198">
          <mxGeometry relative="1" as="geometry" />
        </mxCell>
        <mxCell id="2JwVCkcr6Hv9kkTB1BBg-200" value="zA" style="text;html=1;align=center;verticalAlign=middle;resizable=0;points=[];autosize=1;strokeColor=none;fillColor=none;fontFamily=Helvetica;fontSize=11;fontColor=default;labelBackgroundColor=default;" vertex="1" parent="2JwVCkcr6Hv9kkTB1BBg-1">
          <mxGeometry x="1080" y="1588" width="40" height="30" as="geometry" />
        </mxCell>
        <mxCell id="2JwVCkcr6Hv9kkTB1BBg-201" style="edgeStyle=orthogonalEdgeStyle;shape=connector;rounded=0;jumpStyle=arc;orthogonalLoop=1;jettySize=auto;html=1;entryX=0.5;entryY=0;entryDx=0;entryDy=0;strokeColor=default;align=center;verticalAlign=middle;fontFamily=Helvetica;fontSize=11;fontColor=default;labelBackgroundColor=default;endArrow=classic;startArrow=dash;startFill=0;exitX=0.5;exitY=1;exitDx=0;exitDy=0;" edge="1" parent="2JwVCkcr6Hv9kkTB1BBg-1" source="2JwVCkcr6Hv9kkTB1BBg-190" target="2JwVCkcr6Hv9kkTB1BBg-197">
          <mxGeometry relative="1" as="geometry">
            <mxPoint x="1235" y="1440" as="sourcePoint" />
            <mxPoint x="1235" y="1470" as="targetPoint" />
          </mxGeometry>
        </mxCell>
        <mxCell id="2JwVCkcr6Hv9kkTB1BBg-202" value="8" style="edgeLabel;html=1;align=center;verticalAlign=middle;resizable=0;points=[];fontFamily=Helvetica;fontSize=11;fontColor=default;labelBackgroundColor=default;" vertex="1" connectable="0" parent="2JwVCkcr6Hv9kkTB1BBg-201">
          <mxGeometry x="-0.0894" y="-1" relative="1" as="geometry">
            <mxPoint x="6" as="offset" />
          </mxGeometry>
        </mxCell>
        <mxCell id="2JwVCkcr6Hv9kkTB1BBg-203" style="edgeStyle=orthogonalEdgeStyle;shape=connector;rounded=0;jumpStyle=arc;orthogonalLoop=1;jettySize=auto;html=1;entryX=0.5;entryY=0;entryDx=0;entryDy=0;strokeColor=default;align=center;verticalAlign=middle;fontFamily=Helvetica;fontSize=11;fontColor=default;labelBackgroundColor=default;endArrow=classic;startArrow=dash;startFill=0;exitX=0.5;exitY=1;exitDx=0;exitDy=0;" edge="1" parent="2JwVCkcr6Hv9kkTB1BBg-1" source="2JwVCkcr6Hv9kkTB1BBg-190" target="2JwVCkcr6Hv9kkTB1BBg-198">
          <mxGeometry relative="1" as="geometry">
            <mxPoint x="1220" y="1510" as="sourcePoint" />
            <mxPoint x="1245" y="1480" as="targetPoint" />
          </mxGeometry>
        </mxCell>
        <mxCell id="2JwVCkcr6Hv9kkTB1BBg-204" value="LSB_A" style="text;html=1;align=center;verticalAlign=middle;resizable=0;points=[];autosize=1;strokeColor=none;fillColor=none;fontFamily=Helvetica;fontSize=11;fontColor=default;labelBackgroundColor=default;" vertex="1" parent="2JwVCkcr6Hv9kkTB1BBg-1">
          <mxGeometry x="1311" y="1500" width="60" height="30" as="geometry" />
        </mxCell>
        <mxCell id="2JwVCkcr6Hv9kkTB1BBg-205" style="edgeStyle=orthogonalEdgeStyle;shape=connector;rounded=0;jumpStyle=arc;orthogonalLoop=1;jettySize=auto;html=1;entryX=0;entryY=0.658;entryDx=0;entryDy=0;entryPerimeter=0;strokeColor=default;align=center;verticalAlign=middle;fontFamily=Helvetica;fontSize=11;fontColor=default;labelBackgroundColor=default;endArrow=classic;exitX=0.5;exitY=1;exitDx=0;exitDy=0;" edge="1" parent="2JwVCkcr6Hv9kkTB1BBg-1" source="2JwVCkcr6Hv9kkTB1BBg-190" target="2JwVCkcr6Hv9kkTB1BBg-204">
          <mxGeometry relative="1" as="geometry">
            <Array as="points">
              <mxPoint x="1225" y="1500" />
              <mxPoint x="1270" y="1500" />
              <mxPoint x="1270" y="1520" />
            </Array>
          </mxGeometry>
        </mxCell>
        <mxCell id="2JwVCkcr6Hv9kkTB1BBg-206" style="edgeStyle=orthogonalEdgeStyle;shape=connector;rounded=0;jumpStyle=arc;orthogonalLoop=1;jettySize=auto;html=1;entryX=0.25;entryY=1;entryDx=0;entryDy=0;strokeColor=default;align=center;verticalAlign=middle;fontFamily=Helvetica;fontSize=11;fontColor=default;labelBackgroundColor=default;endArrow=classic;startArrow=dash;startFill=0;exitX=0.5;exitY=1;exitDx=0;exitDy=0;" edge="1" parent="2JwVCkcr6Hv9kkTB1BBg-1" source="2JwVCkcr6Hv9kkTB1BBg-197" target="2JwVCkcr6Hv9kkTB1BBg-189">
          <mxGeometry relative="1" as="geometry">
            <mxPoint x="1255" y="1460" as="sourcePoint" />
            <mxPoint x="1255" y="1490" as="targetPoint" />
            <Array as="points">
              <mxPoint x="1225" y="1580" />
              <mxPoint x="1380" y="1580" />
              <mxPoint x="1380" y="1380" />
              <mxPoint x="1263" y="1380" />
            </Array>
          </mxGeometry>
        </mxCell>
        <mxCell id="2JwVCkcr6Hv9kkTB1BBg-207" value="8" style="edgeLabel;html=1;align=center;verticalAlign=middle;resizable=0;points=[];fontFamily=Helvetica;fontSize=11;fontColor=default;labelBackgroundColor=default;" vertex="1" connectable="0" parent="2JwVCkcr6Hv9kkTB1BBg-206">
          <mxGeometry x="-0.0894" y="-1" relative="1" as="geometry">
            <mxPoint x="-171" y="48" as="offset" />
          </mxGeometry>
        </mxCell>
        <mxCell id="2JwVCkcr6Hv9kkTB1BBg-208" value="" style="edgeStyle=orthogonalEdgeStyle;rounded=0;orthogonalLoop=1;jettySize=auto;html=1;entryX=0.5;entryY=0;entryDx=0;entryDy=0;strokeColor=default;align=center;verticalAlign=middle;fontFamily=Helvetica;fontSize=11;fontColor=default;labelBackgroundColor=default;jumpStyle=arc;endArrow=classic;" edge="1" parent="2JwVCkcr6Hv9kkTB1BBg-1" source="2JwVCkcr6Hv9kkTB1BBg-132" target="2JwVCkcr6Hv9kkTB1BBg-211">
          <mxGeometry relative="1" as="geometry">
            <mxPoint x="290" y="1320" as="sourcePoint" />
            <mxPoint x="290" y="1430" as="targetPoint" />
          </mxGeometry>
        </mxCell>
        <mxCell id="2JwVCkcr6Hv9kkTB1BBg-209" style="edgeStyle=orthogonalEdgeStyle;shape=connector;rounded=0;jumpStyle=arc;orthogonalLoop=1;jettySize=auto;html=1;entryX=1;entryY=0.5;entryDx=0;entryDy=0;strokeColor=default;align=center;verticalAlign=middle;fontFamily=Helvetica;fontSize=11;fontColor=default;labelBackgroundColor=default;endArrow=classic;" edge="1" parent="2JwVCkcr6Hv9kkTB1BBg-1" source="2JwVCkcr6Hv9kkTB1BBg-211" target="2JwVCkcr6Hv9kkTB1BBg-213">
          <mxGeometry relative="1" as="geometry" />
        </mxCell>
        <mxCell id="2JwVCkcr6Hv9kkTB1BBg-210" value="1" style="edgeLabel;html=1;align=center;verticalAlign=middle;resizable=0;points=[];fontFamily=Helvetica;fontSize=11;fontColor=default;labelBackgroundColor=default;" vertex="1" connectable="0" parent="2JwVCkcr6Hv9kkTB1BBg-209">
          <mxGeometry x="0.0357" y="-1" relative="1" as="geometry">
            <mxPoint x="8" y="1" as="offset" />
          </mxGeometry>
        </mxCell>
        <mxCell id="2JwVCkcr6Hv9kkTB1BBg-211" value="DEBUG" style="rhombus;whiteSpace=wrap;html=1;" vertex="1" parent="2JwVCkcr6Hv9kkTB1BBg-1">
          <mxGeometry x="265" y="1350" width="50" height="50" as="geometry" />
        </mxCell>
        <mxCell id="2JwVCkcr6Hv9kkTB1BBg-212" style="edgeStyle=orthogonalEdgeStyle;shape=connector;rounded=0;jumpStyle=arc;orthogonalLoop=1;jettySize=auto;html=1;entryX=0.5;entryY=0;entryDx=0;entryDy=0;strokeColor=default;align=center;verticalAlign=middle;fontFamily=Helvetica;fontSize=11;fontColor=default;labelBackgroundColor=default;endArrow=classic;" edge="1" parent="2JwVCkcr6Hv9kkTB1BBg-1" source="2JwVCkcr6Hv9kkTB1BBg-213" target="2JwVCkcr6Hv9kkTB1BBg-139">
          <mxGeometry relative="1" as="geometry">
            <Array as="points">
              <mxPoint x="170" y="1420" />
              <mxPoint x="290" y="1420" />
            </Array>
          </mxGeometry>
        </mxCell>
        <mxCell id="2JwVCkcr6Hv9kkTB1BBg-213" value="ONES &amp;lt;= X" style="rounded=1;whiteSpace=wrap;html=1;fontFamily=Helvetica;fontSize=11;labelBackgroundColor=none;fillColor=#fff2cc;strokeColor=#d6b656;arcSize=50;" vertex="1" parent="2JwVCkcr6Hv9kkTB1BBg-1">
          <mxGeometry x="120" y="1355" width="100" height="40" as="geometry" />
        </mxCell>
        <mxCell id="2JwVCkcr6Hv9kkTB1BBg-214" value="" style="edgeStyle=orthogonalEdgeStyle;shape=connector;rounded=0;jumpStyle=arc;orthogonalLoop=1;jettySize=auto;html=1;entryX=0.5;entryY=0;entryDx=0;entryDy=0;strokeColor=default;align=center;verticalAlign=middle;fontFamily=Helvetica;fontSize=11;fontColor=default;labelBackgroundColor=default;endArrow=classic;" edge="1" parent="2JwVCkcr6Hv9kkTB1BBg-1" source="2JwVCkcr6Hv9kkTB1BBg-166" target="2JwVCkcr6Hv9kkTB1BBg-217">
          <mxGeometry relative="1" as="geometry">
            <mxPoint x="690" y="1690" as="sourcePoint" />
            <mxPoint x="690" y="1810" as="targetPoint" />
          </mxGeometry>
        </mxCell>
        <mxCell id="2JwVCkcr6Hv9kkTB1BBg-215" style="edgeStyle=orthogonalEdgeStyle;shape=connector;rounded=0;jumpStyle=arc;orthogonalLoop=1;jettySize=auto;html=1;entryX=0;entryY=0.5;entryDx=0;entryDy=0;strokeColor=default;align=center;verticalAlign=middle;fontFamily=Helvetica;fontSize=11;fontColor=default;labelBackgroundColor=default;endArrow=classic;" edge="1" parent="2JwVCkcr6Hv9kkTB1BBg-1" source="2JwVCkcr6Hv9kkTB1BBg-217" target="2JwVCkcr6Hv9kkTB1BBg-219">
          <mxGeometry relative="1" as="geometry" />
        </mxCell>
        <mxCell id="2JwVCkcr6Hv9kkTB1BBg-216" value="1" style="edgeLabel;html=1;align=center;verticalAlign=middle;resizable=0;points=[];fontFamily=Helvetica;fontSize=11;fontColor=default;labelBackgroundColor=default;" vertex="1" connectable="0" parent="2JwVCkcr6Hv9kkTB1BBg-215">
          <mxGeometry x="0.4309" y="-4" relative="1" as="geometry">
            <mxPoint as="offset" />
          </mxGeometry>
        </mxCell>
        <mxCell id="2JwVCkcr6Hv9kkTB1BBg-217" value="DEBUG" style="rhombus;whiteSpace=wrap;html=1;" vertex="1" parent="2JwVCkcr6Hv9kkTB1BBg-1">
          <mxGeometry x="665" y="1726" width="50" height="50" as="geometry" />
        </mxCell>
        <mxCell id="2JwVCkcr6Hv9kkTB1BBg-218" style="edgeStyle=orthogonalEdgeStyle;shape=connector;rounded=0;jumpStyle=arc;orthogonalLoop=1;jettySize=auto;html=1;entryX=0.5;entryY=0;entryDx=0;entryDy=0;strokeColor=default;align=center;verticalAlign=middle;fontFamily=Helvetica;fontSize=11;fontColor=default;labelBackgroundColor=default;endArrow=classic;" edge="1" parent="2JwVCkcr6Hv9kkTB1BBg-1" source="2JwVCkcr6Hv9kkTB1BBg-219" target="2JwVCkcr6Hv9kkTB1BBg-172">
          <mxGeometry relative="1" as="geometry">
            <Array as="points">
              <mxPoint x="790" y="1800" />
              <mxPoint x="690" y="1800" />
            </Array>
          </mxGeometry>
        </mxCell>
        <mxCell id="2JwVCkcr6Hv9kkTB1BBg-219" value="ONES &amp;lt;= X" style="rounded=1;whiteSpace=wrap;html=1;fontFamily=Helvetica;fontSize=11;labelBackgroundColor=none;fillColor=#fff2cc;strokeColor=#d6b656;arcSize=50;" vertex="1" parent="2JwVCkcr6Hv9kkTB1BBg-1">
          <mxGeometry x="740" y="1731" width="100" height="40" as="geometry" />
        </mxCell>
        <mxCell id="2JwVCkcr6Hv9kkTB1BBg-220" style="edgeStyle=orthogonalEdgeStyle;shape=connector;rounded=0;jumpStyle=arc;orthogonalLoop=1;jettySize=auto;html=1;strokeColor=default;align=center;verticalAlign=middle;fontFamily=Helvetica;fontSize=11;fontColor=default;labelBackgroundColor=default;endArrow=classic;" edge="1" parent="2JwVCkcr6Hv9kkTB1BBg-1" source="2JwVCkcr6Hv9kkTB1BBg-221" target="2JwVCkcr6Hv9kkTB1BBg-152">
          <mxGeometry relative="1" as="geometry" />
        </mxCell>
        <mxCell id="2JwVCkcr6Hv9kkTB1BBg-221" value="ONES &amp;lt;= 0" style="rounded=1;whiteSpace=wrap;html=1;fontFamily=Helvetica;fontSize=11;labelBackgroundColor=none;fillColor=#fff2cc;strokeColor=#d6b656;arcSize=50;" vertex="1" parent="2JwVCkcr6Hv9kkTB1BBg-1">
          <mxGeometry x="145" y="1795" width="100" height="40" as="geometry" />
        </mxCell>
        <mxCell id="2JwVCkcr6Hv9kkTB1BBg-222" style="edgeStyle=orthogonalEdgeStyle;shape=connector;rounded=0;jumpStyle=arc;orthogonalLoop=1;jettySize=auto;html=1;entryX=0.5;entryY=0;entryDx=0;entryDy=0;strokeColor=default;align=center;verticalAlign=middle;fontFamily=Helvetica;fontSize=11;fontColor=default;labelBackgroundColor=default;endArrow=classic;" edge="1" parent="2JwVCkcr6Hv9kkTB1BBg-1" source="2JwVCkcr6Hv9kkTB1BBg-223" target="2JwVCkcr6Hv9kkTB1BBg-152">
          <mxGeometry relative="1" as="geometry" />
        </mxCell>
        <mxCell id="2JwVCkcr6Hv9kkTB1BBg-223" value="ONES &amp;lt;= 1" style="rounded=1;whiteSpace=wrap;html=1;fontFamily=Helvetica;fontSize=11;labelBackgroundColor=none;fillColor=#fff2cc;strokeColor=#d6b656;arcSize=50;" vertex="1" parent="2JwVCkcr6Hv9kkTB1BBg-1">
          <mxGeometry x="335" y="1795" width="100" height="40" as="geometry" />
        </mxCell>
        <mxCell id="2JwVCkcr6Hv9kkTB1BBg-224" style="edgeStyle=orthogonalEdgeStyle;shape=connector;rounded=0;jumpStyle=arc;orthogonalLoop=1;jettySize=auto;html=1;entryX=0;entryY=0.5;entryDx=0;entryDy=0;strokeColor=default;align=center;verticalAlign=middle;fontFamily=Helvetica;fontSize=11;fontColor=default;labelBackgroundColor=default;endArrow=classic;" edge="1" parent="2JwVCkcr6Hv9kkTB1BBg-1" source="2JwVCkcr6Hv9kkTB1BBg-225" target="2JwVCkcr6Hv9kkTB1BBg-152">
          <mxGeometry relative="1" as="geometry">
            <Array as="points">
              <mxPoint x="398" y="2190" />
              <mxPoint x="170" y="2190" />
              <mxPoint x="170" y="1920" />
            </Array>
          </mxGeometry>
        </mxCell>
        <mxCell id="2JwVCkcr6Hv9kkTB1BBg-225" value="ONES &amp;lt;= ONES + 1" style="rounded=1;whiteSpace=wrap;html=1;fontFamily=Helvetica;fontSize=11;labelBackgroundColor=none;fillColor=#fff2cc;strokeColor=#d6b656;arcSize=50;" vertex="1" parent="2JwVCkcr6Hv9kkTB1BBg-1">
          <mxGeometry x="345" y="2130" width="105" height="40" as="geometry" />
        </mxCell>
        <mxCell id="2JwVCkcr6Hv9kkTB1BBg-226" style="edgeStyle=orthogonalEdgeStyle;shape=connector;rounded=0;jumpStyle=arc;orthogonalLoop=1;jettySize=auto;html=1;entryX=0;entryY=0.5;entryDx=0;entryDy=0;strokeColor=default;align=center;verticalAlign=middle;fontFamily=Helvetica;fontSize=11;fontColor=default;labelBackgroundColor=default;endArrow=classic;" edge="1" parent="2JwVCkcr6Hv9kkTB1BBg-1" source="2JwVCkcr6Hv9kkTB1BBg-227" target="2JwVCkcr6Hv9kkTB1BBg-152">
          <mxGeometry relative="1" as="geometry">
            <Array as="points">
              <mxPoint x="572" y="2190" />
              <mxPoint x="170" y="2190" />
              <mxPoint x="170" y="1920" />
            </Array>
          </mxGeometry>
        </mxCell>
        <mxCell id="2JwVCkcr6Hv9kkTB1BBg-227" value="ONES &amp;lt;= ONES + 1" style="rounded=1;whiteSpace=wrap;html=1;fontFamily=Helvetica;fontSize=11;labelBackgroundColor=none;fillColor=#fff2cc;strokeColor=#d6b656;arcSize=50;" vertex="1" parent="2JwVCkcr6Hv9kkTB1BBg-1">
          <mxGeometry x="520" y="2130" width="105" height="40" as="geometry" />
        </mxCell>
        <mxCell id="2JwVCkcr6Hv9kkTB1BBg-230" style="edgeStyle=orthogonalEdgeStyle;shape=connector;rounded=0;jumpStyle=arc;orthogonalLoop=1;jettySize=auto;html=1;entryX=0.5;entryY=0;entryDx=0;entryDy=0;strokeColor=default;align=center;verticalAlign=middle;fontFamily=Helvetica;fontSize=11;fontColor=default;labelBackgroundColor=default;endArrow=classic;startArrow=dash;startFill=0;" edge="1" parent="2JwVCkcr6Hv9kkTB1BBg-1" source="2JwVCkcr6Hv9kkTB1BBg-232" target="2JwVCkcr6Hv9kkTB1BBg-233">
          <mxGeometry relative="1" as="geometry" />
        </mxCell>
        <mxCell id="2JwVCkcr6Hv9kkTB1BBg-231" value="8" style="edgeLabel;html=1;align=center;verticalAlign=middle;resizable=0;points=[];fontFamily=Helvetica;fontSize=11;fontColor=default;labelBackgroundColor=default;" vertex="1" connectable="0" parent="2JwVCkcr6Hv9kkTB1BBg-230">
          <mxGeometry x="-0.0894" y="-1" relative="1" as="geometry">
            <mxPoint x="6" as="offset" />
          </mxGeometry>
        </mxCell>
        <mxCell id="2JwVCkcr6Hv9kkTB1BBg-232" value="" style="shape=trapezoid;perimeter=trapezoidPerimeter;whiteSpace=wrap;html=1;fixedSize=1;fontFamily=Helvetica;fontSize=11;fontColor=default;labelBackgroundColor=default;rotation=-180;size=30;" vertex="1" parent="2JwVCkcr6Hv9kkTB1BBg-1">
          <mxGeometry x="1110" y="1788" width="205" height="30" as="geometry" />
        </mxCell>
        <mxCell id="2JwVCkcr6Hv9kkTB1BBg-233" value="ONES" style="rounded=0;whiteSpace=wrap;html=1;fontFamily=Helvetica;fontSize=14;labelBackgroundColor=none;fillColor=#ffe6cc;strokeColor=#d79b00;fontStyle=1" vertex="1" parent="2JwVCkcr6Hv9kkTB1BBg-1">
          <mxGeometry x="1135" y="1848" width="130" height="30" as="geometry" />
        </mxCell>
        <mxCell id="2JwVCkcr6Hv9kkTB1BBg-234" style="edgeStyle=orthogonalEdgeStyle;shape=connector;rounded=0;jumpStyle=arc;orthogonalLoop=1;jettySize=auto;html=1;entryX=0.75;entryY=1;entryDx=0;entryDy=0;strokeColor=default;align=center;verticalAlign=middle;fontFamily=Helvetica;fontSize=11;fontColor=default;labelBackgroundColor=default;endArrow=classic;" edge="1" parent="2JwVCkcr6Hv9kkTB1BBg-1" source="2JwVCkcr6Hv9kkTB1BBg-235" target="2JwVCkcr6Hv9kkTB1BBg-232">
          <mxGeometry relative="1" as="geometry">
            <Array as="points">
              <mxPoint x="1150" y="1768" />
              <mxPoint x="1162" y="1768" />
            </Array>
          </mxGeometry>
        </mxCell>
        <mxCell id="2JwVCkcr6Hv9kkTB1BBg-235" value="0" style="text;html=1;align=center;verticalAlign=middle;resizable=0;points=[];autosize=1;strokeColor=none;fillColor=none;fontFamily=Helvetica;fontSize=11;fontColor=default;labelBackgroundColor=default;" vertex="1" parent="2JwVCkcr6Hv9kkTB1BBg-1">
          <mxGeometry x="1135" y="1728" width="30" height="30" as="geometry" />
        </mxCell>
        <mxCell id="2JwVCkcr6Hv9kkTB1BBg-236" style="edgeStyle=orthogonalEdgeStyle;shape=connector;rounded=0;jumpStyle=arc;orthogonalLoop=1;jettySize=auto;html=1;entryX=0;entryY=0.5;entryDx=0;entryDy=0;strokeColor=default;align=center;verticalAlign=middle;fontFamily=Helvetica;fontSize=11;fontColor=default;labelBackgroundColor=default;endArrow=classic;" edge="1" parent="2JwVCkcr6Hv9kkTB1BBg-1" source="2JwVCkcr6Hv9kkTB1BBg-237" target="2JwVCkcr6Hv9kkTB1BBg-232">
          <mxGeometry relative="1" as="geometry" />
        </mxCell>
        <mxCell id="2JwVCkcr6Hv9kkTB1BBg-237" value="selONES" style="text;html=1;align=center;verticalAlign=middle;resizable=0;points=[];autosize=1;strokeColor=none;fillColor=none;fontFamily=Helvetica;fontSize=11;fontColor=default;labelBackgroundColor=default;" vertex="1" parent="2JwVCkcr6Hv9kkTB1BBg-1">
          <mxGeometry x="1361" y="1788" width="70" height="30" as="geometry" />
        </mxCell>
        <mxCell id="2JwVCkcr6Hv9kkTB1BBg-238" style="edgeStyle=orthogonalEdgeStyle;shape=connector;rounded=0;jumpStyle=arc;orthogonalLoop=1;jettySize=auto;html=1;entryX=1;entryY=0.5;entryDx=0;entryDy=0;strokeColor=default;align=center;verticalAlign=middle;fontFamily=Helvetica;fontSize=11;fontColor=default;labelBackgroundColor=default;endArrow=classic;" edge="1" parent="2JwVCkcr6Hv9kkTB1BBg-1" source="2JwVCkcr6Hv9kkTB1BBg-239" target="2JwVCkcr6Hv9kkTB1BBg-233">
          <mxGeometry relative="1" as="geometry" />
        </mxCell>
        <mxCell id="2JwVCkcr6Hv9kkTB1BBg-239" value="loadONES" style="text;html=1;align=center;verticalAlign=middle;resizable=0;points=[];autosize=1;strokeColor=none;fillColor=none;fontFamily=Helvetica;fontSize=11;fontColor=default;labelBackgroundColor=default;" vertex="1" parent="2JwVCkcr6Hv9kkTB1BBg-1">
          <mxGeometry x="1281" y="1848" width="80" height="30" as="geometry" />
        </mxCell>
        <mxCell id="2JwVCkcr6Hv9kkTB1BBg-240" value="+" style="rounded=0;whiteSpace=wrap;html=1;fontFamily=Helvetica;fontSize=14;labelBackgroundColor=none;fillColor=#f5f5f5;strokeColor=#666666;fontStyle=0;fontColor=#333333;" vertex="1" parent="2JwVCkcr6Hv9kkTB1BBg-1">
          <mxGeometry x="1080" y="1918" width="130" height="30" as="geometry" />
        </mxCell>
        <mxCell id="2JwVCkcr6Hv9kkTB1BBg-241" style="edgeStyle=orthogonalEdgeStyle;shape=connector;rounded=0;jumpStyle=arc;orthogonalLoop=1;jettySize=auto;html=1;entryX=0.75;entryY=0;entryDx=0;entryDy=0;strokeColor=default;align=center;verticalAlign=middle;fontFamily=Helvetica;fontSize=11;fontColor=default;labelBackgroundColor=default;endArrow=classic;startArrow=dash;startFill=0;exitX=0.5;exitY=1;exitDx=0;exitDy=0;" edge="1" parent="2JwVCkcr6Hv9kkTB1BBg-1" source="2JwVCkcr6Hv9kkTB1BBg-233" target="2JwVCkcr6Hv9kkTB1BBg-240">
          <mxGeometry relative="1" as="geometry">
            <mxPoint x="1210" y="1828" as="sourcePoint" />
            <mxPoint x="1210" y="1858" as="targetPoint" />
          </mxGeometry>
        </mxCell>
        <mxCell id="2JwVCkcr6Hv9kkTB1BBg-242" value="8" style="edgeLabel;html=1;align=center;verticalAlign=middle;resizable=0;points=[];fontFamily=Helvetica;fontSize=11;fontColor=default;labelBackgroundColor=default;" vertex="1" connectable="0" parent="2JwVCkcr6Hv9kkTB1BBg-241">
          <mxGeometry x="-0.0894" y="-1" relative="1" as="geometry">
            <mxPoint x="6" as="offset" />
          </mxGeometry>
        </mxCell>
        <mxCell id="2JwVCkcr6Hv9kkTB1BBg-243" value="OUTP" style="text;html=1;align=center;verticalAlign=middle;resizable=0;points=[];autosize=1;strokeColor=none;fillColor=none;fontFamily=Helvetica;fontSize=11;fontColor=default;labelBackgroundColor=default;" vertex="1" parent="2JwVCkcr6Hv9kkTB1BBg-1">
          <mxGeometry x="1291" y="1888" width="50" height="30" as="geometry" />
        </mxCell>
        <mxCell id="2JwVCkcr6Hv9kkTB1BBg-244" style="edgeStyle=orthogonalEdgeStyle;shape=connector;rounded=0;jumpStyle=arc;orthogonalLoop=1;jettySize=auto;html=1;entryX=0;entryY=0.658;entryDx=0;entryDy=0;entryPerimeter=0;strokeColor=default;align=center;verticalAlign=middle;fontFamily=Helvetica;fontSize=11;fontColor=default;labelBackgroundColor=default;endArrow=classic;exitX=0.5;exitY=1;exitDx=0;exitDy=0;" edge="1" parent="2JwVCkcr6Hv9kkTB1BBg-1" source="2JwVCkcr6Hv9kkTB1BBg-233" target="2JwVCkcr6Hv9kkTB1BBg-243">
          <mxGeometry relative="1" as="geometry">
            <Array as="points">
              <mxPoint x="1200" y="1888" />
              <mxPoint x="1245" y="1888" />
              <mxPoint x="1245" y="1908" />
            </Array>
          </mxGeometry>
        </mxCell>
        <mxCell id="2JwVCkcr6Hv9kkTB1BBg-245" style="edgeStyle=orthogonalEdgeStyle;shape=connector;rounded=0;jumpStyle=arc;orthogonalLoop=1;jettySize=auto;html=1;entryX=0.609;entryY=0.946;entryDx=0;entryDy=0;strokeColor=default;align=center;verticalAlign=middle;fontFamily=Helvetica;fontSize=11;fontColor=default;labelBackgroundColor=default;endArrow=classic;startArrow=dash;startFill=0;exitX=0.5;exitY=1;exitDx=0;exitDy=0;entryPerimeter=0;" edge="1" parent="2JwVCkcr6Hv9kkTB1BBg-1" source="2JwVCkcr6Hv9kkTB1BBg-240" target="2JwVCkcr6Hv9kkTB1BBg-232">
          <mxGeometry relative="1" as="geometry">
            <mxPoint x="1230" y="1848" as="sourcePoint" />
            <mxPoint x="1230" y="1878" as="targetPoint" />
            <Array as="points">
              <mxPoint x="1145" y="1968" />
              <mxPoint x="1350" y="1968" />
              <mxPoint x="1350" y="1768" />
              <mxPoint x="1190" y="1768" />
            </Array>
          </mxGeometry>
        </mxCell>
        <mxCell id="2JwVCkcr6Hv9kkTB1BBg-246" value="8" style="edgeLabel;html=1;align=center;verticalAlign=middle;resizable=0;points=[];fontFamily=Helvetica;fontSize=11;fontColor=default;labelBackgroundColor=default;" vertex="1" connectable="0" parent="2JwVCkcr6Hv9kkTB1BBg-245">
          <mxGeometry x="-0.0894" y="-1" relative="1" as="geometry">
            <mxPoint x="-221" y="27" as="offset" />
          </mxGeometry>
        </mxCell>
        <mxCell id="2JwVCkcr6Hv9kkTB1BBg-247" style="edgeStyle=orthogonalEdgeStyle;shape=connector;rounded=0;jumpStyle=arc;orthogonalLoop=1;jettySize=auto;html=1;entryX=0.25;entryY=0;entryDx=0;entryDy=0;strokeColor=default;align=center;verticalAlign=middle;fontFamily=Helvetica;fontSize=11;fontColor=default;labelBackgroundColor=default;endArrow=classic;" edge="1" parent="2JwVCkcr6Hv9kkTB1BBg-1" source="2JwVCkcr6Hv9kkTB1BBg-248" target="2JwVCkcr6Hv9kkTB1BBg-240">
          <mxGeometry relative="1" as="geometry">
            <Array as="points">
              <mxPoint x="1095" y="1902" />
              <mxPoint x="1113" y="1902" />
            </Array>
          </mxGeometry>
        </mxCell>
        <mxCell id="2JwVCkcr6Hv9kkTB1BBg-248" value="1" style="text;html=1;align=center;verticalAlign=middle;resizable=0;points=[];autosize=1;strokeColor=none;fillColor=none;fontFamily=Helvetica;fontSize=11;fontColor=default;labelBackgroundColor=default;" vertex="1" parent="2JwVCkcr6Hv9kkTB1BBg-1">
          <mxGeometry x="1080" y="1862" width="30" height="30" as="geometry" />
        </mxCell>
        <mxCell id="2JwVCkcr6Hv9kkTB1BBg-249" style="edgeStyle=orthogonalEdgeStyle;shape=connector;rounded=0;jumpStyle=arc;orthogonalLoop=1;jettySize=auto;html=1;entryX=0.321;entryY=1.01;entryDx=0;entryDy=0;strokeColor=default;align=center;verticalAlign=middle;fontFamily=Helvetica;fontSize=11;fontColor=default;labelBackgroundColor=default;endArrow=classic;startArrow=dash;startFill=0;entryPerimeter=0;" edge="1" parent="2JwVCkcr6Hv9kkTB1BBg-1" source="2JwVCkcr6Hv9kkTB1BBg-251" target="2JwVCkcr6Hv9kkTB1BBg-232">
          <mxGeometry relative="1" as="geometry" />
        </mxCell>
        <mxCell id="2JwVCkcr6Hv9kkTB1BBg-250" value="8" style="edgeLabel;html=1;align=center;verticalAlign=middle;resizable=0;points=[];fontFamily=Helvetica;fontSize=11;fontColor=default;labelBackgroundColor=default;" vertex="1" connectable="0" parent="2JwVCkcr6Hv9kkTB1BBg-249">
          <mxGeometry x="-0.5566" relative="1" as="geometry">
            <mxPoint x="-15" y="-2" as="offset" />
          </mxGeometry>
        </mxCell>
        <mxCell id="2JwVCkcr6Hv9kkTB1BBg-251" value="X" style="text;html=1;align=center;verticalAlign=middle;resizable=0;points=[];autosize=1;strokeColor=none;fillColor=none;fontFamily=Helvetica;fontSize=11;fontColor=default;labelBackgroundColor=default;" vertex="1" parent="2JwVCkcr6Hv9kkTB1BBg-1">
          <mxGeometry x="1235" y="1702" width="30" height="30" as="geometry" />
        </mxCell>
        <mxCell id="2JwVCkcr6Hv9kkTB1BBg-252" value="1" style="text;html=1;align=center;verticalAlign=middle;resizable=0;points=[];autosize=1;strokeColor=none;fillColor=none;fontFamily=Helvetica;fontSize=11;fontColor=default;labelBackgroundColor=default;" vertex="1" parent="2JwVCkcr6Hv9kkTB1BBg-1">
          <mxGeometry x="1280" y="1728" width="30" height="30" as="geometry" />
        </mxCell>
        <mxCell id="2JwVCkcr6Hv9kkTB1BBg-253" style="edgeStyle=orthogonalEdgeStyle;rounded=0;orthogonalLoop=1;jettySize=auto;html=1;entryX=0.11;entryY=0.994;entryDx=0;entryDy=0;entryPerimeter=0;curved=0;strokeColor=default;align=center;verticalAlign=middle;fontFamily=Helvetica;fontSize=11;fontColor=default;labelBackgroundColor=default;jumpStyle=arc;startArrow=none;startFill=0;endArrow=classic;" edge="1" parent="2JwVCkcr6Hv9kkTB1BBg-1" source="2JwVCkcr6Hv9kkTB1BBg-252" target="2JwVCkcr6Hv9kkTB1BBg-232">
          <mxGeometry relative="1" as="geometry">
            <Array as="points">
              <mxPoint x="1293" y="1752" />
            </Array>
          </mxGeometry>
        </mxCell>
        <mxCell id="2JwVCkcr6Hv9kkTB1BBg-254" value="&lt;div&gt;&lt;font face=&quot;Courier New&quot; style=&quot;font-size: 20px;&quot;&gt;&lt;b&gt;MEALY&lt;/b&gt;&lt;/font&gt;&lt;/div&gt;" style="text;html=1;align=center;verticalAlign=middle;resizable=0;points=[];autosize=1;strokeColor=none;fillColor=none;" vertex="1" parent="2JwVCkcr6Hv9kkTB1BBg-1">
          <mxGeometry x="90" y="1270" width="80" height="40" as="geometry" />
        </mxCell>
      </root>
    </mxGraphModel>
  </diagram>
  <diagram name="search_chr" id="pqvI5UirtC0Gl5DFr3M0">
    <mxGraphModel dx="1195" dy="623" grid="1" gridSize="10" guides="1" tooltips="1" connect="1" arrows="1" fold="1" page="1" pageScale="1" pageWidth="850" pageHeight="1100" math="0" shadow="0">
      <root>
        <mxCell id="xuLyacIKq8niHRSZ1Tol-0" />
        <mxCell id="xuLyacIKq8niHRSZ1Tol-1" parent="xuLyacIKq8niHRSZ1Tol-0" />
        <mxCell id="xuLyacIKq8niHRSZ1Tol-2" style="edgeStyle=orthogonalEdgeStyle;rounded=0;orthogonalLoop=1;jettySize=auto;html=1;entryX=0;entryY=0.5;entryDx=0;entryDy=0;strokeColor=default;align=center;verticalAlign=middle;fontFamily=Helvetica;fontSize=11;fontColor=default;labelBackgroundColor=default;jumpStyle=arc;endArrow=classic;exitX=1;exitY=0.5;exitDx=0;exitDy=0;" edge="1" parent="xuLyacIKq8niHRSZ1Tol-1" source="xuLyacIKq8niHRSZ1Tol-116" target="xuLyacIKq8niHRSZ1Tol-4">
          <mxGeometry relative="1" as="geometry">
            <mxPoint x="290" y="330" as="targetPoint" />
            <Array as="points">
              <mxPoint x="210" y="275" />
              <mxPoint x="210" y="190" />
            </Array>
          </mxGeometry>
        </mxCell>
        <mxCell id="xuLyacIKq8niHRSZ1Tol-3" value="0" style="edgeLabel;html=1;align=center;verticalAlign=middle;resizable=0;points=[];fontFamily=Helvetica;fontSize=11;fontColor=default;labelBackgroundColor=default;" vertex="1" connectable="0" parent="xuLyacIKq8niHRSZ1Tol-2">
          <mxGeometry x="-0.4681" y="1" relative="1" as="geometry">
            <mxPoint x="-14" y="-1" as="offset" />
          </mxGeometry>
        </mxCell>
        <mxCell id="xuLyacIKq8niHRSZ1Tol-4" value="INIT" style="rounded=0;whiteSpace=wrap;html=1;verticalAlign=bottom;labelPosition=center;verticalLabelPosition=top;align=left;fillColor=#fff2cc;strokeColor=#d6b656;" vertex="1" parent="xuLyacIKq8niHRSZ1Tol-1">
          <mxGeometry x="230" y="160" width="120" height="60" as="geometry" />
        </mxCell>
        <mxCell id="xuLyacIKq8niHRSZ1Tol-5" value="COUNT &amp;lt;= 0" style="text;html=1;align=center;verticalAlign=middle;resizable=0;points=[];autosize=1;strokeColor=none;fillColor=none;" vertex="1" parent="xuLyacIKq8niHRSZ1Tol-1">
          <mxGeometry x="245" y="175" width="90" height="30" as="geometry" />
        </mxCell>
        <mxCell id="xuLyacIKq8niHRSZ1Tol-94" style="edgeStyle=orthogonalEdgeStyle;shape=connector;rounded=0;jumpStyle=arc;orthogonalLoop=1;jettySize=auto;html=1;entryX=0.5;entryY=0;entryDx=0;entryDy=0;strokeColor=default;align=center;verticalAlign=middle;fontFamily=Helvetica;fontSize=11;fontColor=default;labelBackgroundColor=default;endArrow=classic;startArrow=dash;startFill=0;" edge="1" parent="xuLyacIKq8niHRSZ1Tol-1" source="xuLyacIKq8niHRSZ1Tol-96" target="xuLyacIKq8niHRSZ1Tol-97">
          <mxGeometry relative="1" as="geometry" />
        </mxCell>
        <mxCell id="xuLyacIKq8niHRSZ1Tol-95" value="6" style="edgeLabel;html=1;align=center;verticalAlign=middle;resizable=0;points=[];fontFamily=Helvetica;fontSize=11;fontColor=default;labelBackgroundColor=default;" vertex="1" connectable="0" parent="xuLyacIKq8niHRSZ1Tol-94">
          <mxGeometry x="-0.0894" y="-1" relative="1" as="geometry">
            <mxPoint x="9" y="-3" as="offset" />
          </mxGeometry>
        </mxCell>
        <mxCell id="xuLyacIKq8niHRSZ1Tol-96" value="" style="shape=trapezoid;perimeter=trapezoidPerimeter;whiteSpace=wrap;html=1;fixedSize=1;fontFamily=Helvetica;fontSize=11;fontColor=default;labelBackgroundColor=default;rotation=-180;size=30;" vertex="1" parent="xuLyacIKq8niHRSZ1Tol-1">
          <mxGeometry x="1035" y="576" width="150" height="30" as="geometry" />
        </mxCell>
        <mxCell id="xuLyacIKq8niHRSZ1Tol-97" value="COUNT" style="rounded=0;whiteSpace=wrap;html=1;fontFamily=Helvetica;fontSize=14;labelBackgroundColor=none;fillColor=#ffe6cc;strokeColor=#d79b00;fontStyle=1" vertex="1" parent="xuLyacIKq8niHRSZ1Tol-1">
          <mxGeometry x="1045" y="636" width="130" height="30" as="geometry" />
        </mxCell>
        <mxCell id="xuLyacIKq8niHRSZ1Tol-98" style="edgeStyle=orthogonalEdgeStyle;shape=connector;rounded=0;jumpStyle=arc;orthogonalLoop=1;jettySize=auto;html=1;entryX=0.75;entryY=1;entryDx=0;entryDy=0;strokeColor=default;align=center;verticalAlign=middle;fontFamily=Helvetica;fontSize=11;fontColor=default;labelBackgroundColor=default;endArrow=classic;" edge="1" parent="xuLyacIKq8niHRSZ1Tol-1" source="xuLyacIKq8niHRSZ1Tol-99" target="xuLyacIKq8niHRSZ1Tol-96">
          <mxGeometry relative="1" as="geometry">
            <Array as="points">
              <mxPoint x="1060" y="556" />
              <mxPoint x="1072" y="556" />
            </Array>
          </mxGeometry>
        </mxCell>
        <mxCell id="xuLyacIKq8niHRSZ1Tol-99" value="0" style="text;html=1;align=center;verticalAlign=middle;resizable=0;points=[];autosize=1;strokeColor=none;fillColor=none;fontFamily=Helvetica;fontSize=11;fontColor=default;labelBackgroundColor=default;" vertex="1" parent="xuLyacIKq8niHRSZ1Tol-1">
          <mxGeometry x="1045" y="516" width="30" height="30" as="geometry" />
        </mxCell>
        <mxCell id="xuLyacIKq8niHRSZ1Tol-100" style="edgeStyle=orthogonalEdgeStyle;shape=connector;rounded=0;jumpStyle=arc;orthogonalLoop=1;jettySize=auto;html=1;entryX=0;entryY=0.5;entryDx=0;entryDy=0;strokeColor=default;align=center;verticalAlign=middle;fontFamily=Helvetica;fontSize=11;fontColor=default;labelBackgroundColor=default;endArrow=classic;" edge="1" parent="xuLyacIKq8niHRSZ1Tol-1" source="xuLyacIKq8niHRSZ1Tol-101" target="xuLyacIKq8niHRSZ1Tol-96">
          <mxGeometry relative="1" as="geometry" />
        </mxCell>
        <mxCell id="xuLyacIKq8niHRSZ1Tol-101" value="selCOUNT" style="text;html=1;align=center;verticalAlign=middle;resizable=0;points=[];autosize=1;strokeColor=none;fillColor=none;fontFamily=Helvetica;fontSize=11;fontColor=default;labelBackgroundColor=default;" vertex="1" parent="xuLyacIKq8niHRSZ1Tol-1">
          <mxGeometry x="1186" y="576" width="80" height="30" as="geometry" />
        </mxCell>
        <mxCell id="xuLyacIKq8niHRSZ1Tol-102" style="edgeStyle=orthogonalEdgeStyle;shape=connector;rounded=0;jumpStyle=arc;orthogonalLoop=1;jettySize=auto;html=1;entryX=1;entryY=0.5;entryDx=0;entryDy=0;strokeColor=default;align=center;verticalAlign=middle;fontFamily=Helvetica;fontSize=11;fontColor=default;labelBackgroundColor=default;endArrow=classic;" edge="1" parent="xuLyacIKq8niHRSZ1Tol-1" source="xuLyacIKq8niHRSZ1Tol-103" target="xuLyacIKq8niHRSZ1Tol-97">
          <mxGeometry relative="1" as="geometry" />
        </mxCell>
        <mxCell id="xuLyacIKq8niHRSZ1Tol-103" value="loadCOUNT" style="text;html=1;align=center;verticalAlign=middle;resizable=0;points=[];autosize=1;strokeColor=none;fillColor=none;fontFamily=Helvetica;fontSize=11;fontColor=default;labelBackgroundColor=default;" vertex="1" parent="xuLyacIKq8niHRSZ1Tol-1">
          <mxGeometry x="1191" y="636" width="80" height="30" as="geometry" />
        </mxCell>
        <mxCell id="xuLyacIKq8niHRSZ1Tol-104" value="+" style="rounded=0;whiteSpace=wrap;html=1;fontFamily=Helvetica;fontSize=14;labelBackgroundColor=none;fillColor=#f5f5f5;strokeColor=#666666;fontStyle=0;fontColor=#333333;" vertex="1" parent="xuLyacIKq8niHRSZ1Tol-1">
          <mxGeometry x="990" y="706" width="130" height="30" as="geometry" />
        </mxCell>
        <mxCell id="xuLyacIKq8niHRSZ1Tol-105" style="edgeStyle=orthogonalEdgeStyle;shape=connector;rounded=0;jumpStyle=arc;orthogonalLoop=1;jettySize=auto;html=1;entryX=0.75;entryY=0;entryDx=0;entryDy=0;strokeColor=default;align=center;verticalAlign=middle;fontFamily=Helvetica;fontSize=11;fontColor=default;labelBackgroundColor=default;endArrow=classic;startArrow=dash;startFill=0;exitX=0.5;exitY=1;exitDx=0;exitDy=0;" edge="1" parent="xuLyacIKq8niHRSZ1Tol-1" source="xuLyacIKq8niHRSZ1Tol-97" target="xuLyacIKq8niHRSZ1Tol-104">
          <mxGeometry relative="1" as="geometry">
            <mxPoint x="1120" y="616" as="sourcePoint" />
            <mxPoint x="1120" y="646" as="targetPoint" />
          </mxGeometry>
        </mxCell>
        <mxCell id="xuLyacIKq8niHRSZ1Tol-106" value="6" style="edgeLabel;html=1;align=center;verticalAlign=middle;resizable=0;points=[];fontFamily=Helvetica;fontSize=11;fontColor=default;labelBackgroundColor=default;" vertex="1" connectable="0" parent="xuLyacIKq8niHRSZ1Tol-105">
          <mxGeometry x="-0.0894" y="-1" relative="1" as="geometry">
            <mxPoint x="14" y="5" as="offset" />
          </mxGeometry>
        </mxCell>
        <mxCell id="xuLyacIKq8niHRSZ1Tol-109" style="edgeStyle=orthogonalEdgeStyle;shape=connector;rounded=0;jumpStyle=arc;orthogonalLoop=1;jettySize=auto;html=1;strokeColor=default;align=center;verticalAlign=middle;fontFamily=Helvetica;fontSize=11;fontColor=default;labelBackgroundColor=default;endArrow=classic;startArrow=dash;startFill=0;exitX=0.5;exitY=1;exitDx=0;exitDy=0;entryX=0.25;entryY=1;entryDx=0;entryDy=0;" edge="1" parent="xuLyacIKq8niHRSZ1Tol-1" source="xuLyacIKq8niHRSZ1Tol-104" target="xuLyacIKq8niHRSZ1Tol-96">
          <mxGeometry relative="1" as="geometry">
            <mxPoint x="1140" y="636" as="sourcePoint" />
            <mxPoint x="1150" y="520" as="targetPoint" />
            <Array as="points">
              <mxPoint x="1055" y="756" />
              <mxPoint x="1265" y="756" />
              <mxPoint x="1265" y="556" />
              <mxPoint x="1147" y="556" />
              <mxPoint x="1147" y="576" />
            </Array>
          </mxGeometry>
        </mxCell>
        <mxCell id="xuLyacIKq8niHRSZ1Tol-110" value="6" style="edgeLabel;html=1;align=center;verticalAlign=middle;resizable=0;points=[];fontFamily=Helvetica;fontSize=11;fontColor=default;labelBackgroundColor=default;" vertex="1" connectable="0" parent="xuLyacIKq8niHRSZ1Tol-109">
          <mxGeometry x="-0.0894" y="-1" relative="1" as="geometry">
            <mxPoint x="-221" y="27" as="offset" />
          </mxGeometry>
        </mxCell>
        <mxCell id="xuLyacIKq8niHRSZ1Tol-111" style="edgeStyle=orthogonalEdgeStyle;shape=connector;rounded=0;jumpStyle=arc;orthogonalLoop=1;jettySize=auto;html=1;entryX=0.25;entryY=0;entryDx=0;entryDy=0;strokeColor=default;align=center;verticalAlign=middle;fontFamily=Helvetica;fontSize=11;fontColor=default;labelBackgroundColor=default;endArrow=classic;" edge="1" parent="xuLyacIKq8niHRSZ1Tol-1" source="xuLyacIKq8niHRSZ1Tol-112" target="xuLyacIKq8niHRSZ1Tol-104">
          <mxGeometry relative="1" as="geometry">
            <Array as="points">
              <mxPoint x="1005" y="690" />
              <mxPoint x="1023" y="690" />
            </Array>
          </mxGeometry>
        </mxCell>
        <mxCell id="xuLyacIKq8niHRSZ1Tol-112" value="1" style="text;html=1;align=center;verticalAlign=middle;resizable=0;points=[];autosize=1;strokeColor=none;fillColor=none;fontFamily=Helvetica;fontSize=11;fontColor=default;labelBackgroundColor=default;" vertex="1" parent="xuLyacIKq8niHRSZ1Tol-1">
          <mxGeometry x="990" y="650" width="30" height="30" as="geometry" />
        </mxCell>
        <mxCell id="xuLyacIKq8niHRSZ1Tol-113" value="" style="edgeStyle=orthogonalEdgeStyle;rounded=0;orthogonalLoop=1;jettySize=auto;html=1;entryX=0.5;entryY=0;entryDx=0;entryDy=0;strokeColor=default;align=center;verticalAlign=middle;fontFamily=Helvetica;fontSize=11;fontColor=default;labelBackgroundColor=default;jumpStyle=arc;endArrow=classic;" edge="1" parent="xuLyacIKq8niHRSZ1Tol-1" source="xuLyacIKq8niHRSZ1Tol-4" target="xuLyacIKq8niHRSZ1Tol-116">
          <mxGeometry relative="1" as="geometry">
            <mxPoint x="290" y="220" as="sourcePoint" />
            <mxPoint x="290" y="330" as="targetPoint" />
          </mxGeometry>
        </mxCell>
        <mxCell id="xuLyacIKq8niHRSZ1Tol-114" style="edgeStyle=orthogonalEdgeStyle;shape=connector;rounded=0;jumpStyle=arc;orthogonalLoop=1;jettySize=auto;html=1;entryX=0.5;entryY=0;entryDx=0;entryDy=0;strokeColor=default;align=center;verticalAlign=middle;fontFamily=Helvetica;fontSize=11;fontColor=default;labelBackgroundColor=default;endArrow=classic;" edge="1" parent="xuLyacIKq8niHRSZ1Tol-1" source="xuLyacIKq8niHRSZ1Tol-116" target="xuLyacIKq8niHRSZ1Tol-118">
          <mxGeometry relative="1" as="geometry">
            <Array as="points">
              <mxPoint x="372" y="275" />
            </Array>
          </mxGeometry>
        </mxCell>
        <mxCell id="xuLyacIKq8niHRSZ1Tol-115" value="1" style="edgeLabel;html=1;align=center;verticalAlign=middle;resizable=0;points=[];fontFamily=Helvetica;fontSize=11;fontColor=default;labelBackgroundColor=default;" vertex="1" connectable="0" parent="xuLyacIKq8niHRSZ1Tol-114">
          <mxGeometry x="0.0357" y="-1" relative="1" as="geometry">
            <mxPoint x="-31" y="-1" as="offset" />
          </mxGeometry>
        </mxCell>
        <mxCell id="xuLyacIKq8niHRSZ1Tol-116" value="START" style="rhombus;whiteSpace=wrap;html=1;" vertex="1" parent="xuLyacIKq8niHRSZ1Tol-1">
          <mxGeometry x="265" y="250" width="50" height="50" as="geometry" />
        </mxCell>
        <mxCell id="o30utoSeEYKNgTh-UnCU-2" style="edgeStyle=orthogonalEdgeStyle;shape=connector;rounded=0;jumpStyle=arc;orthogonalLoop=1;jettySize=auto;html=1;entryX=0.5;entryY=0;entryDx=0;entryDy=0;strokeColor=default;align=center;verticalAlign=middle;fontFamily=Helvetica;fontSize=11;fontColor=default;labelBackgroundColor=default;endArrow=classic;" edge="1" parent="xuLyacIKq8niHRSZ1Tol-1" source="xuLyacIKq8niHRSZ1Tol-118" target="o30utoSeEYKNgTh-UnCU-3">
          <mxGeometry relative="1" as="geometry">
            <mxPoint x="320" y="440" as="targetPoint" />
          </mxGeometry>
        </mxCell>
        <mxCell id="xuLyacIKq8niHRSZ1Tol-118" value="A &amp;lt;= ADDRESS&lt;br&gt;C &amp;lt;= CHAR&lt;br&gt;L &amp;lt;= LEN&lt;br&gt;CNT &amp;lt;= 0" style="rounded=1;whiteSpace=wrap;html=1;fontFamily=Helvetica;fontSize=11;labelBackgroundColor=none;fillColor=#fff2cc;strokeColor=#d6b656;arcSize=50;" vertex="1" parent="xuLyacIKq8niHRSZ1Tol-1">
          <mxGeometry x="320" y="310" width="105" height="60" as="geometry" />
        </mxCell>
        <mxCell id="o30utoSeEYKNgTh-UnCU-6" style="edgeStyle=orthogonalEdgeStyle;shape=connector;rounded=0;jumpStyle=arc;orthogonalLoop=1;jettySize=auto;html=1;entryX=0.5;entryY=0;entryDx=0;entryDy=0;strokeColor=default;align=center;verticalAlign=middle;fontFamily=Helvetica;fontSize=11;fontColor=default;labelBackgroundColor=default;endArrow=classic;" edge="1" parent="xuLyacIKq8niHRSZ1Tol-1" source="o30utoSeEYKNgTh-UnCU-3" target="o30utoSeEYKNgTh-UnCU-5">
          <mxGeometry relative="1" as="geometry" />
        </mxCell>
        <mxCell id="o30utoSeEYKNgTh-UnCU-3" value="FETCH" style="rounded=0;whiteSpace=wrap;html=1;verticalAlign=bottom;labelPosition=center;verticalLabelPosition=top;align=left;fillColor=#fff2cc;strokeColor=#d6b656;" vertex="1" parent="xuLyacIKq8niHRSZ1Tol-1">
          <mxGeometry x="530" y="160" width="120" height="60" as="geometry" />
        </mxCell>
        <mxCell id="o30utoSeEYKNgTh-UnCU-7" style="edgeStyle=orthogonalEdgeStyle;shape=connector;rounded=0;jumpStyle=arc;orthogonalLoop=1;jettySize=auto;html=1;entryX=0;entryY=0.5;entryDx=0;entryDy=0;strokeColor=default;align=center;verticalAlign=middle;fontFamily=Helvetica;fontSize=11;fontColor=default;labelBackgroundColor=default;endArrow=classic;exitX=0;exitY=0.5;exitDx=0;exitDy=0;" edge="1" parent="xuLyacIKq8niHRSZ1Tol-1" source="o30utoSeEYKNgTh-UnCU-5" target="o30utoSeEYKNgTh-UnCU-3">
          <mxGeometry relative="1" as="geometry" />
        </mxCell>
        <mxCell id="o30utoSeEYKNgTh-UnCU-8" value="0" style="edgeLabel;html=1;align=center;verticalAlign=middle;resizable=0;points=[];fontFamily=Helvetica;fontSize=11;fontColor=default;labelBackgroundColor=default;" vertex="1" connectable="0" parent="o30utoSeEYKNgTh-UnCU-7">
          <mxGeometry x="-0.642" relative="1" as="geometry">
            <mxPoint as="offset" />
          </mxGeometry>
        </mxCell>
        <mxCell id="o30utoSeEYKNgTh-UnCU-10" style="edgeStyle=orthogonalEdgeStyle;shape=connector;rounded=0;jumpStyle=arc;orthogonalLoop=1;jettySize=auto;html=1;entryX=0.5;entryY=0;entryDx=0;entryDy=0;strokeColor=default;align=center;verticalAlign=middle;fontFamily=Helvetica;fontSize=11;fontColor=default;labelBackgroundColor=default;endArrow=classic;exitX=1;exitY=0.5;exitDx=0;exitDy=0;" edge="1" parent="xuLyacIKq8niHRSZ1Tol-1" source="o30utoSeEYKNgTh-UnCU-5" target="o30utoSeEYKNgTh-UnCU-9">
          <mxGeometry relative="1" as="geometry" />
        </mxCell>
        <mxCell id="o30utoSeEYKNgTh-UnCU-11" value="1" style="edgeLabel;html=1;align=center;verticalAlign=middle;resizable=0;points=[];fontFamily=Helvetica;fontSize=11;fontColor=default;labelBackgroundColor=default;" vertex="1" connectable="0" parent="o30utoSeEYKNgTh-UnCU-10">
          <mxGeometry x="-0.5764" relative="1" as="geometry">
            <mxPoint as="offset" />
          </mxGeometry>
        </mxCell>
        <mxCell id="o30utoSeEYKNgTh-UnCU-5" value="MEM_READY" style="rhombus;whiteSpace=wrap;html=1;" vertex="1" parent="xuLyacIKq8niHRSZ1Tol-1">
          <mxGeometry x="540" y="250" width="100" height="50" as="geometry" />
        </mxCell>
        <mxCell id="o30utoSeEYKNgTh-UnCU-13" style="edgeStyle=orthogonalEdgeStyle;shape=connector;rounded=0;jumpStyle=arc;orthogonalLoop=1;jettySize=auto;html=1;entryX=0.75;entryY=0;entryDx=0;entryDy=0;strokeColor=default;align=center;verticalAlign=middle;fontFamily=Helvetica;fontSize=11;fontColor=default;labelBackgroundColor=default;endArrow=classic;" edge="1" parent="xuLyacIKq8niHRSZ1Tol-1" source="o30utoSeEYKNgTh-UnCU-9" target="o30utoSeEYKNgTh-UnCU-12">
          <mxGeometry relative="1" as="geometry" />
        </mxCell>
        <mxCell id="o30utoSeEYKNgTh-UnCU-9" value="D &amp;lt;= MEM_DATAIN&lt;br&gt;COUNT &amp;lt;= COUNT + 1&lt;br&gt;&lt;div&gt;A &amp;lt;= A + 1&lt;br&gt;MEM_ADDRESS &amp;lt;- A&lt;br&gt;MEM_ENABLE &amp;lt;- 1&lt;/div&gt;" style="rounded=1;whiteSpace=wrap;html=1;fontFamily=Helvetica;fontSize=11;labelBackgroundColor=none;fillColor=#fff2cc;strokeColor=#d6b656;arcSize=50;" vertex="1" parent="xuLyacIKq8niHRSZ1Tol-1">
          <mxGeometry x="640" y="310" width="140" height="80" as="geometry" />
        </mxCell>
        <mxCell id="o30utoSeEYKNgTh-UnCU-16" style="edgeStyle=orthogonalEdgeStyle;shape=connector;rounded=0;jumpStyle=arc;orthogonalLoop=1;jettySize=auto;html=1;entryX=0.5;entryY=0;entryDx=0;entryDy=0;strokeColor=default;align=center;verticalAlign=middle;fontFamily=Helvetica;fontSize=11;fontColor=default;labelBackgroundColor=default;endArrow=classic;" edge="1" parent="xuLyacIKq8niHRSZ1Tol-1" source="o30utoSeEYKNgTh-UnCU-12" target="o30utoSeEYKNgTh-UnCU-14">
          <mxGeometry relative="1" as="geometry" />
        </mxCell>
        <mxCell id="o30utoSeEYKNgTh-UnCU-12" value="COMPARE" style="rounded=0;whiteSpace=wrap;html=1;verticalAlign=bottom;labelPosition=center;verticalLabelPosition=top;align=left;fillColor=#fff2cc;strokeColor=#d6b656;" vertex="1" parent="xuLyacIKq8niHRSZ1Tol-1">
          <mxGeometry x="530" y="440" width="120" height="60" as="geometry" />
        </mxCell>
        <mxCell id="o30utoSeEYKNgTh-UnCU-17" style="edgeStyle=orthogonalEdgeStyle;shape=connector;rounded=0;jumpStyle=arc;orthogonalLoop=1;jettySize=auto;html=1;entryX=0.5;entryY=0;entryDx=0;entryDy=0;strokeColor=default;align=center;verticalAlign=middle;fontFamily=Helvetica;fontSize=11;fontColor=default;labelBackgroundColor=default;endArrow=classic;exitX=1;exitY=0.5;exitDx=0;exitDy=0;" edge="1" parent="xuLyacIKq8niHRSZ1Tol-1" source="o30utoSeEYKNgTh-UnCU-14" target="o30utoSeEYKNgTh-UnCU-15">
          <mxGeometry relative="1" as="geometry" />
        </mxCell>
        <mxCell id="o30utoSeEYKNgTh-UnCU-18" value="1" style="edgeLabel;html=1;align=center;verticalAlign=middle;resizable=0;points=[];fontFamily=Helvetica;fontSize=11;fontColor=default;labelBackgroundColor=default;" vertex="1" connectable="0" parent="o30utoSeEYKNgTh-UnCU-17">
          <mxGeometry x="-0.1317" y="-1" relative="1" as="geometry">
            <mxPoint as="offset" />
          </mxGeometry>
        </mxCell>
        <mxCell id="o30utoSeEYKNgTh-UnCU-24" style="edgeStyle=orthogonalEdgeStyle;shape=connector;rounded=0;jumpStyle=arc;orthogonalLoop=1;jettySize=auto;html=1;strokeColor=default;align=center;verticalAlign=middle;fontFamily=Helvetica;fontSize=11;fontColor=default;labelBackgroundColor=default;endArrow=classic;exitX=0;exitY=0.5;exitDx=0;exitDy=0;entryX=0.5;entryY=0;entryDx=0;entryDy=0;" edge="1" parent="xuLyacIKq8niHRSZ1Tol-1" source="o30utoSeEYKNgTh-UnCU-14" target="o30utoSeEYKNgTh-UnCU-19">
          <mxGeometry relative="1" as="geometry">
            <mxPoint x="589.9999999999998" y="670" as="targetPoint" />
            <Array as="points">
              <mxPoint x="520" y="555" />
              <mxPoint x="520" y="650" />
              <mxPoint x="590" y="650" />
            </Array>
          </mxGeometry>
        </mxCell>
        <mxCell id="o30utoSeEYKNgTh-UnCU-25" value="0" style="edgeLabel;html=1;align=center;verticalAlign=middle;resizable=0;points=[];fontFamily=Helvetica;fontSize=11;fontColor=default;labelBackgroundColor=default;" vertex="1" connectable="0" parent="o30utoSeEYKNgTh-UnCU-24">
          <mxGeometry x="-0.6273" relative="1" as="geometry">
            <mxPoint as="offset" />
          </mxGeometry>
        </mxCell>
        <mxCell id="o30utoSeEYKNgTh-UnCU-14" value="C = D" style="rhombus;whiteSpace=wrap;html=1;" vertex="1" parent="xuLyacIKq8niHRSZ1Tol-1">
          <mxGeometry x="540" y="530" width="100" height="50" as="geometry" />
        </mxCell>
        <mxCell id="o30utoSeEYKNgTh-UnCU-23" style="edgeStyle=orthogonalEdgeStyle;shape=connector;rounded=0;jumpStyle=arc;orthogonalLoop=1;jettySize=auto;html=1;entryX=0.5;entryY=0;entryDx=0;entryDy=0;strokeColor=default;align=center;verticalAlign=middle;fontFamily=Helvetica;fontSize=11;fontColor=default;labelBackgroundColor=default;endArrow=classic;" edge="1" parent="xuLyacIKq8niHRSZ1Tol-1" source="o30utoSeEYKNgTh-UnCU-15" target="o30utoSeEYKNgTh-UnCU-19">
          <mxGeometry relative="1" as="geometry">
            <Array as="points">
              <mxPoint x="705" y="650" />
              <mxPoint x="590" y="650" />
            </Array>
          </mxGeometry>
        </mxCell>
        <mxCell id="o30utoSeEYKNgTh-UnCU-15" value="CNT &amp;lt;= CNT + 1" style="rounded=1;whiteSpace=wrap;html=1;fontFamily=Helvetica;fontSize=11;labelBackgroundColor=none;fillColor=#fff2cc;strokeColor=#d6b656;arcSize=50;" vertex="1" parent="xuLyacIKq8niHRSZ1Tol-1">
          <mxGeometry x="640" y="590" width="130" height="40" as="geometry" />
        </mxCell>
        <mxCell id="o30utoSeEYKNgTh-UnCU-21" style="edgeStyle=orthogonalEdgeStyle;shape=connector;rounded=0;jumpStyle=arc;orthogonalLoop=1;jettySize=auto;html=1;entryX=0.5;entryY=0;entryDx=0;entryDy=0;strokeColor=default;align=center;verticalAlign=middle;fontFamily=Helvetica;fontSize=11;fontColor=default;labelBackgroundColor=default;endArrow=classic;exitX=0;exitY=0.5;exitDx=0;exitDy=0;" edge="1" parent="xuLyacIKq8niHRSZ1Tol-1" source="o30utoSeEYKNgTh-UnCU-92" target="o30utoSeEYKNgTh-UnCU-20">
          <mxGeometry relative="1" as="geometry">
            <Array as="points">
              <mxPoint x="660" y="721" />
              <mxPoint x="660" y="750" />
              <mxPoint x="755" y="750" />
            </Array>
          </mxGeometry>
        </mxCell>
        <mxCell id="o30utoSeEYKNgTh-UnCU-95" value="1" style="edgeLabel;html=1;align=center;verticalAlign=middle;resizable=0;points=[];fontFamily=Helvetica;fontSize=11;fontColor=default;labelBackgroundColor=default;" vertex="1" connectable="0" parent="o30utoSeEYKNgTh-UnCU-21">
          <mxGeometry x="-0.6976" relative="1" as="geometry">
            <mxPoint as="offset" />
          </mxGeometry>
        </mxCell>
        <mxCell id="o30utoSeEYKNgTh-UnCU-27" style="edgeStyle=orthogonalEdgeStyle;shape=connector;rounded=0;jumpStyle=arc;orthogonalLoop=1;jettySize=auto;html=1;entryX=0.5;entryY=0;entryDx=0;entryDy=0;strokeColor=default;align=center;verticalAlign=middle;fontFamily=Helvetica;fontSize=11;fontColor=default;labelBackgroundColor=default;endArrow=classic;" edge="1" parent="xuLyacIKq8niHRSZ1Tol-1" source="o30utoSeEYKNgTh-UnCU-19" target="xuLyacIKq8niHRSZ1Tol-4">
          <mxGeometry relative="1" as="geometry">
            <Array as="points">
              <mxPoint x="150" y="691" />
              <mxPoint x="150" y="140" />
              <mxPoint x="290" y="140" />
            </Array>
          </mxGeometry>
        </mxCell>
        <mxCell id="o30utoSeEYKNgTh-UnCU-28" value="1" style="edgeLabel;html=1;align=center;verticalAlign=middle;resizable=0;points=[];fontFamily=Helvetica;fontSize=11;fontColor=default;labelBackgroundColor=default;" vertex="1" connectable="0" parent="o30utoSeEYKNgTh-UnCU-27">
          <mxGeometry x="-0.9425" relative="1" as="geometry">
            <mxPoint as="offset" />
          </mxGeometry>
        </mxCell>
        <mxCell id="o30utoSeEYKNgTh-UnCU-19" value="COUNT = L" style="rhombus;whiteSpace=wrap;html=1;" vertex="1" parent="xuLyacIKq8niHRSZ1Tol-1">
          <mxGeometry x="540" y="666" width="100" height="50" as="geometry" />
        </mxCell>
        <mxCell id="o30utoSeEYKNgTh-UnCU-26" style="edgeStyle=orthogonalEdgeStyle;shape=connector;rounded=0;jumpStyle=arc;orthogonalLoop=1;jettySize=auto;html=1;entryX=1;entryY=0.25;entryDx=0;entryDy=0;strokeColor=default;align=center;verticalAlign=middle;fontFamily=Helvetica;fontSize=11;fontColor=default;labelBackgroundColor=default;endArrow=classic;exitX=0.5;exitY=1;exitDx=0;exitDy=0;" edge="1" parent="xuLyacIKq8niHRSZ1Tol-1" source="o30utoSeEYKNgTh-UnCU-20" target="o30utoSeEYKNgTh-UnCU-3">
          <mxGeometry relative="1" as="geometry">
            <Array as="points">
              <mxPoint x="755" y="790" />
              <mxPoint x="840" y="790" />
              <mxPoint x="840" y="175" />
            </Array>
          </mxGeometry>
        </mxCell>
        <mxCell id="o30utoSeEYKNgTh-UnCU-20" value="MEM_ADDRESS &amp;lt;- A&lt;br&gt;MEM_ENABLE &amp;lt;- 1" style="rounded=1;whiteSpace=wrap;html=1;fontFamily=Helvetica;fontSize=11;labelBackgroundColor=none;fillColor=#fff2cc;strokeColor=#d6b656;arcSize=50;" vertex="1" parent="xuLyacIKq8niHRSZ1Tol-1">
          <mxGeometry x="690" y="770" width="130" height="40" as="geometry" />
        </mxCell>
        <mxCell id="o30utoSeEYKNgTh-UnCU-29" value="nFOUND &amp;lt;- CNT" style="text;html=1;align=center;verticalAlign=middle;resizable=0;points=[];autosize=1;strokeColor=none;fillColor=none;fontFamily=Helvetica;fontSize=11;fontColor=default;labelBackgroundColor=default;" vertex="1" parent="xuLyacIKq8niHRSZ1Tol-1">
          <mxGeometry x="390" y="760" width="110" height="30" as="geometry" />
        </mxCell>
        <mxCell id="o30utoSeEYKNgTh-UnCU-30" style="edgeStyle=orthogonalEdgeStyle;shape=connector;rounded=0;jumpStyle=arc;orthogonalLoop=1;jettySize=auto;html=1;entryX=0.5;entryY=0;entryDx=0;entryDy=0;strokeColor=default;align=center;verticalAlign=middle;fontFamily=Helvetica;fontSize=11;fontColor=default;labelBackgroundColor=default;endArrow=classic;startArrow=dash;startFill=0;" edge="1" parent="xuLyacIKq8niHRSZ1Tol-1" source="o30utoSeEYKNgTh-UnCU-32" target="o30utoSeEYKNgTh-UnCU-33">
          <mxGeometry relative="1" as="geometry" />
        </mxCell>
        <mxCell id="o30utoSeEYKNgTh-UnCU-31" value="32" style="edgeLabel;html=1;align=center;verticalAlign=middle;resizable=0;points=[];fontFamily=Helvetica;fontSize=11;fontColor=default;labelBackgroundColor=default;" vertex="1" connectable="0" parent="o30utoSeEYKNgTh-UnCU-30">
          <mxGeometry x="-0.0894" y="-1" relative="1" as="geometry">
            <mxPoint x="9" y="-3" as="offset" />
          </mxGeometry>
        </mxCell>
        <mxCell id="o30utoSeEYKNgTh-UnCU-32" value="" style="shape=trapezoid;perimeter=trapezoidPerimeter;whiteSpace=wrap;html=1;fixedSize=1;fontFamily=Helvetica;fontSize=11;fontColor=default;labelBackgroundColor=default;rotation=-180;size=30;" vertex="1" parent="xuLyacIKq8niHRSZ1Tol-1">
          <mxGeometry x="1395" y="576" width="150" height="30" as="geometry" />
        </mxCell>
        <mxCell id="o30utoSeEYKNgTh-UnCU-33" value="A" style="rounded=0;whiteSpace=wrap;html=1;fontFamily=Helvetica;fontSize=14;labelBackgroundColor=none;fillColor=#ffe6cc;strokeColor=#d79b00;fontStyle=1" vertex="1" parent="xuLyacIKq8niHRSZ1Tol-1">
          <mxGeometry x="1405" y="636" width="130" height="30" as="geometry" />
        </mxCell>
        <mxCell id="o30utoSeEYKNgTh-UnCU-34" style="edgeStyle=orthogonalEdgeStyle;shape=connector;rounded=0;jumpStyle=arc;orthogonalLoop=1;jettySize=auto;html=1;entryX=0.75;entryY=1;entryDx=0;entryDy=0;strokeColor=default;align=center;verticalAlign=middle;fontFamily=Helvetica;fontSize=11;fontColor=default;labelBackgroundColor=default;endArrow=classic;startArrow=dash;startFill=0;" edge="1" parent="xuLyacIKq8niHRSZ1Tol-1" source="o30utoSeEYKNgTh-UnCU-35" target="o30utoSeEYKNgTh-UnCU-32">
          <mxGeometry relative="1" as="geometry">
            <Array as="points">
              <mxPoint x="1420" y="556" />
              <mxPoint x="1432" y="556" />
            </Array>
          </mxGeometry>
        </mxCell>
        <mxCell id="o30utoSeEYKNgTh-UnCU-47" value="32" style="edgeLabel;html=1;align=center;verticalAlign=middle;resizable=0;points=[];fontFamily=Helvetica;fontSize=11;fontColor=default;labelBackgroundColor=default;" vertex="1" connectable="0" parent="o30utoSeEYKNgTh-UnCU-34">
          <mxGeometry x="-0.4297" relative="1" as="geometry">
            <mxPoint x="-17" y="5" as="offset" />
          </mxGeometry>
        </mxCell>
        <mxCell id="o30utoSeEYKNgTh-UnCU-35" value="ADDRESS" style="text;html=1;align=center;verticalAlign=middle;resizable=0;points=[];autosize=1;strokeColor=none;fillColor=none;fontFamily=Helvetica;fontSize=11;fontColor=default;labelBackgroundColor=default;" vertex="1" parent="xuLyacIKq8niHRSZ1Tol-1">
          <mxGeometry x="1380" y="516" width="80" height="30" as="geometry" />
        </mxCell>
        <mxCell id="o30utoSeEYKNgTh-UnCU-36" style="edgeStyle=orthogonalEdgeStyle;shape=connector;rounded=0;jumpStyle=arc;orthogonalLoop=1;jettySize=auto;html=1;entryX=0;entryY=0.5;entryDx=0;entryDy=0;strokeColor=default;align=center;verticalAlign=middle;fontFamily=Helvetica;fontSize=11;fontColor=default;labelBackgroundColor=default;endArrow=classic;" edge="1" parent="xuLyacIKq8niHRSZ1Tol-1" source="o30utoSeEYKNgTh-UnCU-37" target="o30utoSeEYKNgTh-UnCU-32">
          <mxGeometry relative="1" as="geometry" />
        </mxCell>
        <mxCell id="o30utoSeEYKNgTh-UnCU-37" value="selA" style="text;html=1;align=center;verticalAlign=middle;resizable=0;points=[];autosize=1;strokeColor=none;fillColor=none;fontFamily=Helvetica;fontSize=11;fontColor=default;labelBackgroundColor=default;" vertex="1" parent="xuLyacIKq8niHRSZ1Tol-1">
          <mxGeometry x="1566" y="576" width="40" height="30" as="geometry" />
        </mxCell>
        <mxCell id="o30utoSeEYKNgTh-UnCU-38" style="edgeStyle=orthogonalEdgeStyle;shape=connector;rounded=0;jumpStyle=arc;orthogonalLoop=1;jettySize=auto;html=1;entryX=1;entryY=0.5;entryDx=0;entryDy=0;strokeColor=default;align=center;verticalAlign=middle;fontFamily=Helvetica;fontSize=11;fontColor=default;labelBackgroundColor=default;endArrow=classic;" edge="1" parent="xuLyacIKq8niHRSZ1Tol-1" source="o30utoSeEYKNgTh-UnCU-39" target="o30utoSeEYKNgTh-UnCU-33">
          <mxGeometry relative="1" as="geometry" />
        </mxCell>
        <mxCell id="o30utoSeEYKNgTh-UnCU-39" value="loadA" style="text;html=1;align=center;verticalAlign=middle;resizable=0;points=[];autosize=1;strokeColor=none;fillColor=none;fontFamily=Helvetica;fontSize=11;fontColor=default;labelBackgroundColor=default;" vertex="1" parent="xuLyacIKq8niHRSZ1Tol-1">
          <mxGeometry x="1566" y="636" width="50" height="30" as="geometry" />
        </mxCell>
        <mxCell id="o30utoSeEYKNgTh-UnCU-40" value="+" style="rounded=0;whiteSpace=wrap;html=1;fontFamily=Helvetica;fontSize=14;labelBackgroundColor=none;fillColor=#f5f5f5;strokeColor=#666666;fontStyle=0;fontColor=#333333;" vertex="1" parent="xuLyacIKq8niHRSZ1Tol-1">
          <mxGeometry x="1350" y="706" width="130" height="30" as="geometry" />
        </mxCell>
        <mxCell id="o30utoSeEYKNgTh-UnCU-41" style="edgeStyle=orthogonalEdgeStyle;shape=connector;rounded=0;jumpStyle=arc;orthogonalLoop=1;jettySize=auto;html=1;entryX=0.75;entryY=0;entryDx=0;entryDy=0;strokeColor=default;align=center;verticalAlign=middle;fontFamily=Helvetica;fontSize=11;fontColor=default;labelBackgroundColor=default;endArrow=classic;startArrow=dash;startFill=0;exitX=0.5;exitY=1;exitDx=0;exitDy=0;" edge="1" parent="xuLyacIKq8niHRSZ1Tol-1" source="o30utoSeEYKNgTh-UnCU-33" target="o30utoSeEYKNgTh-UnCU-40">
          <mxGeometry relative="1" as="geometry">
            <mxPoint x="1480" y="616" as="sourcePoint" />
            <mxPoint x="1480" y="646" as="targetPoint" />
          </mxGeometry>
        </mxCell>
        <mxCell id="o30utoSeEYKNgTh-UnCU-42" value="32" style="edgeLabel;html=1;align=center;verticalAlign=middle;resizable=0;points=[];fontFamily=Helvetica;fontSize=11;fontColor=default;labelBackgroundColor=default;" vertex="1" connectable="0" parent="o30utoSeEYKNgTh-UnCU-41">
          <mxGeometry x="-0.0894" y="-1" relative="1" as="geometry">
            <mxPoint x="14" y="5" as="offset" />
          </mxGeometry>
        </mxCell>
        <mxCell id="o30utoSeEYKNgTh-UnCU-43" style="edgeStyle=orthogonalEdgeStyle;shape=connector;rounded=0;jumpStyle=arc;orthogonalLoop=1;jettySize=auto;html=1;strokeColor=default;align=center;verticalAlign=middle;fontFamily=Helvetica;fontSize=11;fontColor=default;labelBackgroundColor=default;endArrow=classic;startArrow=dash;startFill=0;exitX=0.5;exitY=1;exitDx=0;exitDy=0;entryX=0.25;entryY=1;entryDx=0;entryDy=0;" edge="1" parent="xuLyacIKq8niHRSZ1Tol-1" source="o30utoSeEYKNgTh-UnCU-40" target="o30utoSeEYKNgTh-UnCU-32">
          <mxGeometry relative="1" as="geometry">
            <mxPoint x="1500" y="636" as="sourcePoint" />
            <mxPoint x="1510" y="520" as="targetPoint" />
            <Array as="points">
              <mxPoint x="1415" y="756" />
              <mxPoint x="1625" y="756" />
              <mxPoint x="1625" y="556" />
              <mxPoint x="1507" y="556" />
              <mxPoint x="1507" y="576" />
            </Array>
          </mxGeometry>
        </mxCell>
        <mxCell id="o30utoSeEYKNgTh-UnCU-44" value="32" style="edgeLabel;html=1;align=center;verticalAlign=middle;resizable=0;points=[];fontFamily=Helvetica;fontSize=11;fontColor=default;labelBackgroundColor=default;" vertex="1" connectable="0" parent="o30utoSeEYKNgTh-UnCU-43">
          <mxGeometry x="-0.0894" y="-1" relative="1" as="geometry">
            <mxPoint x="-221" y="27" as="offset" />
          </mxGeometry>
        </mxCell>
        <mxCell id="o30utoSeEYKNgTh-UnCU-45" style="edgeStyle=orthogonalEdgeStyle;shape=connector;rounded=0;jumpStyle=arc;orthogonalLoop=1;jettySize=auto;html=1;entryX=0.25;entryY=0;entryDx=0;entryDy=0;strokeColor=default;align=center;verticalAlign=middle;fontFamily=Helvetica;fontSize=11;fontColor=default;labelBackgroundColor=default;endArrow=classic;" edge="1" parent="xuLyacIKq8niHRSZ1Tol-1" source="o30utoSeEYKNgTh-UnCU-46" target="o30utoSeEYKNgTh-UnCU-40">
          <mxGeometry relative="1" as="geometry">
            <Array as="points">
              <mxPoint x="1365" y="690" />
              <mxPoint x="1383" y="690" />
            </Array>
          </mxGeometry>
        </mxCell>
        <mxCell id="o30utoSeEYKNgTh-UnCU-46" value="1" style="text;html=1;align=center;verticalAlign=middle;resizable=0;points=[];autosize=1;strokeColor=none;fillColor=none;fontFamily=Helvetica;fontSize=11;fontColor=default;labelBackgroundColor=default;" vertex="1" parent="xuLyacIKq8niHRSZ1Tol-1">
          <mxGeometry x="1350" y="650" width="30" height="30" as="geometry" />
        </mxCell>
        <mxCell id="o30utoSeEYKNgTh-UnCU-48" style="edgeStyle=orthogonalEdgeStyle;shape=connector;rounded=0;jumpStyle=arc;orthogonalLoop=1;jettySize=auto;html=1;entryX=0.5;entryY=0;entryDx=0;entryDy=0;strokeColor=default;align=center;verticalAlign=middle;fontFamily=Helvetica;fontSize=11;fontColor=default;labelBackgroundColor=default;endArrow=classic;startArrow=dash;startFill=0;exitX=0.496;exitY=1.05;exitDx=0;exitDy=0;exitPerimeter=0;" edge="1" parent="xuLyacIKq8niHRSZ1Tol-1" target="o30utoSeEYKNgTh-UnCU-50" source="o30utoSeEYKNgTh-UnCU-53">
          <mxGeometry relative="1" as="geometry">
            <mxPoint x="1470" y="205" as="sourcePoint" />
          </mxGeometry>
        </mxCell>
        <mxCell id="o30utoSeEYKNgTh-UnCU-49" value="6" style="edgeLabel;html=1;align=center;verticalAlign=middle;resizable=0;points=[];fontFamily=Helvetica;fontSize=11;fontColor=default;labelBackgroundColor=default;" vertex="1" connectable="0" parent="o30utoSeEYKNgTh-UnCU-48">
          <mxGeometry x="-0.0894" y="-1" relative="1" as="geometry">
            <mxPoint x="9" y="-3" as="offset" />
          </mxGeometry>
        </mxCell>
        <mxCell id="o30utoSeEYKNgTh-UnCU-50" value="L" style="rounded=0;whiteSpace=wrap;html=1;fontFamily=Helvetica;fontSize=14;labelBackgroundColor=none;fillColor=#ffe6cc;strokeColor=#d79b00;fontStyle=1" vertex="1" parent="xuLyacIKq8niHRSZ1Tol-1">
          <mxGeometry x="1405" y="235" width="130" height="30" as="geometry" />
        </mxCell>
        <mxCell id="o30utoSeEYKNgTh-UnCU-51" style="edgeStyle=orthogonalEdgeStyle;shape=connector;rounded=0;jumpStyle=arc;orthogonalLoop=1;jettySize=auto;html=1;entryX=1;entryY=0.5;entryDx=0;entryDy=0;strokeColor=default;align=center;verticalAlign=middle;fontFamily=Helvetica;fontSize=11;fontColor=default;labelBackgroundColor=default;endArrow=classic;" edge="1" parent="xuLyacIKq8niHRSZ1Tol-1" source="o30utoSeEYKNgTh-UnCU-52" target="o30utoSeEYKNgTh-UnCU-50">
          <mxGeometry relative="1" as="geometry" />
        </mxCell>
        <mxCell id="o30utoSeEYKNgTh-UnCU-52" value="loadL" style="text;html=1;align=center;verticalAlign=middle;resizable=0;points=[];autosize=1;strokeColor=none;fillColor=none;fontFamily=Helvetica;fontSize=11;fontColor=default;labelBackgroundColor=default;" vertex="1" parent="xuLyacIKq8niHRSZ1Tol-1">
          <mxGeometry x="1566" y="235" width="50" height="30" as="geometry" />
        </mxCell>
        <mxCell id="o30utoSeEYKNgTh-UnCU-53" value="LEN" style="text;html=1;align=center;verticalAlign=middle;resizable=0;points=[];autosize=1;strokeColor=none;fillColor=none;fontFamily=Helvetica;fontSize=11;fontColor=default;labelBackgroundColor=default;" vertex="1" parent="xuLyacIKq8niHRSZ1Tol-1">
          <mxGeometry x="1450" y="165" width="40" height="30" as="geometry" />
        </mxCell>
        <mxCell id="o30utoSeEYKNgTh-UnCU-54" style="edgeStyle=orthogonalEdgeStyle;shape=connector;rounded=0;jumpStyle=arc;orthogonalLoop=1;jettySize=auto;html=1;entryX=0.5;entryY=0;entryDx=0;entryDy=0;strokeColor=default;align=center;verticalAlign=middle;fontFamily=Helvetica;fontSize=11;fontColor=default;labelBackgroundColor=default;endArrow=classic;startArrow=dash;startFill=0;" edge="1" parent="xuLyacIKq8niHRSZ1Tol-1" source="o30utoSeEYKNgTh-UnCU-56" target="o30utoSeEYKNgTh-UnCU-57">
          <mxGeometry relative="1" as="geometry" />
        </mxCell>
        <mxCell id="o30utoSeEYKNgTh-UnCU-55" value="6" style="edgeLabel;html=1;align=center;verticalAlign=middle;resizable=0;points=[];fontFamily=Helvetica;fontSize=11;fontColor=default;labelBackgroundColor=default;" vertex="1" connectable="0" parent="o30utoSeEYKNgTh-UnCU-54">
          <mxGeometry x="-0.0894" y="-1" relative="1" as="geometry">
            <mxPoint x="9" y="-3" as="offset" />
          </mxGeometry>
        </mxCell>
        <mxCell id="o30utoSeEYKNgTh-UnCU-56" value="" style="shape=trapezoid;perimeter=trapezoidPerimeter;whiteSpace=wrap;html=1;fixedSize=1;fontFamily=Helvetica;fontSize=11;fontColor=default;labelBackgroundColor=default;rotation=-180;size=30;" vertex="1" parent="xuLyacIKq8niHRSZ1Tol-1">
          <mxGeometry x="1039" y="235" width="150" height="30" as="geometry" />
        </mxCell>
        <mxCell id="o30utoSeEYKNgTh-UnCU-57" value="CNT" style="rounded=0;whiteSpace=wrap;html=1;fontFamily=Helvetica;fontSize=14;labelBackgroundColor=none;fillColor=#ffe6cc;strokeColor=#d79b00;fontStyle=1" vertex="1" parent="xuLyacIKq8niHRSZ1Tol-1">
          <mxGeometry x="1049" y="295" width="130" height="30" as="geometry" />
        </mxCell>
        <mxCell id="o30utoSeEYKNgTh-UnCU-58" style="edgeStyle=orthogonalEdgeStyle;shape=connector;rounded=0;jumpStyle=arc;orthogonalLoop=1;jettySize=auto;html=1;entryX=0.75;entryY=1;entryDx=0;entryDy=0;strokeColor=default;align=center;verticalAlign=middle;fontFamily=Helvetica;fontSize=11;fontColor=default;labelBackgroundColor=default;endArrow=classic;" edge="1" parent="xuLyacIKq8niHRSZ1Tol-1" source="o30utoSeEYKNgTh-UnCU-59" target="o30utoSeEYKNgTh-UnCU-56">
          <mxGeometry relative="1" as="geometry">
            <Array as="points">
              <mxPoint x="1064" y="215" />
              <mxPoint x="1076" y="215" />
            </Array>
          </mxGeometry>
        </mxCell>
        <mxCell id="o30utoSeEYKNgTh-UnCU-59" value="0" style="text;html=1;align=center;verticalAlign=middle;resizable=0;points=[];autosize=1;strokeColor=none;fillColor=none;fontFamily=Helvetica;fontSize=11;fontColor=default;labelBackgroundColor=default;" vertex="1" parent="xuLyacIKq8niHRSZ1Tol-1">
          <mxGeometry x="1049" y="175" width="30" height="30" as="geometry" />
        </mxCell>
        <mxCell id="o30utoSeEYKNgTh-UnCU-60" style="edgeStyle=orthogonalEdgeStyle;shape=connector;rounded=0;jumpStyle=arc;orthogonalLoop=1;jettySize=auto;html=1;entryX=0;entryY=0.5;entryDx=0;entryDy=0;strokeColor=default;align=center;verticalAlign=middle;fontFamily=Helvetica;fontSize=11;fontColor=default;labelBackgroundColor=default;endArrow=classic;" edge="1" parent="xuLyacIKq8niHRSZ1Tol-1" source="o30utoSeEYKNgTh-UnCU-61" target="o30utoSeEYKNgTh-UnCU-56">
          <mxGeometry relative="1" as="geometry" />
        </mxCell>
        <mxCell id="o30utoSeEYKNgTh-UnCU-61" value="selCNT" style="text;html=1;align=center;verticalAlign=middle;resizable=0;points=[];autosize=1;strokeColor=none;fillColor=none;fontFamily=Helvetica;fontSize=11;fontColor=default;labelBackgroundColor=default;" vertex="1" parent="xuLyacIKq8niHRSZ1Tol-1">
          <mxGeometry x="1200" y="235" width="60" height="30" as="geometry" />
        </mxCell>
        <mxCell id="o30utoSeEYKNgTh-UnCU-62" style="edgeStyle=orthogonalEdgeStyle;shape=connector;rounded=0;jumpStyle=arc;orthogonalLoop=1;jettySize=auto;html=1;entryX=1;entryY=0.5;entryDx=0;entryDy=0;strokeColor=default;align=center;verticalAlign=middle;fontFamily=Helvetica;fontSize=11;fontColor=default;labelBackgroundColor=default;endArrow=classic;" edge="1" parent="xuLyacIKq8niHRSZ1Tol-1" source="o30utoSeEYKNgTh-UnCU-63" target="o30utoSeEYKNgTh-UnCU-57">
          <mxGeometry relative="1" as="geometry" />
        </mxCell>
        <mxCell id="o30utoSeEYKNgTh-UnCU-63" value="loadCNT" style="text;html=1;align=center;verticalAlign=middle;resizable=0;points=[];autosize=1;strokeColor=none;fillColor=none;fontFamily=Helvetica;fontSize=11;fontColor=default;labelBackgroundColor=default;" vertex="1" parent="xuLyacIKq8niHRSZ1Tol-1">
          <mxGeometry x="1200" y="295" width="70" height="30" as="geometry" />
        </mxCell>
        <mxCell id="o30utoSeEYKNgTh-UnCU-64" value="+" style="rounded=0;whiteSpace=wrap;html=1;fontFamily=Helvetica;fontSize=14;labelBackgroundColor=none;fillColor=#f5f5f5;strokeColor=#666666;fontStyle=0;fontColor=#333333;" vertex="1" parent="xuLyacIKq8niHRSZ1Tol-1">
          <mxGeometry x="994" y="365" width="130" height="30" as="geometry" />
        </mxCell>
        <mxCell id="o30utoSeEYKNgTh-UnCU-65" style="edgeStyle=orthogonalEdgeStyle;shape=connector;rounded=0;jumpStyle=arc;orthogonalLoop=1;jettySize=auto;html=1;entryX=0.75;entryY=0;entryDx=0;entryDy=0;strokeColor=default;align=center;verticalAlign=middle;fontFamily=Helvetica;fontSize=11;fontColor=default;labelBackgroundColor=default;endArrow=classic;startArrow=dash;startFill=0;exitX=0.5;exitY=1;exitDx=0;exitDy=0;" edge="1" parent="xuLyacIKq8niHRSZ1Tol-1" source="o30utoSeEYKNgTh-UnCU-57" target="o30utoSeEYKNgTh-UnCU-64">
          <mxGeometry relative="1" as="geometry">
            <mxPoint x="1124" y="275" as="sourcePoint" />
            <mxPoint x="1124" y="305" as="targetPoint" />
          </mxGeometry>
        </mxCell>
        <mxCell id="o30utoSeEYKNgTh-UnCU-66" value="6" style="edgeLabel;html=1;align=center;verticalAlign=middle;resizable=0;points=[];fontFamily=Helvetica;fontSize=11;fontColor=default;labelBackgroundColor=default;" vertex="1" connectable="0" parent="o30utoSeEYKNgTh-UnCU-65">
          <mxGeometry x="-0.0894" y="-1" relative="1" as="geometry">
            <mxPoint x="14" y="5" as="offset" />
          </mxGeometry>
        </mxCell>
        <mxCell id="o30utoSeEYKNgTh-UnCU-67" style="edgeStyle=orthogonalEdgeStyle;shape=connector;rounded=0;jumpStyle=arc;orthogonalLoop=1;jettySize=auto;html=1;strokeColor=default;align=center;verticalAlign=middle;fontFamily=Helvetica;fontSize=11;fontColor=default;labelBackgroundColor=default;endArrow=classic;startArrow=dash;startFill=0;exitX=0.5;exitY=1;exitDx=0;exitDy=0;entryX=0.25;entryY=1;entryDx=0;entryDy=0;" edge="1" parent="xuLyacIKq8niHRSZ1Tol-1" source="o30utoSeEYKNgTh-UnCU-64" target="o30utoSeEYKNgTh-UnCU-56">
          <mxGeometry relative="1" as="geometry">
            <mxPoint x="1144" y="295" as="sourcePoint" />
            <mxPoint x="1154" y="179" as="targetPoint" />
            <Array as="points">
              <mxPoint x="1059" y="415" />
              <mxPoint x="1269" y="415" />
              <mxPoint x="1269" y="215" />
              <mxPoint x="1151" y="215" />
              <mxPoint x="1151" y="235" />
            </Array>
          </mxGeometry>
        </mxCell>
        <mxCell id="o30utoSeEYKNgTh-UnCU-68" value="6" style="edgeLabel;html=1;align=center;verticalAlign=middle;resizable=0;points=[];fontFamily=Helvetica;fontSize=11;fontColor=default;labelBackgroundColor=default;" vertex="1" connectable="0" parent="o30utoSeEYKNgTh-UnCU-67">
          <mxGeometry x="-0.0894" y="-1" relative="1" as="geometry">
            <mxPoint x="-221" y="27" as="offset" />
          </mxGeometry>
        </mxCell>
        <mxCell id="o30utoSeEYKNgTh-UnCU-69" style="edgeStyle=orthogonalEdgeStyle;shape=connector;rounded=0;jumpStyle=arc;orthogonalLoop=1;jettySize=auto;html=1;entryX=0.25;entryY=0;entryDx=0;entryDy=0;strokeColor=default;align=center;verticalAlign=middle;fontFamily=Helvetica;fontSize=11;fontColor=default;labelBackgroundColor=default;endArrow=classic;" edge="1" parent="xuLyacIKq8niHRSZ1Tol-1" source="o30utoSeEYKNgTh-UnCU-70" target="o30utoSeEYKNgTh-UnCU-64">
          <mxGeometry relative="1" as="geometry">
            <Array as="points">
              <mxPoint x="1009" y="349" />
              <mxPoint x="1027" y="349" />
            </Array>
          </mxGeometry>
        </mxCell>
        <mxCell id="o30utoSeEYKNgTh-UnCU-70" value="1" style="text;html=1;align=center;verticalAlign=middle;resizable=0;points=[];autosize=1;strokeColor=none;fillColor=none;fontFamily=Helvetica;fontSize=11;fontColor=default;labelBackgroundColor=default;" vertex="1" parent="xuLyacIKq8niHRSZ1Tol-1">
          <mxGeometry x="994" y="309" width="30" height="30" as="geometry" />
        </mxCell>
        <mxCell id="o30utoSeEYKNgTh-UnCU-71" style="edgeStyle=orthogonalEdgeStyle;shape=connector;rounded=0;jumpStyle=arc;orthogonalLoop=1;jettySize=auto;html=1;entryX=0.5;entryY=0;entryDx=0;entryDy=0;strokeColor=default;align=center;verticalAlign=middle;fontFamily=Helvetica;fontSize=11;fontColor=default;labelBackgroundColor=default;endArrow=classic;startArrow=dash;startFill=0;exitX=0.496;exitY=1.05;exitDx=0;exitDy=0;exitPerimeter=0;" edge="1" parent="xuLyacIKq8niHRSZ1Tol-1" source="o30utoSeEYKNgTh-UnCU-76" target="o30utoSeEYKNgTh-UnCU-73">
          <mxGeometry relative="1" as="geometry">
            <mxPoint x="1470" y="335" as="sourcePoint" />
          </mxGeometry>
        </mxCell>
        <mxCell id="o30utoSeEYKNgTh-UnCU-72" value="6" style="edgeLabel;html=1;align=center;verticalAlign=middle;resizable=0;points=[];fontFamily=Helvetica;fontSize=11;fontColor=default;labelBackgroundColor=default;" vertex="1" connectable="0" parent="o30utoSeEYKNgTh-UnCU-71">
          <mxGeometry x="-0.0894" y="-1" relative="1" as="geometry">
            <mxPoint x="9" y="-3" as="offset" />
          </mxGeometry>
        </mxCell>
        <mxCell id="o30utoSeEYKNgTh-UnCU-73" value="D" style="rounded=0;whiteSpace=wrap;html=1;fontFamily=Helvetica;fontSize=14;labelBackgroundColor=none;fillColor=#ffe6cc;strokeColor=#d79b00;fontStyle=1" vertex="1" parent="xuLyacIKq8niHRSZ1Tol-1">
          <mxGeometry x="1405" y="365" width="130" height="30" as="geometry" />
        </mxCell>
        <mxCell id="o30utoSeEYKNgTh-UnCU-74" style="edgeStyle=orthogonalEdgeStyle;shape=connector;rounded=0;jumpStyle=arc;orthogonalLoop=1;jettySize=auto;html=1;entryX=1;entryY=0.5;entryDx=0;entryDy=0;strokeColor=default;align=center;verticalAlign=middle;fontFamily=Helvetica;fontSize=11;fontColor=default;labelBackgroundColor=default;endArrow=classic;" edge="1" parent="xuLyacIKq8niHRSZ1Tol-1" source="o30utoSeEYKNgTh-UnCU-75" target="o30utoSeEYKNgTh-UnCU-73">
          <mxGeometry relative="1" as="geometry" />
        </mxCell>
        <mxCell id="o30utoSeEYKNgTh-UnCU-75" value="loadD" style="text;html=1;align=center;verticalAlign=middle;resizable=0;points=[];autosize=1;strokeColor=none;fillColor=none;fontFamily=Helvetica;fontSize=11;fontColor=default;labelBackgroundColor=default;" vertex="1" parent="xuLyacIKq8niHRSZ1Tol-1">
          <mxGeometry x="1566" y="365" width="50" height="30" as="geometry" />
        </mxCell>
        <mxCell id="o30utoSeEYKNgTh-UnCU-76" value="MEM_DATAIN" style="text;html=1;align=center;verticalAlign=middle;resizable=0;points=[];autosize=1;strokeColor=none;fillColor=none;fontFamily=Helvetica;fontSize=11;fontColor=default;labelBackgroundColor=default;" vertex="1" parent="xuLyacIKq8niHRSZ1Tol-1">
          <mxGeometry x="1420" y="295" width="100" height="30" as="geometry" />
        </mxCell>
        <mxCell id="o30utoSeEYKNgTh-UnCU-77" style="edgeStyle=orthogonalEdgeStyle;shape=connector;rounded=0;jumpStyle=arc;orthogonalLoop=1;jettySize=auto;html=1;entryX=0.5;entryY=0;entryDx=0;entryDy=0;strokeColor=default;align=center;verticalAlign=middle;fontFamily=Helvetica;fontSize=11;fontColor=default;labelBackgroundColor=default;endArrow=classic;startArrow=dash;startFill=0;exitX=0.496;exitY=1.05;exitDx=0;exitDy=0;exitPerimeter=0;" edge="1" parent="xuLyacIKq8niHRSZ1Tol-1" source="o30utoSeEYKNgTh-UnCU-82" target="o30utoSeEYKNgTh-UnCU-79">
          <mxGeometry relative="1" as="geometry">
            <mxPoint x="1470" y="440" as="sourcePoint" />
          </mxGeometry>
        </mxCell>
        <mxCell id="o30utoSeEYKNgTh-UnCU-78" value="6" style="edgeLabel;html=1;align=center;verticalAlign=middle;resizable=0;points=[];fontFamily=Helvetica;fontSize=11;fontColor=default;labelBackgroundColor=default;" vertex="1" connectable="0" parent="o30utoSeEYKNgTh-UnCU-77">
          <mxGeometry x="-0.0894" y="-1" relative="1" as="geometry">
            <mxPoint x="9" y="-3" as="offset" />
          </mxGeometry>
        </mxCell>
        <mxCell id="o30utoSeEYKNgTh-UnCU-79" value="C" style="rounded=0;whiteSpace=wrap;html=1;fontFamily=Helvetica;fontSize=14;labelBackgroundColor=none;fillColor=#ffe6cc;strokeColor=#d79b00;fontStyle=1" vertex="1" parent="xuLyacIKq8niHRSZ1Tol-1">
          <mxGeometry x="1405" y="470" width="130" height="30" as="geometry" />
        </mxCell>
        <mxCell id="o30utoSeEYKNgTh-UnCU-80" style="edgeStyle=orthogonalEdgeStyle;shape=connector;rounded=0;jumpStyle=arc;orthogonalLoop=1;jettySize=auto;html=1;entryX=1;entryY=0.5;entryDx=0;entryDy=0;strokeColor=default;align=center;verticalAlign=middle;fontFamily=Helvetica;fontSize=11;fontColor=default;labelBackgroundColor=default;endArrow=classic;" edge="1" parent="xuLyacIKq8niHRSZ1Tol-1" source="o30utoSeEYKNgTh-UnCU-81" target="o30utoSeEYKNgTh-UnCU-79">
          <mxGeometry relative="1" as="geometry" />
        </mxCell>
        <mxCell id="o30utoSeEYKNgTh-UnCU-81" value="loadC" style="text;html=1;align=center;verticalAlign=middle;resizable=0;points=[];autosize=1;strokeColor=none;fillColor=none;fontFamily=Helvetica;fontSize=11;fontColor=default;labelBackgroundColor=default;" vertex="1" parent="xuLyacIKq8niHRSZ1Tol-1">
          <mxGeometry x="1566" y="470" width="50" height="30" as="geometry" />
        </mxCell>
        <mxCell id="o30utoSeEYKNgTh-UnCU-82" value="CHAR" style="text;html=1;align=center;verticalAlign=middle;resizable=0;points=[];autosize=1;strokeColor=none;fillColor=none;fontFamily=Helvetica;fontSize=11;fontColor=default;labelBackgroundColor=default;" vertex="1" parent="xuLyacIKq8niHRSZ1Tol-1">
          <mxGeometry x="1445" y="400" width="50" height="30" as="geometry" />
        </mxCell>
        <mxCell id="o30utoSeEYKNgTh-UnCU-93" value="" style="edgeStyle=orthogonalEdgeStyle;shape=connector;rounded=0;jumpStyle=arc;orthogonalLoop=1;jettySize=auto;html=1;entryX=0.5;entryY=0;entryDx=0;entryDy=0;strokeColor=default;align=center;verticalAlign=middle;fontFamily=Helvetica;fontSize=11;fontColor=default;labelBackgroundColor=default;endArrow=classic;" edge="1" parent="xuLyacIKq8niHRSZ1Tol-1" source="o30utoSeEYKNgTh-UnCU-19" target="o30utoSeEYKNgTh-UnCU-92">
          <mxGeometry relative="1" as="geometry">
            <mxPoint x="640" y="691" as="sourcePoint" />
            <mxPoint x="755" y="770" as="targetPoint" />
          </mxGeometry>
        </mxCell>
        <mxCell id="o30utoSeEYKNgTh-UnCU-94" value="0" style="edgeLabel;html=1;align=center;verticalAlign=middle;resizable=0;points=[];fontFamily=Helvetica;fontSize=11;fontColor=default;labelBackgroundColor=default;" vertex="1" connectable="0" parent="o30utoSeEYKNgTh-UnCU-93">
          <mxGeometry x="-0.6898" y="2" relative="1" as="geometry">
            <mxPoint as="offset" />
          </mxGeometry>
        </mxCell>
        <mxCell id="o30utoSeEYKNgTh-UnCU-96" style="edgeStyle=orthogonalEdgeStyle;shape=connector;rounded=0;jumpStyle=arc;orthogonalLoop=1;jettySize=auto;html=1;entryX=1;entryY=0.25;entryDx=0;entryDy=0;strokeColor=default;align=center;verticalAlign=middle;fontFamily=Helvetica;fontSize=11;fontColor=default;labelBackgroundColor=default;endArrow=classic;" edge="1" parent="xuLyacIKq8niHRSZ1Tol-1" source="o30utoSeEYKNgTh-UnCU-92" target="o30utoSeEYKNgTh-UnCU-3">
          <mxGeometry relative="1" as="geometry">
            <Array as="points">
              <mxPoint x="840" y="721" />
              <mxPoint x="840" y="175" />
            </Array>
          </mxGeometry>
        </mxCell>
        <mxCell id="o30utoSeEYKNgTh-UnCU-97" value="0" style="edgeLabel;html=1;align=center;verticalAlign=middle;resizable=0;points=[];fontFamily=Helvetica;fontSize=11;fontColor=default;labelBackgroundColor=default;" vertex="1" connectable="0" parent="o30utoSeEYKNgTh-UnCU-96">
          <mxGeometry x="-0.957" y="2" relative="1" as="geometry">
            <mxPoint as="offset" />
          </mxGeometry>
        </mxCell>
        <mxCell id="o30utoSeEYKNgTh-UnCU-92" value="MEM_READY" style="rhombus;whiteSpace=wrap;html=1;" vertex="1" parent="xuLyacIKq8niHRSZ1Tol-1">
          <mxGeometry x="705" y="696" width="100" height="50" as="geometry" />
        </mxCell>
      </root>
    </mxGraphModel>
  </diagram>
</mxfile>
